%TF.GenerationSoftware,KiCad,Pcbnew,(6.0.10)*%
%TF.CreationDate,2023-01-23T13:10:32-05:00*%
%TF.ProjectId,nfdb_mkii,6e666462-5f6d-46b6-9969-2e6b69636164,rev?*%
%TF.SameCoordinates,Original*%
%TF.FileFunction,Copper,L1,Top*%
%TF.FilePolarity,Positive*%
%FSLAX46Y46*%
G04 Gerber Fmt 4.6, Leading zero omitted, Abs format (unit mm)*
G04 Created by KiCad (PCBNEW (6.0.10)) date 2023-01-23 13:10:32*
%MOMM*%
%LPD*%
G01*
G04 APERTURE LIST*
G04 Aperture macros list*
%AMRoundRect*
0 Rectangle with rounded corners*
0 $1 Rounding radius*
0 $2 $3 $4 $5 $6 $7 $8 $9 X,Y pos of 4 corners*
0 Add a 4 corners polygon primitive as box body*
4,1,4,$2,$3,$4,$5,$6,$7,$8,$9,$2,$3,0*
0 Add four circle primitives for the rounded corners*
1,1,$1+$1,$2,$3*
1,1,$1+$1,$4,$5*
1,1,$1+$1,$6,$7*
1,1,$1+$1,$8,$9*
0 Add four rect primitives between the rounded corners*
20,1,$1+$1,$2,$3,$4,$5,0*
20,1,$1+$1,$4,$5,$6,$7,0*
20,1,$1+$1,$6,$7,$8,$9,0*
20,1,$1+$1,$8,$9,$2,$3,0*%
G04 Aperture macros list end*
%TA.AperFunction,SMDPad,CuDef*%
%ADD10R,1.200000X1.300000*%
%TD*%
%TA.AperFunction,SMDPad,CuDef*%
%ADD11R,1.200000X0.600000*%
%TD*%
%TA.AperFunction,ComponentPad*%
%ADD12R,1.700000X1.700000*%
%TD*%
%TA.AperFunction,ComponentPad*%
%ADD13O,1.700000X1.700000*%
%TD*%
%TA.AperFunction,SMDPad,CuDef*%
%ADD14R,0.600000X1.450000*%
%TD*%
%TA.AperFunction,SMDPad,CuDef*%
%ADD15R,0.300000X1.450000*%
%TD*%
%TA.AperFunction,ComponentPad*%
%ADD16O,1.000000X2.100000*%
%TD*%
%TA.AperFunction,ComponentPad*%
%ADD17O,1.000000X1.600000*%
%TD*%
%TA.AperFunction,ComponentPad*%
%ADD18O,5.000000X7.000000*%
%TD*%
%TA.AperFunction,SMDPad,CuDef*%
%ADD19R,1.300000X1.000000*%
%TD*%
%TA.AperFunction,SMDPad,CuDef*%
%ADD20R,1.300000X1.200000*%
%TD*%
%TA.AperFunction,SMDPad,CuDef*%
%ADD21RoundRect,0.150000X-0.625000X0.150000X-0.625000X-0.150000X0.625000X-0.150000X0.625000X0.150000X0*%
%TD*%
%TA.AperFunction,SMDPad,CuDef*%
%ADD22RoundRect,0.250000X-0.650000X0.350000X-0.650000X-0.350000X0.650000X-0.350000X0.650000X0.350000X0*%
%TD*%
%TA.AperFunction,ComponentPad*%
%ADD23O,1.100000X2.100000*%
%TD*%
%TA.AperFunction,ViaPad*%
%ADD24C,0.600000*%
%TD*%
%TA.AperFunction,Conductor*%
%ADD25C,0.250000*%
%TD*%
%TA.AperFunction,Conductor*%
%ADD26C,0.200000*%
%TD*%
%TA.AperFunction,Conductor*%
%ADD27C,0.500000*%
%TD*%
G04 APERTURE END LIST*
D10*
X158870251Y-31323000D03*
X156670251Y-31323000D03*
D11*
X128860251Y-30674500D03*
X128860251Y-31624500D03*
X128860251Y-32574500D03*
X131160251Y-32574500D03*
X131160251Y-31624500D03*
X131160251Y-30674500D03*
D12*
X118533200Y-25318000D03*
D13*
X118533200Y-22778000D03*
D12*
X147563451Y-25318000D03*
D13*
X147563451Y-22778000D03*
D14*
X115159000Y-29187000D03*
X114384000Y-29187000D03*
D15*
X113684000Y-29187000D03*
X113184000Y-29187000D03*
X112684000Y-29187000D03*
X112184000Y-29187000D03*
X111684000Y-29187000D03*
X111184000Y-29187000D03*
X110684000Y-29187000D03*
X110184000Y-29187000D03*
D14*
X109484000Y-29187000D03*
X108709000Y-29187000D03*
D16*
X107614000Y-28272000D03*
D17*
X116254000Y-24092000D03*
D16*
X116254000Y-28272000D03*
D17*
X107614000Y-24092000D03*
D18*
X154964251Y-26209000D03*
D19*
X130660251Y-22992001D03*
X130660251Y-25191999D03*
D20*
X105136200Y-27564000D03*
X105136200Y-29764000D03*
D12*
X134406251Y-25318000D03*
D13*
X134406251Y-22778000D03*
D12*
X110234000Y-32418000D03*
D13*
X112774000Y-32418000D03*
D12*
X105376000Y-25318000D03*
D13*
X105376000Y-22778000D03*
D21*
X149494000Y-38262000D03*
X149494000Y-39262000D03*
X149494000Y-40262000D03*
X149494000Y-41262000D03*
X149494000Y-42262000D03*
D22*
X145619000Y-36962000D03*
X145619000Y-43562000D03*
D12*
X139264251Y-32418000D03*
D13*
X141804251Y-32418000D03*
D18*
X126964251Y-26209000D03*
D20*
X118796800Y-27564000D03*
X118796800Y-29764000D03*
D23*
X145284251Y-28272000D03*
X136644251Y-28272000D03*
X136644251Y-24092000D03*
X145284251Y-24092000D03*
D24*
X152936250Y-30569000D03*
X106600000Y-27860000D03*
X116826000Y-30844000D03*
X123099251Y-32432000D03*
X122210251Y-31543000D03*
X105076000Y-31924000D03*
X158913251Y-22399000D03*
X150034000Y-44539000D03*
X145970000Y-34972000D03*
X145316250Y-31585000D03*
X159802251Y-23492000D03*
X145970000Y-40262000D03*
X123099251Y-22399000D03*
X122210251Y-23492000D03*
X107168200Y-22441000D03*
X159802251Y-28317200D03*
X148510000Y-44539000D03*
X158913251Y-28317200D03*
X155222250Y-32855000D03*
X114384000Y-30418800D03*
X132528750Y-30914500D03*
X148002000Y-30914500D03*
X109185200Y-30427000D03*
X127155250Y-30823000D03*
X127174000Y-32249000D03*
X132489250Y-27902000D03*
X152066000Y-44116000D03*
D25*
X105713000Y-22441000D02*
X107168200Y-22441000D01*
X118009693Y-30551107D02*
X118796800Y-29764000D01*
X108089000Y-29807000D02*
X105179200Y-29807000D01*
X116826000Y-30844000D02*
X117302586Y-30844000D01*
X108709000Y-29187000D02*
X108089000Y-29807000D01*
X128860251Y-31624500D02*
X122291751Y-31624500D01*
X116726000Y-30844000D02*
X115159000Y-29277000D01*
X116826000Y-30844000D02*
X116726000Y-30844000D01*
X115159000Y-29277000D02*
X115159000Y-29187000D01*
X122291751Y-31624500D02*
X122210251Y-31543000D01*
X117302586Y-30843990D02*
G75*
G03*
X118009693Y-30551107I14J999990D01*
G01*
D26*
X131835686Y-30317145D02*
X131933965Y-30315000D01*
X148626214Y-40262000D02*
X149494000Y-40262000D01*
X147386000Y-35151780D02*
X147386000Y-39021786D01*
X131933965Y-30315000D02*
X142549220Y-30315000D01*
X147678893Y-39728893D02*
X147919107Y-39969107D01*
X131461312Y-30430723D02*
X131642906Y-30355498D01*
X131297882Y-30539929D02*
X131461312Y-30430723D01*
X131160251Y-30674500D02*
X131226858Y-30607893D01*
X131226858Y-30607893D02*
X131297882Y-30539929D01*
X131642906Y-30355498D02*
X131835686Y-30317145D01*
X143256327Y-30607893D02*
X147093107Y-34444673D01*
X147919100Y-39969114D02*
G75*
G03*
X148626214Y-40262000I707100J707114D01*
G01*
X147386014Y-35151780D02*
G75*
G03*
X147093107Y-34444673I-1000014J-20D01*
G01*
X143256317Y-30607903D02*
G75*
G03*
X142549220Y-30315000I-707117J-707097D01*
G01*
X147678886Y-39728900D02*
G75*
G02*
X147386000Y-39021786I707114J707100D01*
G01*
X147278893Y-40852893D02*
X147395107Y-40969107D01*
X134460339Y-30715000D02*
X142383534Y-30715000D01*
X146986000Y-35317466D02*
X146986000Y-40145786D01*
X148102214Y-41262000D02*
X149494000Y-41262000D01*
X143090641Y-31007893D02*
X146693107Y-34610359D01*
X131160251Y-32574500D02*
X131772411Y-32574500D01*
X132479518Y-32281607D02*
X133753232Y-31007893D01*
X132479512Y-32281601D02*
G75*
G02*
X131772411Y-32574500I-707112J707101D01*
G01*
X146693090Y-34610376D02*
G75*
G02*
X146986000Y-35317466I-707090J-707124D01*
G01*
X134460339Y-30715028D02*
G75*
G03*
X133753233Y-31007894I-39J-999972D01*
G01*
X142383534Y-30714976D02*
G75*
G02*
X143090641Y-31007893I-34J-1000024D01*
G01*
X147395100Y-40969114D02*
G75*
G03*
X148102214Y-41262000I707100J707114D01*
G01*
X147278886Y-40852900D02*
G75*
G02*
X146986000Y-40145786I707114J707100D01*
G01*
D25*
X117508480Y-26897000D02*
X114744520Y-26897000D01*
X113683860Y-27336340D02*
X113623340Y-27396860D01*
X118796800Y-27564000D02*
X118569140Y-27336340D01*
X113184000Y-28457520D02*
X113184000Y-29187000D01*
X113184015Y-28457520D02*
G75*
G02*
X113623340Y-27396860I1499985J20D01*
G01*
X114744520Y-26897015D02*
G75*
G03*
X113683860Y-27336340I-20J-1499985D01*
G01*
X117508480Y-26897015D02*
G75*
G02*
X118569140Y-27336340I20J-1499985D01*
G01*
X105363860Y-27336340D02*
X105136200Y-27564000D01*
X108589880Y-26897000D02*
X106424520Y-26897000D01*
X109744660Y-27430460D02*
X109650540Y-27336340D01*
X110184000Y-29187000D02*
X110184000Y-28491120D01*
X109744670Y-27430450D02*
G75*
G02*
X110184000Y-28491120I-1060670J-1060650D01*
G01*
X108589880Y-26897015D02*
G75*
G02*
X109650540Y-27336340I20J-1499985D01*
G01*
X106424520Y-26897015D02*
G75*
G03*
X105363860Y-27336340I-20J-1499985D01*
G01*
D27*
X131404536Y-31624500D02*
X131160251Y-31624500D01*
X130110251Y-26156213D02*
X130110251Y-31424500D01*
X132254000Y-24319070D02*
X132254000Y-23992001D01*
X148002000Y-37262000D02*
X148002000Y-30914500D01*
X130110251Y-31424500D02*
X130310251Y-31624500D01*
X130660251Y-25191999D02*
X130403144Y-25449106D01*
X132528750Y-30914500D02*
X132111643Y-31331607D01*
X130310251Y-31624500D02*
X131160251Y-31624500D01*
X109484000Y-30158200D02*
X109200200Y-30442000D01*
X134406251Y-25318000D02*
X133254929Y-25319070D01*
X114384000Y-30418800D02*
X114384000Y-29187000D01*
X149494000Y-38262000D02*
X149002000Y-38262000D01*
X131254000Y-22992001D02*
X130660251Y-22992001D01*
X109484000Y-29187000D02*
X109484000Y-30158200D01*
X132111625Y-31331589D02*
G75*
G02*
X131404536Y-31624500I-707125J707089D01*
G01*
X130403148Y-25449110D02*
G75*
G03*
X130110251Y-26156213I707052J-707090D01*
G01*
X131254000Y-22992000D02*
G75*
G02*
X132254000Y-23992001I0J-1000000D01*
G01*
X133254929Y-25319100D02*
G75*
G02*
X132254000Y-24319070I-929J1000000D01*
G01*
X148002000Y-37262000D02*
G75*
G03*
X149002000Y-38262000I1000000J0D01*
G01*
D25*
X128711751Y-30823000D02*
X128860251Y-30674500D01*
X112434000Y-30484000D02*
X111934000Y-30484000D01*
X127155250Y-30823000D02*
X128711751Y-30823000D01*
X111684000Y-30234000D02*
X111684000Y-29187000D01*
X112481107Y-31031107D02*
X111934000Y-30484000D01*
X112684000Y-29187000D02*
X112684000Y-30234000D01*
X112774000Y-32418000D02*
X112774000Y-31738214D01*
X111934000Y-30484000D02*
G75*
G02*
X111684000Y-30234000I0J250000D01*
G01*
X112684000Y-30234000D02*
G75*
G02*
X112434000Y-30484000I-250000J0D01*
G01*
X112773990Y-31738214D02*
G75*
G03*
X112481107Y-31031107I-999990J14D01*
G01*
X127913714Y-32574500D02*
X128860251Y-32574500D01*
X127174000Y-32249000D02*
X127206607Y-32281607D01*
X112184000Y-28162000D02*
X112184000Y-29187000D01*
X111184000Y-29187000D02*
X111184000Y-31053786D01*
X111184000Y-28162000D02*
X111209000Y-28137000D01*
X111209000Y-28137000D02*
X112159000Y-28137000D01*
X110891107Y-31760893D02*
X110234000Y-32418000D01*
X112159000Y-28137000D02*
X112184000Y-28162000D01*
X111184000Y-29187000D02*
X111184000Y-28162000D01*
X111183990Y-31053786D02*
G75*
G02*
X110891107Y-31760893I-999990J-14D01*
G01*
X127913714Y-32574490D02*
G75*
G02*
X127206607Y-32281607I-14J999990D01*
G01*
X147533610Y-29647000D02*
X135476891Y-29647000D01*
X154964251Y-26209000D02*
X154964251Y-30323000D01*
X133355570Y-28768320D02*
X132489250Y-27902000D01*
X155964251Y-31323000D02*
X156670251Y-31323000D01*
X151335571Y-27087680D02*
X149654930Y-28768321D01*
X154964251Y-26209000D02*
X153456892Y-26209000D01*
X152066000Y-43514214D02*
X152066000Y-44116000D01*
X149494000Y-42262000D02*
X150813786Y-42262000D01*
X151520893Y-42554893D02*
X151773107Y-42807107D01*
X155964251Y-31323049D02*
G75*
G02*
X154964251Y-30323000I49J1000049D01*
G01*
X151773114Y-42807100D02*
G75*
G02*
X152066000Y-43514214I-707114J-707100D01*
G01*
X147533610Y-29647007D02*
G75*
G03*
X149654930Y-28768321I-10J3000007D01*
G01*
X153456892Y-26208995D02*
G75*
G03*
X151335572Y-27087681I8J-3000005D01*
G01*
X133355575Y-28768315D02*
G75*
G03*
X135476891Y-29647000I2121325J2121315D01*
G01*
X151520900Y-42554886D02*
G75*
G03*
X150813786Y-42262000I-707100J-707114D01*
G01*
%TA.AperFunction,Conductor*%
G36*
X146319621Y-38090502D02*
G01*
X146366114Y-38144158D01*
X146377500Y-38196500D01*
X146377500Y-40097635D01*
X146376422Y-40114083D01*
X146372249Y-40145777D01*
X146375298Y-40168938D01*
X146376102Y-40177104D01*
X146387837Y-40356181D01*
X146388640Y-40360220D01*
X146388641Y-40360225D01*
X146412655Y-40480958D01*
X146428970Y-40562984D01*
X146496744Y-40762649D01*
X146498563Y-40766338D01*
X146498564Y-40766340D01*
X146539030Y-40848399D01*
X146590000Y-40951760D01*
X146592290Y-40955187D01*
X146592291Y-40955189D01*
X146704852Y-41123652D01*
X146704856Y-41123657D01*
X146707143Y-41127080D01*
X146709860Y-41130178D01*
X146709866Y-41130186D01*
X146825558Y-41262111D01*
X146830787Y-41268482D01*
X146844901Y-41286876D01*
X146870279Y-41306350D01*
X146882659Y-41317208D01*
X146930792Y-41365341D01*
X146941650Y-41377721D01*
X146961124Y-41403099D01*
X146967672Y-41408123D01*
X146979518Y-41417213D01*
X146985889Y-41422442D01*
X147117814Y-41538134D01*
X147117822Y-41538140D01*
X147120920Y-41540857D01*
X147124343Y-41543144D01*
X147124348Y-41543148D01*
X147292811Y-41655709D01*
X147296240Y-41658000D01*
X147299933Y-41659821D01*
X147299938Y-41659824D01*
X147345099Y-41682094D01*
X147485351Y-41751256D01*
X147489245Y-41752578D01*
X147489248Y-41752579D01*
X147594447Y-41788287D01*
X147685016Y-41819030D01*
X147689058Y-41819834D01*
X147689062Y-41819835D01*
X147887775Y-41859359D01*
X147887780Y-41859360D01*
X147891819Y-41860163D01*
X147895929Y-41860432D01*
X147895934Y-41860433D01*
X147969037Y-41865223D01*
X148070896Y-41871898D01*
X148079062Y-41872702D01*
X148102223Y-41875751D01*
X148102226Y-41875751D01*
X148101820Y-41878837D01*
X148155759Y-41894675D01*
X148202252Y-41948331D01*
X148213250Y-42010559D01*
X148210500Y-42045498D01*
X148210500Y-42478502D01*
X148213438Y-42515831D01*
X148259855Y-42675601D01*
X148263892Y-42682427D01*
X148340509Y-42811980D01*
X148340511Y-42811983D01*
X148344547Y-42818807D01*
X148462193Y-42936453D01*
X148469017Y-42940489D01*
X148469020Y-42940491D01*
X148576589Y-43004107D01*
X148605399Y-43021145D01*
X148613010Y-43023356D01*
X148613012Y-43023357D01*
X148665231Y-43038528D01*
X148765169Y-43067562D01*
X148771574Y-43068066D01*
X148771579Y-43068067D01*
X148800042Y-43070307D01*
X148800050Y-43070307D01*
X148802498Y-43070500D01*
X150185502Y-43070500D01*
X150187950Y-43070307D01*
X150187958Y-43070307D01*
X150216421Y-43068067D01*
X150216426Y-43068066D01*
X150222831Y-43067562D01*
X150322769Y-43038528D01*
X150374988Y-43023357D01*
X150374990Y-43023356D01*
X150382601Y-43021145D01*
X150411411Y-43004107D01*
X150518980Y-42940491D01*
X150518983Y-42940489D01*
X150525807Y-42936453D01*
X150531416Y-42930844D01*
X150537675Y-42925989D01*
X150538844Y-42927496D01*
X150592167Y-42898379D01*
X150618950Y-42895500D01*
X150763776Y-42895500D01*
X150780221Y-42896578D01*
X150799580Y-42899127D01*
X150799584Y-42899127D01*
X150807112Y-42900118D01*
X150814665Y-42899284D01*
X150814666Y-42899284D01*
X150844942Y-42899600D01*
X150892209Y-42905822D01*
X150923976Y-42914334D01*
X150981723Y-42938253D01*
X151010206Y-42954698D01*
X151044562Y-42981060D01*
X151057879Y-42992861D01*
X151060331Y-42995365D01*
X151064954Y-43001389D01*
X151070882Y-43006138D01*
X151092390Y-43023369D01*
X151102705Y-43032609D01*
X151289780Y-43219684D01*
X151300648Y-43232076D01*
X151317159Y-43253594D01*
X151323118Y-43258368D01*
X151344304Y-43280002D01*
X151373304Y-43317797D01*
X151389747Y-43346278D01*
X151413666Y-43404024D01*
X151422178Y-43435795D01*
X151427838Y-43478796D01*
X151428909Y-43496556D01*
X151428873Y-43499995D01*
X151427882Y-43507522D01*
X151428715Y-43515068D01*
X151428715Y-43515072D01*
X151431739Y-43542462D01*
X151432500Y-43556287D01*
X151432500Y-43569331D01*
X151412411Y-43637586D01*
X151341054Y-43748310D01*
X151341050Y-43748319D01*
X151337235Y-43754238D01*
X151334826Y-43760858D01*
X151334825Y-43760859D01*
X151277606Y-43918066D01*
X151275197Y-43924685D01*
X151252463Y-44104640D01*
X151270163Y-44285160D01*
X151327418Y-44457273D01*
X151331065Y-44463295D01*
X151331066Y-44463297D01*
X151417410Y-44605868D01*
X151421380Y-44612424D01*
X151426269Y-44617487D01*
X151426270Y-44617488D01*
X151488791Y-44682230D01*
X151547382Y-44742902D01*
X151553274Y-44746757D01*
X151553278Y-44746761D01*
X151577936Y-44762896D01*
X151623985Y-44816933D01*
X151633508Y-44887288D01*
X151603483Y-44951623D01*
X151543443Y-44989513D01*
X151495772Y-44993638D01*
X151490333Y-44993066D01*
X151481553Y-44992143D01*
X151481546Y-44992143D01*
X151478286Y-44991800D01*
X151383714Y-44991800D01*
X151272387Y-45003501D01*
X151248953Y-45005964D01*
X151248952Y-45005964D01*
X151242389Y-45006654D01*
X151236111Y-45008694D01*
X151236110Y-45008694D01*
X151206198Y-45018413D01*
X151062021Y-45065259D01*
X151056299Y-45068562D01*
X151056298Y-45068563D01*
X151004499Y-45098469D01*
X150897779Y-45160084D01*
X150880308Y-45175815D01*
X150816302Y-45206531D01*
X150745849Y-45197766D01*
X150711693Y-45175816D01*
X150694221Y-45160084D01*
X150587501Y-45098469D01*
X150535702Y-45068563D01*
X150535701Y-45068562D01*
X150529979Y-45065259D01*
X150385802Y-45018413D01*
X150355890Y-45008694D01*
X150355889Y-45008694D01*
X150349611Y-45006654D01*
X150343048Y-45005964D01*
X150343047Y-45005964D01*
X150319613Y-45003501D01*
X150208286Y-44991800D01*
X150113714Y-44991800D01*
X150002387Y-45003501D01*
X149978953Y-45005964D01*
X149978952Y-45005964D01*
X149972389Y-45006654D01*
X149966111Y-45008694D01*
X149966110Y-45008694D01*
X149936198Y-45018413D01*
X149792021Y-45065259D01*
X149786299Y-45068562D01*
X149786298Y-45068563D01*
X149734499Y-45098469D01*
X149627779Y-45160084D01*
X149610308Y-45175815D01*
X149546302Y-45206531D01*
X149475849Y-45197766D01*
X149441693Y-45175816D01*
X149424221Y-45160084D01*
X149317501Y-45098469D01*
X149265702Y-45068563D01*
X149265701Y-45068562D01*
X149259979Y-45065259D01*
X149115802Y-45018413D01*
X149085890Y-45008694D01*
X149085889Y-45008694D01*
X149079611Y-45006654D01*
X149073048Y-45005964D01*
X149073047Y-45005964D01*
X149049613Y-45003501D01*
X148938286Y-44991800D01*
X148843714Y-44991800D01*
X148732387Y-45003501D01*
X148708953Y-45005964D01*
X148708952Y-45005964D01*
X148702389Y-45006654D01*
X148696111Y-45008694D01*
X148696110Y-45008694D01*
X148666198Y-45018413D01*
X148522021Y-45065259D01*
X148516299Y-45068562D01*
X148516298Y-45068563D01*
X148464499Y-45098469D01*
X148357779Y-45160084D01*
X148340308Y-45175815D01*
X148276302Y-45206531D01*
X148205849Y-45197766D01*
X148171693Y-45175816D01*
X148154221Y-45160084D01*
X148047501Y-45098469D01*
X147995702Y-45068563D01*
X147995701Y-45068562D01*
X147989979Y-45065259D01*
X147845802Y-45018413D01*
X147815890Y-45008694D01*
X147815889Y-45008694D01*
X147809611Y-45006654D01*
X147803048Y-45005964D01*
X147803047Y-45005964D01*
X147779613Y-45003501D01*
X147668286Y-44991800D01*
X147573714Y-44991800D01*
X147462387Y-45003501D01*
X147438953Y-45005964D01*
X147438952Y-45005964D01*
X147432389Y-45006654D01*
X147426111Y-45008694D01*
X147426110Y-45008694D01*
X147396198Y-45018413D01*
X147252021Y-45065259D01*
X147246299Y-45068562D01*
X147246298Y-45068563D01*
X147128730Y-45136441D01*
X147059735Y-45153179D01*
X146992643Y-45129959D01*
X146982322Y-45121763D01*
X146974062Y-45114468D01*
X146962018Y-45102276D01*
X146948573Y-45086673D01*
X146948570Y-45086671D01*
X146942713Y-45079873D01*
X146921165Y-45065906D01*
X146906291Y-45054615D01*
X146893783Y-45043569D01*
X146893782Y-45043568D01*
X146887049Y-45037622D01*
X146860287Y-45025057D01*
X146845309Y-45016737D01*
X146828017Y-45005529D01*
X146828012Y-45005527D01*
X146820485Y-45000648D01*
X146811892Y-44998078D01*
X146811887Y-44998076D01*
X146795880Y-44993289D01*
X146778436Y-44986628D01*
X146763324Y-44979533D01*
X146763322Y-44979532D01*
X146755200Y-44975719D01*
X146746333Y-44974338D01*
X146746332Y-44974338D01*
X146736690Y-44972837D01*
X146725983Y-44971170D01*
X146709268Y-44967387D01*
X146689534Y-44961485D01*
X146689528Y-44961484D01*
X146680934Y-44958914D01*
X146671963Y-44958859D01*
X146671962Y-44958859D01*
X146661903Y-44958798D01*
X146646494Y-44958704D01*
X146645711Y-44958671D01*
X146644614Y-44958500D01*
X146613623Y-44958500D01*
X146612853Y-44958498D01*
X146539215Y-44958048D01*
X146539214Y-44958048D01*
X146535279Y-44958024D01*
X146533935Y-44958408D01*
X146532590Y-44958500D01*
X145748634Y-44958500D01*
X145729243Y-44956999D01*
X145714425Y-44954691D01*
X145705552Y-44953309D01*
X145696542Y-44954487D01*
X145696524Y-44954489D01*
X145666086Y-44954758D01*
X145604018Y-44947762D01*
X145576512Y-44941483D01*
X145502059Y-44915428D01*
X145444368Y-44874048D01*
X145418208Y-44808046D01*
X145431884Y-44738379D01*
X145481053Y-44687165D01*
X145543678Y-44670500D01*
X146319400Y-44670500D01*
X146322646Y-44670163D01*
X146322650Y-44670163D01*
X146418308Y-44660238D01*
X146418312Y-44660237D01*
X146425166Y-44659526D01*
X146431702Y-44657345D01*
X146431704Y-44657345D01*
X146566347Y-44612424D01*
X146592946Y-44603550D01*
X146743348Y-44510478D01*
X146868305Y-44385303D01*
X146925914Y-44291844D01*
X146957275Y-44240968D01*
X146957276Y-44240966D01*
X146961115Y-44234738D01*
X146999184Y-44119962D01*
X147014632Y-44073389D01*
X147014632Y-44073387D01*
X147016797Y-44066861D01*
X147027500Y-43962400D01*
X147027500Y-43161600D01*
X147020546Y-43094578D01*
X147017238Y-43062692D01*
X147017237Y-43062688D01*
X147016526Y-43055834D01*
X146995517Y-42992861D01*
X146962868Y-42895002D01*
X146960550Y-42888054D01*
X146867478Y-42737652D01*
X146742303Y-42612695D01*
X146591738Y-42519885D01*
X146474376Y-42480958D01*
X146430389Y-42466368D01*
X146430387Y-42466368D01*
X146423861Y-42464203D01*
X146417025Y-42463503D01*
X146417022Y-42463502D01*
X146373969Y-42459091D01*
X146319400Y-42453500D01*
X145333751Y-42453500D01*
X145265630Y-42433498D01*
X145219137Y-42379842D01*
X145207751Y-42327500D01*
X145207751Y-38196500D01*
X145227753Y-38128379D01*
X145281409Y-38081886D01*
X145333751Y-38070500D01*
X146251500Y-38070500D01*
X146319621Y-38090502D01*
G37*
%TD.AperFunction*%
%TA.AperFunction,Conductor*%
G36*
X158934279Y-22027000D02*
G01*
X158957988Y-22030691D01*
X158973244Y-22028696D01*
X158998567Y-22027953D01*
X159017533Y-22029309D01*
X159167543Y-22040034D01*
X159185332Y-22042592D01*
X159375669Y-22083993D01*
X159392916Y-22089057D01*
X159575421Y-22157124D01*
X159591774Y-22164591D01*
X159762743Y-22257943D01*
X159777857Y-22267656D01*
X159933797Y-22384387D01*
X159947378Y-22396155D01*
X160005884Y-22454659D01*
X160071834Y-22520607D01*
X160085114Y-22533887D01*
X160096888Y-22547473D01*
X160112376Y-22568163D01*
X160213622Y-22703410D01*
X160223341Y-22718534D01*
X160316695Y-22889495D01*
X160324163Y-22905848D01*
X160392232Y-23088345D01*
X160397297Y-23105594D01*
X160421331Y-23216071D01*
X160436414Y-23285405D01*
X160438702Y-23295924D01*
X160441261Y-23313717D01*
X160441272Y-23313870D01*
X160452823Y-23475385D01*
X160452032Y-23494431D01*
X160451941Y-23501852D01*
X160450560Y-23510723D01*
X160451724Y-23519625D01*
X160451724Y-23519627D01*
X160453022Y-23529551D01*
X160454358Y-23539763D01*
X160454687Y-23542282D01*
X160455751Y-23558620D01*
X160455751Y-31467633D01*
X160454251Y-31487018D01*
X160451941Y-31501851D01*
X160451941Y-31501855D01*
X160450560Y-31510724D01*
X160452555Y-31525976D01*
X160453298Y-31551302D01*
X160441213Y-31720273D01*
X160438655Y-31738064D01*
X160404653Y-31894364D01*
X160397251Y-31928390D01*
X160392186Y-31945639D01*
X160324116Y-32128137D01*
X160316649Y-32144487D01*
X160261540Y-32245411D01*
X160223302Y-32315437D01*
X160213584Y-32330559D01*
X160105377Y-32475105D01*
X160096852Y-32486493D01*
X160085078Y-32500079D01*
X159947347Y-32637807D01*
X159933767Y-32649575D01*
X159777830Y-32766304D01*
X159762713Y-32776018D01*
X159651897Y-32836526D01*
X159597296Y-32866340D01*
X159591761Y-32869362D01*
X159575410Y-32876830D01*
X159393734Y-32944587D01*
X159392903Y-32944897D01*
X159375656Y-32949961D01*
X159185325Y-32991360D01*
X159167536Y-32993918D01*
X159005448Y-33005507D01*
X158988387Y-33004797D01*
X158988387Y-33004801D01*
X158979413Y-33004691D01*
X158970540Y-33003309D01*
X158961637Y-33004473D01*
X158961636Y-33004473D01*
X158938965Y-33007437D01*
X158922631Y-33008500D01*
X155017487Y-33008500D01*
X154996589Y-33006755D01*
X154981577Y-33004230D01*
X154981575Y-33004230D01*
X154976778Y-33003423D01*
X154971914Y-33003364D01*
X154971913Y-33003364D01*
X154970274Y-33003344D01*
X154964226Y-33003271D01*
X154950473Y-33005241D01*
X154950148Y-33005288D01*
X154941274Y-33006241D01*
X154748996Y-33020002D01*
X154744595Y-33020960D01*
X154744592Y-33020960D01*
X154542556Y-33064919D01*
X154542554Y-33064919D01*
X154538149Y-33065878D01*
X154533929Y-33067452D01*
X154533926Y-33067453D01*
X154340192Y-33139720D01*
X154340188Y-33139722D01*
X154335976Y-33141293D01*
X154146594Y-33244712D01*
X153973857Y-33374029D01*
X153821281Y-33526613D01*
X153818584Y-33530216D01*
X153694667Y-33695755D01*
X153694664Y-33695760D01*
X153691972Y-33699356D01*
X153588562Y-33888744D01*
X153586990Y-33892959D01*
X153586989Y-33892961D01*
X153576769Y-33920364D01*
X153513157Y-34090920D01*
X153502953Y-34137828D01*
X153473260Y-34274331D01*
X153467291Y-34301769D01*
X153466970Y-34306259D01*
X153454239Y-34484271D01*
X153453059Y-34494671D01*
X153451941Y-34501847D01*
X153451941Y-34501856D01*
X153450560Y-34510724D01*
X153451724Y-34519626D01*
X153451724Y-34519628D01*
X153454687Y-34542283D01*
X153455751Y-34558621D01*
X153455751Y-44417633D01*
X153454251Y-44437018D01*
X153450560Y-44460724D01*
X153451724Y-44469626D01*
X153451740Y-44469750D01*
X153452011Y-44500192D01*
X153445019Y-44562252D01*
X153438741Y-44589759D01*
X153414327Y-44659526D01*
X153411768Y-44666840D01*
X153399526Y-44692259D01*
X153367704Y-44742902D01*
X153356079Y-44761402D01*
X153338487Y-44783460D01*
X153313900Y-44808046D01*
X153280741Y-44841203D01*
X153258683Y-44858792D01*
X153189540Y-44902236D01*
X153164119Y-44914477D01*
X153121359Y-44929438D01*
X153087037Y-44941446D01*
X153059535Y-44947722D01*
X153003669Y-44954014D01*
X152988031Y-44954796D01*
X152979422Y-44954691D01*
X152970552Y-44953309D01*
X152946324Y-44956476D01*
X152938972Y-44957437D01*
X152922641Y-44958500D01*
X152668762Y-44958500D01*
X152600641Y-44938498D01*
X152554148Y-44884842D01*
X152544044Y-44814568D01*
X152573538Y-44749988D01*
X152581870Y-44741254D01*
X152585461Y-44737834D01*
X152689266Y-44638982D01*
X152789643Y-44487902D01*
X152854055Y-44318338D01*
X152855035Y-44311366D01*
X152878748Y-44142639D01*
X152878748Y-44142636D01*
X152879299Y-44138717D01*
X152879616Y-44116000D01*
X152859397Y-43935745D01*
X152857080Y-43929091D01*
X152802064Y-43771106D01*
X152802062Y-43771103D01*
X152799745Y-43764448D01*
X152718684Y-43634722D01*
X152699548Y-43566353D01*
X152700795Y-43550200D01*
X152703432Y-43531672D01*
X152703433Y-43531665D01*
X152704013Y-43527587D01*
X152704153Y-43514223D01*
X152703316Y-43507306D01*
X152702064Y-43496953D01*
X152701422Y-43490059D01*
X152689273Y-43304666D01*
X152689272Y-43304662D01*
X152689003Y-43300550D01*
X152682511Y-43267906D01*
X152648036Y-43094578D01*
X152648035Y-43094574D01*
X152647231Y-43090532D01*
X152578403Y-42887763D01*
X152507450Y-42743880D01*
X152485521Y-42699411D01*
X152485518Y-42699406D01*
X152483697Y-42695713D01*
X152364734Y-42517668D01*
X152308749Y-42453828D01*
X152286857Y-42428864D01*
X152282031Y-42423015D01*
X152281686Y-42422570D01*
X152277649Y-42415744D01*
X152261905Y-42400000D01*
X152256261Y-42393975D01*
X152251648Y-42388714D01*
X152245629Y-42381300D01*
X152236180Y-42368715D01*
X152236176Y-42368710D01*
X152233704Y-42365418D01*
X152224354Y-42355869D01*
X152199842Y-42336649D01*
X152188502Y-42326597D01*
X152007023Y-42145118D01*
X151995358Y-42131676D01*
X151983957Y-42116491D01*
X151983955Y-42116489D01*
X151981482Y-42113195D01*
X151972131Y-42103646D01*
X151958579Y-42093020D01*
X151953282Y-42088627D01*
X151810332Y-41963266D01*
X151656024Y-41860163D01*
X151635716Y-41846594D01*
X151635715Y-41846593D01*
X151632287Y-41844303D01*
X151628594Y-41842482D01*
X151628589Y-41842479D01*
X151443928Y-41751417D01*
X151443926Y-41751416D01*
X151440237Y-41749597D01*
X151237468Y-41680769D01*
X151233426Y-41679965D01*
X151233422Y-41679964D01*
X151031494Y-41639801D01*
X151031489Y-41639800D01*
X151027450Y-41638997D01*
X151023340Y-41638728D01*
X151023335Y-41638727D01*
X150909754Y-41631284D01*
X150902206Y-41630561D01*
X150901490Y-41630471D01*
X150893816Y-41628500D01*
X150886062Y-41628500D01*
X150821055Y-41600151D01*
X150781652Y-41541092D01*
X150776309Y-41493640D01*
X150777306Y-41480963D01*
X150777500Y-41478502D01*
X150777500Y-41045498D01*
X150774562Y-41008169D01*
X150728145Y-40848399D01*
X150724109Y-40841574D01*
X150714980Y-40826137D01*
X150697522Y-40757321D01*
X150714980Y-40697863D01*
X150724109Y-40682426D01*
X150724110Y-40682424D01*
X150728145Y-40675601D01*
X150774562Y-40515831D01*
X150777500Y-40478502D01*
X150777500Y-40045498D01*
X150774562Y-40008169D01*
X150728145Y-39848399D01*
X150714690Y-39825649D01*
X150697230Y-39756835D01*
X150714689Y-39697370D01*
X150723648Y-39682221D01*
X150729893Y-39667790D01*
X150768939Y-39533395D01*
X150768899Y-39519294D01*
X150761630Y-39516000D01*
X150436570Y-39516000D01*
X150387725Y-39505885D01*
X150382601Y-39502855D01*
X150374993Y-39500645D01*
X150374989Y-39500643D01*
X150294578Y-39477282D01*
X150222831Y-39456438D01*
X150216426Y-39455934D01*
X150216421Y-39455933D01*
X150187958Y-39453693D01*
X150187950Y-39453693D01*
X150185502Y-39453500D01*
X149366000Y-39453500D01*
X149297879Y-39433498D01*
X149251386Y-39379842D01*
X149240000Y-39327500D01*
X149240000Y-39196500D01*
X149260002Y-39128379D01*
X149313658Y-39081886D01*
X149366000Y-39070500D01*
X150185502Y-39070500D01*
X150187950Y-39070307D01*
X150187958Y-39070307D01*
X150216421Y-39068067D01*
X150216426Y-39068066D01*
X150222831Y-39067562D01*
X150294578Y-39046718D01*
X150374989Y-39023357D01*
X150374993Y-39023355D01*
X150382601Y-39021145D01*
X150387725Y-39018115D01*
X150436570Y-39008000D01*
X150755878Y-39008000D01*
X150769409Y-39004027D01*
X150770544Y-38996129D01*
X150729893Y-38856210D01*
X150723648Y-38841779D01*
X150714689Y-38826630D01*
X150697230Y-38757814D01*
X150714690Y-38698352D01*
X150728145Y-38675601D01*
X150774562Y-38515831D01*
X150777500Y-38478502D01*
X150777500Y-38045498D01*
X150774562Y-38008169D01*
X150728145Y-37848399D01*
X150711107Y-37819589D01*
X150647491Y-37712020D01*
X150647489Y-37712017D01*
X150643453Y-37705193D01*
X150525807Y-37587547D01*
X150518983Y-37583511D01*
X150518980Y-37583509D01*
X150389427Y-37506892D01*
X150389428Y-37506892D01*
X150382601Y-37502855D01*
X150374990Y-37500644D01*
X150374988Y-37500643D01*
X150322769Y-37485472D01*
X150222831Y-37456438D01*
X150216426Y-37455934D01*
X150216421Y-37455933D01*
X150187958Y-37453693D01*
X150187950Y-37453693D01*
X150185502Y-37453500D01*
X148909082Y-37453500D01*
X148840961Y-37433498D01*
X148796816Y-37384704D01*
X148781381Y-37354412D01*
X148769198Y-37316914D01*
X148766600Y-37300507D01*
X148765061Y-37279041D01*
X148765244Y-37265963D01*
X148765244Y-37265956D01*
X148765299Y-37262000D01*
X148761285Y-37226213D01*
X148760500Y-37212169D01*
X148760500Y-31217767D01*
X148768712Y-31173023D01*
X148787555Y-31123420D01*
X148787556Y-31123418D01*
X148790055Y-31116838D01*
X148797078Y-31066869D01*
X148814748Y-30941139D01*
X148814748Y-30941136D01*
X148815299Y-30937217D01*
X148815452Y-30926238D01*
X148815561Y-30918462D01*
X148815561Y-30918457D01*
X148815616Y-30914500D01*
X148795397Y-30734245D01*
X148792951Y-30727221D01*
X148738064Y-30569606D01*
X148738062Y-30569603D01*
X148735745Y-30562948D01*
X148723055Y-30542639D01*
X148643359Y-30415098D01*
X148639626Y-30409124D01*
X148631151Y-30400589D01*
X148560380Y-30329323D01*
X148526573Y-30266892D01*
X148531885Y-30196095D01*
X148574629Y-30139408D01*
X148607335Y-30121906D01*
X148847102Y-30036115D01*
X148922855Y-30009010D01*
X148922861Y-30009008D01*
X148925769Y-30007967D01*
X149026903Y-29960134D01*
X149245715Y-29856643D01*
X149245718Y-29856641D01*
X149248497Y-29855327D01*
X149554710Y-29671789D01*
X149642428Y-29606733D01*
X149838973Y-29460965D01*
X149838976Y-29460962D01*
X149841459Y-29459121D01*
X149843754Y-29457041D01*
X149843758Y-29457038D01*
X150085491Y-29237944D01*
X150090813Y-29233549D01*
X150093333Y-29231385D01*
X150096625Y-29228913D01*
X150106173Y-29219562D01*
X150125385Y-29195060D01*
X150135444Y-29183711D01*
X151748150Y-27571005D01*
X151760542Y-27560137D01*
X151781489Y-27544064D01*
X151847709Y-27518464D01*
X151917258Y-27532729D01*
X151968054Y-27582331D01*
X151982315Y-27622362D01*
X152000210Y-27724893D01*
X152027917Y-27883646D01*
X152030275Y-27897158D01*
X152128814Y-28229820D01*
X152130237Y-28233156D01*
X152130238Y-28233159D01*
X152258029Y-28532760D01*
X152264935Y-28548952D01*
X152266730Y-28552099D01*
X152266732Y-28552103D01*
X152405687Y-28795717D01*
X152436834Y-28850324D01*
X152438973Y-28853236D01*
X152438975Y-28853239D01*
X152457732Y-28878773D01*
X152642233Y-29129940D01*
X152644699Y-29132593D01*
X152644700Y-29132595D01*
X152714928Y-29208169D01*
X152878409Y-29384096D01*
X153142232Y-29609422D01*
X153430204Y-29802931D01*
X153433421Y-29804592D01*
X153433422Y-29804592D01*
X153521082Y-29849837D01*
X153738510Y-29962060D01*
X154063062Y-30084698D01*
X154066578Y-30085581D01*
X154066587Y-30085584D01*
X154235446Y-30127998D01*
X154296642Y-30163993D01*
X154328663Y-30227358D01*
X154330751Y-30250202D01*
X154330751Y-30272982D01*
X154329673Y-30289428D01*
X154327540Y-30305632D01*
X154326133Y-30316317D01*
X154326871Y-30323000D01*
X154326578Y-30323000D01*
X154343247Y-30556065D01*
X154392913Y-30784386D01*
X154394484Y-30788598D01*
X154472900Y-30998844D01*
X154474567Y-31003314D01*
X154586545Y-31208395D01*
X154589242Y-31211997D01*
X154589242Y-31211998D01*
X154603696Y-31231307D01*
X154726568Y-31395452D01*
X154729751Y-31398635D01*
X154860662Y-31529552D01*
X154891787Y-31560679D01*
X155078838Y-31700712D01*
X155283913Y-31812700D01*
X155288125Y-31814271D01*
X155288129Y-31814273D01*
X155417093Y-31862379D01*
X155467848Y-31881312D01*
X155479788Y-31885766D01*
X155536622Y-31928315D01*
X155561430Y-31994836D01*
X155561751Y-32003820D01*
X155561751Y-32021134D01*
X155568506Y-32083316D01*
X155619636Y-32219705D01*
X155706990Y-32336261D01*
X155823546Y-32423615D01*
X155959935Y-32474745D01*
X156022117Y-32481500D01*
X157318385Y-32481500D01*
X157380567Y-32474745D01*
X157516956Y-32423615D01*
X157633512Y-32336261D01*
X157669738Y-32287925D01*
X157726596Y-32245411D01*
X157797415Y-32240385D01*
X157859708Y-32274445D01*
X157871389Y-32287925D01*
X157901968Y-32328726D01*
X157914527Y-32341285D01*
X158016602Y-32417786D01*
X158032197Y-32426324D01*
X158152645Y-32471478D01*
X158167900Y-32475105D01*
X158218765Y-32480631D01*
X158225579Y-32481000D01*
X158598136Y-32481000D01*
X158613375Y-32476525D01*
X158614580Y-32475135D01*
X158616251Y-32467452D01*
X158616251Y-32462884D01*
X159124251Y-32462884D01*
X159128726Y-32478123D01*
X159130116Y-32479328D01*
X159137799Y-32480999D01*
X159514920Y-32480999D01*
X159521741Y-32480629D01*
X159572603Y-32475105D01*
X159587855Y-32471479D01*
X159708305Y-32426324D01*
X159723900Y-32417786D01*
X159825975Y-32341285D01*
X159838536Y-32328724D01*
X159915037Y-32226649D01*
X159923575Y-32211054D01*
X159968729Y-32090606D01*
X159972356Y-32075351D01*
X159977882Y-32024486D01*
X159978251Y-32017672D01*
X159978251Y-31595115D01*
X159973776Y-31579876D01*
X159972386Y-31578671D01*
X159964703Y-31577000D01*
X159142366Y-31577000D01*
X159127127Y-31581475D01*
X159125922Y-31582865D01*
X159124251Y-31590548D01*
X159124251Y-32462884D01*
X158616251Y-32462884D01*
X158616251Y-31050885D01*
X159124251Y-31050885D01*
X159128726Y-31066124D01*
X159130116Y-31067329D01*
X159137799Y-31069000D01*
X159960135Y-31069000D01*
X159975374Y-31064525D01*
X159976579Y-31063135D01*
X159978250Y-31055452D01*
X159978250Y-30628331D01*
X159977880Y-30621510D01*
X159972356Y-30570648D01*
X159968730Y-30555396D01*
X159923575Y-30434946D01*
X159915037Y-30419351D01*
X159838536Y-30317276D01*
X159825975Y-30304715D01*
X159723900Y-30228214D01*
X159708305Y-30219676D01*
X159587857Y-30174522D01*
X159572602Y-30170895D01*
X159521737Y-30165369D01*
X159514923Y-30165000D01*
X159142366Y-30165000D01*
X159127127Y-30169475D01*
X159125922Y-30170865D01*
X159124251Y-30178548D01*
X159124251Y-31050885D01*
X158616251Y-31050885D01*
X158616251Y-30183116D01*
X158611776Y-30167877D01*
X158610386Y-30166672D01*
X158602703Y-30165001D01*
X158225582Y-30165001D01*
X158218761Y-30165371D01*
X158167899Y-30170895D01*
X158152647Y-30174521D01*
X158032197Y-30219676D01*
X158016602Y-30228214D01*
X157914527Y-30304715D01*
X157901968Y-30317274D01*
X157871389Y-30358075D01*
X157814529Y-30400589D01*
X157743711Y-30405614D01*
X157681417Y-30371554D01*
X157669737Y-30358074D01*
X157643451Y-30323000D01*
X157633512Y-30309739D01*
X157516956Y-30222385D01*
X157380567Y-30171255D01*
X157318385Y-30164500D01*
X156313200Y-30164500D01*
X156245079Y-30144498D01*
X156198586Y-30090842D01*
X156188482Y-30020568D01*
X156217976Y-29955988D01*
X156258955Y-29924774D01*
X156404553Y-29855327D01*
X156416063Y-29849837D01*
X156422802Y-29845610D01*
X156555682Y-29762254D01*
X156709972Y-29665468D01*
X156712808Y-29663196D01*
X156712815Y-29663191D01*
X156977906Y-29450813D01*
X156980742Y-29448541D01*
X157193008Y-29234041D01*
X157222234Y-29204507D01*
X157222235Y-29204506D01*
X157224785Y-29201929D01*
X157234856Y-29189085D01*
X157436625Y-28931759D01*
X157436626Y-28931757D01*
X157438865Y-28928902D01*
X157467204Y-28882658D01*
X157574064Y-28708278D01*
X157620146Y-28633079D01*
X157624192Y-28624364D01*
X157764700Y-28321663D01*
X157766224Y-28318380D01*
X157845774Y-28077844D01*
X157874025Y-27992422D01*
X157874026Y-27992417D01*
X157875164Y-27988977D01*
X157881159Y-27960031D01*
X157944786Y-27652786D01*
X157944786Y-27652783D01*
X157945521Y-27649236D01*
X157959291Y-27494947D01*
X157972502Y-27346924D01*
X157972502Y-27346918D01*
X157972751Y-27344131D01*
X157972751Y-25120568D01*
X157972510Y-25116384D01*
X157958087Y-24866246D01*
X157958086Y-24866241D01*
X157957878Y-24862626D01*
X157913537Y-24608564D01*
X157898851Y-24524415D01*
X157898849Y-24524408D01*
X157898227Y-24520842D01*
X157895714Y-24512356D01*
X157848563Y-24353179D01*
X157799688Y-24188180D01*
X157798264Y-24184841D01*
X157664991Y-23872386D01*
X157664989Y-23872383D01*
X157663567Y-23869048D01*
X157660661Y-23863952D01*
X157493459Y-23570816D01*
X157491668Y-23567676D01*
X157468354Y-23535937D01*
X157357778Y-23385408D01*
X157286269Y-23288060D01*
X157282745Y-23284267D01*
X157080746Y-23066891D01*
X157050093Y-23033904D01*
X156786270Y-22808578D01*
X156498298Y-22615069D01*
X156353363Y-22540262D01*
X156193212Y-22457602D01*
X156189992Y-22455940D01*
X155865440Y-22333302D01*
X155861919Y-22332418D01*
X155861914Y-22332416D01*
X155628170Y-22273704D01*
X155566974Y-22237709D01*
X155534953Y-22174344D01*
X155542273Y-22103726D01*
X155586611Y-22048275D01*
X155658865Y-22025500D01*
X158914897Y-22025500D01*
X158934279Y-22027000D01*
G37*
%TD.AperFunction*%
%TA.AperFunction,Conductor*%
G36*
X145351944Y-34136962D02*
G01*
X145380653Y-34158454D01*
X146228793Y-35006594D01*
X146239658Y-35018982D01*
X146259130Y-35044357D01*
X146265683Y-35049385D01*
X146271520Y-35055222D01*
X146271075Y-35055667D01*
X146285112Y-35069704D01*
X146314944Y-35108579D01*
X146331391Y-35137064D01*
X146357808Y-35200835D01*
X146366323Y-35232607D01*
X146372709Y-35281101D01*
X146372708Y-35301044D01*
X146373327Y-35301044D01*
X146373327Y-35309297D01*
X146372249Y-35317487D01*
X146373327Y-35325673D01*
X146376422Y-35349177D01*
X146377500Y-35365627D01*
X146377500Y-35727500D01*
X146357498Y-35795621D01*
X146303842Y-35842114D01*
X146251500Y-35853500D01*
X145333751Y-35853500D01*
X145265630Y-35833498D01*
X145219137Y-35779842D01*
X145207751Y-35727500D01*
X145207751Y-34670250D01*
X145209497Y-34649345D01*
X145212021Y-34634344D01*
X145212021Y-34634341D01*
X145212827Y-34629552D01*
X145212980Y-34617000D01*
X145210761Y-34601504D01*
X145209811Y-34592644D01*
X145196481Y-34406267D01*
X145196160Y-34401777D01*
X145168437Y-34274331D01*
X145173503Y-34203515D01*
X145216050Y-34146680D01*
X145282570Y-34121870D01*
X145351944Y-34136962D01*
G37*
%TD.AperFunction*%
%TA.AperFunction,Conductor*%
G36*
X147285701Y-30300502D02*
G01*
X147332194Y-30354158D01*
X147342298Y-30424432D01*
X147323493Y-30474753D01*
X147273235Y-30552738D01*
X147270826Y-30559358D01*
X147270824Y-30559361D01*
X147230949Y-30668916D01*
X147211197Y-30723185D01*
X147188463Y-30903140D01*
X147206163Y-31083660D01*
X147219390Y-31123420D01*
X147237058Y-31176533D01*
X147243500Y-31216305D01*
X147243500Y-33430327D01*
X147223498Y-33498448D01*
X147169842Y-33544941D01*
X147099568Y-33555045D01*
X147034988Y-33525551D01*
X147028405Y-33519422D01*
X144004578Y-30495595D01*
X143970552Y-30433283D01*
X143975617Y-30362468D01*
X144018164Y-30305632D01*
X144084684Y-30280821D01*
X144093673Y-30280500D01*
X147217580Y-30280500D01*
X147285701Y-30300502D01*
G37*
%TD.AperFunction*%
%TA.AperFunction,Conductor*%
G36*
X106548109Y-27550502D02*
G01*
X106594602Y-27604158D01*
X106605728Y-27663198D01*
X106605500Y-27665227D01*
X106605500Y-28871769D01*
X106605800Y-28874825D01*
X106605800Y-28874832D01*
X106606568Y-28882665D01*
X106619920Y-29018833D01*
X106621702Y-29024734D01*
X106621702Y-29024736D01*
X106628241Y-29046394D01*
X106677084Y-29208169D01*
X106769934Y-29382796D01*
X106832183Y-29459121D01*
X106891040Y-29531287D01*
X106891043Y-29531290D01*
X106894935Y-29536062D01*
X106899682Y-29539989D01*
X106899684Y-29539991D01*
X107042575Y-29658201D01*
X107042579Y-29658203D01*
X107047325Y-29662130D01*
X107221299Y-29756198D01*
X107410232Y-29814682D01*
X107416357Y-29815326D01*
X107416358Y-29815326D01*
X107600796Y-29834711D01*
X107600798Y-29834711D01*
X107606925Y-29835355D01*
X107763582Y-29821098D01*
X107833234Y-29834843D01*
X107884399Y-29884064D01*
X107901001Y-29946579D01*
X107901001Y-29956669D01*
X107901371Y-29963490D01*
X107906895Y-30014352D01*
X107910521Y-30029604D01*
X107955676Y-30150054D01*
X107964214Y-30165649D01*
X108040715Y-30267724D01*
X108053276Y-30280285D01*
X108155351Y-30356786D01*
X108170946Y-30365324D01*
X108298793Y-30413252D01*
X108297745Y-30416048D01*
X108347214Y-30444298D01*
X108380045Y-30507247D01*
X108381835Y-30519384D01*
X108389363Y-30596160D01*
X108391587Y-30602845D01*
X108391587Y-30602846D01*
X108397672Y-30621138D01*
X108446618Y-30768273D01*
X108450265Y-30774295D01*
X108450266Y-30774297D01*
X108536260Y-30916290D01*
X108540580Y-30923424D01*
X108545469Y-30928487D01*
X108545470Y-30928488D01*
X108600189Y-30985151D01*
X108666582Y-31053902D01*
X108701346Y-31076651D01*
X108809583Y-31147479D01*
X108818359Y-31153222D01*
X108856203Y-31167296D01*
X108913077Y-31209786D01*
X108937951Y-31276283D01*
X108930263Y-31329621D01*
X108885029Y-31450282D01*
X108885027Y-31450288D01*
X108882255Y-31457684D01*
X108875500Y-31519866D01*
X108875500Y-32974300D01*
X108855498Y-33042421D01*
X108801842Y-33088914D01*
X108794488Y-33091777D01*
X108791248Y-33093219D01*
X108784971Y-33095259D01*
X108779256Y-33098559D01*
X108774107Y-33100851D01*
X108749206Y-33107945D01*
X108749229Y-33108024D01*
X108720797Y-33116150D01*
X108704035Y-33119728D01*
X108674763Y-33123920D01*
X108666595Y-33127634D01*
X108666594Y-33127634D01*
X108651388Y-33134548D01*
X108633864Y-33140996D01*
X108609179Y-33148051D01*
X108601585Y-33152843D01*
X108601582Y-33152844D01*
X108584170Y-33163830D01*
X108569087Y-33171969D01*
X108542168Y-33184208D01*
X108540524Y-33185624D01*
X108475646Y-33204516D01*
X108412930Y-33187635D01*
X108258652Y-33098563D01*
X108258651Y-33098562D01*
X108252929Y-33095259D01*
X108151916Y-33062438D01*
X108078840Y-33038694D01*
X108078839Y-33038694D01*
X108072561Y-33036654D01*
X108065998Y-33035964D01*
X108065997Y-33035964D01*
X108042563Y-33033501D01*
X107931236Y-33021800D01*
X107836664Y-33021800D01*
X107725337Y-33033501D01*
X107701903Y-33035964D01*
X107701902Y-33035964D01*
X107695339Y-33036654D01*
X107689061Y-33038694D01*
X107689060Y-33038694D01*
X107615984Y-33062438D01*
X107514971Y-33095259D01*
X107509249Y-33098562D01*
X107509248Y-33098563D01*
X107494240Y-33107228D01*
X107350729Y-33190084D01*
X107333258Y-33205815D01*
X107269252Y-33236531D01*
X107198799Y-33227766D01*
X107164643Y-33205816D01*
X107147171Y-33190084D01*
X107003660Y-33107228D01*
X106988652Y-33098563D01*
X106988651Y-33098562D01*
X106982929Y-33095259D01*
X106881916Y-33062438D01*
X106808840Y-33038694D01*
X106808839Y-33038694D01*
X106802561Y-33036654D01*
X106795998Y-33035964D01*
X106795997Y-33035964D01*
X106772563Y-33033501D01*
X106661236Y-33021800D01*
X106566664Y-33021800D01*
X106455337Y-33033501D01*
X106431903Y-33035964D01*
X106431902Y-33035964D01*
X106425339Y-33036654D01*
X106419061Y-33038694D01*
X106419060Y-33038694D01*
X106345984Y-33062438D01*
X106244971Y-33095259D01*
X106239249Y-33098562D01*
X106239248Y-33098563D01*
X106224240Y-33107228D01*
X106080729Y-33190084D01*
X106063258Y-33205815D01*
X105999252Y-33236531D01*
X105928799Y-33227766D01*
X105894643Y-33205816D01*
X105877171Y-33190084D01*
X105733660Y-33107228D01*
X105718652Y-33098563D01*
X105718651Y-33098562D01*
X105712929Y-33095259D01*
X105611916Y-33062438D01*
X105538840Y-33038694D01*
X105538839Y-33038694D01*
X105532561Y-33036654D01*
X105525998Y-33035964D01*
X105525997Y-33035964D01*
X105502563Y-33033501D01*
X105391236Y-33021800D01*
X105296664Y-33021800D01*
X105185337Y-33033501D01*
X105161903Y-33035964D01*
X105161902Y-33035964D01*
X105155339Y-33036654D01*
X105149061Y-33038694D01*
X105149060Y-33038694D01*
X105075984Y-33062438D01*
X104974971Y-33095259D01*
X104969249Y-33098562D01*
X104969248Y-33098563D01*
X104816451Y-33186780D01*
X104816448Y-33186782D01*
X104810729Y-33190084D01*
X104805818Y-33194506D01*
X104805815Y-33194508D01*
X104801656Y-33198252D01*
X104737647Y-33228966D01*
X104667194Y-33220199D01*
X104633942Y-33199053D01*
X104628796Y-33194508D01*
X104620999Y-33187622D01*
X104594237Y-33175057D01*
X104579259Y-33166737D01*
X104561967Y-33155529D01*
X104561962Y-33155527D01*
X104554435Y-33150648D01*
X104545840Y-33148078D01*
X104545839Y-33148077D01*
X104536262Y-33145213D01*
X104509366Y-33133615D01*
X104448657Y-33098565D01*
X104448649Y-33098562D01*
X104442929Y-33095259D01*
X104436647Y-33093218D01*
X104436645Y-33093217D01*
X104268840Y-33038694D01*
X104268839Y-33038694D01*
X104262561Y-33036654D01*
X104255998Y-33035964D01*
X104255997Y-33035964D01*
X104232563Y-33033501D01*
X104121236Y-33021800D01*
X104112568Y-33021800D01*
X104044447Y-33001798D01*
X103997954Y-32948142D01*
X103986568Y-32895823D01*
X103986567Y-32886286D01*
X103986201Y-30876070D01*
X104006191Y-30807947D01*
X104059838Y-30761444D01*
X104130110Y-30751327D01*
X104187765Y-30775221D01*
X104232552Y-30808786D01*
X104248146Y-30817324D01*
X104368594Y-30862478D01*
X104383849Y-30866105D01*
X104434714Y-30871631D01*
X104441528Y-30872000D01*
X104864085Y-30872000D01*
X104879324Y-30867525D01*
X104880529Y-30866135D01*
X104882200Y-30858452D01*
X104882200Y-30853884D01*
X105390200Y-30853884D01*
X105394675Y-30869123D01*
X105396065Y-30870328D01*
X105403748Y-30871999D01*
X105830869Y-30871999D01*
X105837690Y-30871629D01*
X105888552Y-30866105D01*
X105903804Y-30862479D01*
X106024254Y-30817324D01*
X106039849Y-30808786D01*
X106141924Y-30732285D01*
X106154485Y-30719724D01*
X106230986Y-30617649D01*
X106239524Y-30602054D01*
X106284678Y-30481606D01*
X106288305Y-30466351D01*
X106293831Y-30415486D01*
X106294200Y-30408672D01*
X106294200Y-30036115D01*
X106289725Y-30020876D01*
X106288335Y-30019671D01*
X106280652Y-30018000D01*
X105408315Y-30018000D01*
X105393076Y-30022475D01*
X105391871Y-30023865D01*
X105390200Y-30031548D01*
X105390200Y-30853884D01*
X104882200Y-30853884D01*
X104882200Y-29636000D01*
X104902202Y-29567879D01*
X104955858Y-29521386D01*
X105008200Y-29510000D01*
X106276084Y-29510000D01*
X106291323Y-29505525D01*
X106292528Y-29504135D01*
X106294199Y-29496452D01*
X106294199Y-29119331D01*
X106293829Y-29112510D01*
X106288305Y-29061648D01*
X106284679Y-29046396D01*
X106239524Y-28925946D01*
X106230986Y-28910351D01*
X106154485Y-28808276D01*
X106141926Y-28795717D01*
X106101125Y-28765138D01*
X106058611Y-28708278D01*
X106053586Y-28637460D01*
X106087646Y-28575166D01*
X106101126Y-28563486D01*
X106142281Y-28532642D01*
X106149461Y-28527261D01*
X106236815Y-28410705D01*
X106287945Y-28274316D01*
X106294700Y-28212134D01*
X106294700Y-27660242D01*
X106314702Y-27592121D01*
X106368358Y-27545628D01*
X106417830Y-27535138D01*
X106417828Y-27535118D01*
X106418030Y-27535096D01*
X106418033Y-27535095D01*
X106452768Y-27531261D01*
X106466593Y-27530500D01*
X106479988Y-27530500D01*
X106548109Y-27550502D01*
G37*
%TD.AperFunction*%
%TA.AperFunction,Conductor*%
G36*
X126340984Y-22045503D02*
G01*
X126387477Y-22099159D01*
X126397581Y-22169433D01*
X126368087Y-22234013D01*
X126308361Y-22272397D01*
X126299709Y-22274608D01*
X126153834Y-22306414D01*
X126150407Y-22307587D01*
X126150401Y-22307589D01*
X125891722Y-22396155D01*
X125825590Y-22418797D01*
X125512439Y-22568163D01*
X125509360Y-22570094D01*
X125509359Y-22570095D01*
X125447848Y-22608681D01*
X125218530Y-22752532D01*
X125215694Y-22754804D01*
X125215687Y-22754809D01*
X125027160Y-22905848D01*
X124947760Y-22969459D01*
X124703717Y-23216071D01*
X124701476Y-23218929D01*
X124493619Y-23484020D01*
X124489637Y-23489098D01*
X124487744Y-23492187D01*
X124487742Y-23492190D01*
X124441484Y-23567676D01*
X124308356Y-23784921D01*
X124306831Y-23788206D01*
X124306829Y-23788210D01*
X124259933Y-23889239D01*
X124162278Y-24099620D01*
X124119177Y-24229946D01*
X124064999Y-24393765D01*
X124053338Y-24429023D01*
X124052602Y-24432578D01*
X124052601Y-24432581D01*
X124008769Y-24644237D01*
X123982981Y-24768764D01*
X123974923Y-24859057D01*
X123956523Y-25065222D01*
X123955751Y-25073869D01*
X123955751Y-27297432D01*
X123955856Y-27299251D01*
X123955856Y-27299255D01*
X123970371Y-27550982D01*
X123970624Y-27555374D01*
X123972735Y-27567467D01*
X124027917Y-27883646D01*
X124030275Y-27897158D01*
X124128814Y-28229820D01*
X124130237Y-28233156D01*
X124130238Y-28233159D01*
X124258029Y-28532760D01*
X124264935Y-28548952D01*
X124266730Y-28552099D01*
X124266732Y-28552103D01*
X124405687Y-28795717D01*
X124436834Y-28850324D01*
X124438973Y-28853236D01*
X124438975Y-28853239D01*
X124457732Y-28878773D01*
X124642233Y-29129940D01*
X124644699Y-29132593D01*
X124644700Y-29132595D01*
X124714928Y-29208169D01*
X124878409Y-29384096D01*
X125142232Y-29609422D01*
X125430204Y-29802931D01*
X125433421Y-29804592D01*
X125433422Y-29804592D01*
X125521082Y-29849837D01*
X125738510Y-29962060D01*
X126063062Y-30084698D01*
X126066583Y-30085582D01*
X126066588Y-30085584D01*
X126227873Y-30126096D01*
X126399559Y-30169220D01*
X126403154Y-30169693D01*
X126406722Y-30170374D01*
X126406427Y-30171918D01*
X126465579Y-30198103D01*
X126504656Y-30257378D01*
X126505484Y-30328370D01*
X126490094Y-30362536D01*
X126426485Y-30461238D01*
X126424076Y-30467858D01*
X126424074Y-30467861D01*
X126370823Y-30614166D01*
X126364447Y-30631685D01*
X126363564Y-30638673D01*
X126363564Y-30638674D01*
X126360825Y-30660354D01*
X126341713Y-30811640D01*
X126359413Y-30992160D01*
X126416668Y-31164273D01*
X126420315Y-31170295D01*
X126420316Y-31170297D01*
X126490267Y-31285800D01*
X126510630Y-31319424D01*
X126515519Y-31324487D01*
X126515520Y-31324488D01*
X126533602Y-31343212D01*
X126636632Y-31449902D01*
X126637817Y-31450678D01*
X126676310Y-31507664D01*
X126677933Y-31578642D01*
X126644417Y-31635939D01*
X126543493Y-31734771D01*
X126445235Y-31887238D01*
X126442826Y-31893858D01*
X126442824Y-31893861D01*
X126395264Y-32024531D01*
X126383197Y-32057685D01*
X126360463Y-32237640D01*
X126378163Y-32418160D01*
X126435418Y-32590273D01*
X126439065Y-32596295D01*
X126439066Y-32596297D01*
X126519958Y-32729866D01*
X126529380Y-32745424D01*
X126534269Y-32750487D01*
X126534270Y-32750488D01*
X126558924Y-32776018D01*
X126655382Y-32875902D01*
X126661279Y-32879761D01*
X126666703Y-32884248D01*
X126665017Y-32886286D01*
X126703210Y-32931100D01*
X126712737Y-33001455D01*
X126682715Y-33065791D01*
X126622676Y-33103683D01*
X126588171Y-33108500D01*
X123013605Y-33108500D01*
X122994223Y-33107000D01*
X122993606Y-33106904D01*
X122970514Y-33103309D01*
X122961613Y-33104473D01*
X122961609Y-33104473D01*
X122955258Y-33105304D01*
X122929935Y-33106047D01*
X122889391Y-33103149D01*
X122760956Y-33093966D01*
X122743174Y-33091410D01*
X122572544Y-33054296D01*
X122552835Y-33050009D01*
X122535586Y-33044945D01*
X122353080Y-32976878D01*
X122336727Y-32969410D01*
X122165762Y-32876060D01*
X122150637Y-32866340D01*
X122136333Y-32855632D01*
X122047854Y-32789400D01*
X121994705Y-32749614D01*
X121981119Y-32737842D01*
X121843386Y-32600113D01*
X121831612Y-32586526D01*
X121714878Y-32430590D01*
X121705159Y-32415466D01*
X121611805Y-32244505D01*
X121604337Y-32228152D01*
X121543362Y-32064675D01*
X121536267Y-32045652D01*
X121531202Y-32028405D01*
X121489797Y-31838069D01*
X121487239Y-31820281D01*
X121487213Y-31819918D01*
X121475677Y-31658624D01*
X121476472Y-31639514D01*
X121476562Y-31632148D01*
X121477943Y-31623276D01*
X121474231Y-31594892D01*
X121473174Y-31577302D01*
X121473314Y-31563374D01*
X121489948Y-29900730D01*
X121490020Y-29899824D01*
X121490286Y-29898934D01*
X121490598Y-29847905D01*
X121490787Y-29816979D01*
X121490791Y-29816490D01*
X121490932Y-29802396D01*
X121491040Y-29791576D01*
X121490957Y-29790954D01*
X121490948Y-29790628D01*
X121491114Y-29763388D01*
X121491176Y-29753279D01*
X121483927Y-29727914D01*
X121480177Y-29709908D01*
X121477881Y-29692648D01*
X121476698Y-29683753D01*
X121465011Y-29657350D01*
X121459079Y-29640975D01*
X121453616Y-29621859D01*
X121453615Y-29621856D01*
X121451149Y-29613229D01*
X121437072Y-29590919D01*
X121428416Y-29574682D01*
X121421371Y-29558767D01*
X121417739Y-29550561D01*
X121399110Y-29528498D01*
X121388829Y-29514458D01*
X121373424Y-29490042D01*
X121353648Y-29472576D01*
X121340793Y-29459431D01*
X121328741Y-29445159D01*
X121300072Y-29380208D01*
X121311070Y-29310068D01*
X121323071Y-29289806D01*
X121354952Y-29245925D01*
X121358832Y-29240585D01*
X121369507Y-29216610D01*
X121433285Y-29073362D01*
X121433286Y-29073360D01*
X121435970Y-29067331D01*
X121463068Y-28939842D01*
X121474028Y-28888282D01*
X121474028Y-28888278D01*
X121475400Y-28881825D01*
X121475400Y-28692175D01*
X121469783Y-28665745D01*
X121450529Y-28575166D01*
X121435970Y-28506669D01*
X121431755Y-28497201D01*
X121361517Y-28339445D01*
X121361516Y-28339443D01*
X121358832Y-28333415D01*
X121347909Y-28318380D01*
X121280835Y-28226061D01*
X121256976Y-28159193D01*
X121273057Y-28090041D01*
X121280835Y-28077939D01*
X121354951Y-27975927D01*
X121354952Y-27975926D01*
X121358832Y-27970585D01*
X121368799Y-27948200D01*
X121433285Y-27803362D01*
X121433286Y-27803360D01*
X121435970Y-27797331D01*
X121460481Y-27682016D01*
X121474028Y-27618282D01*
X121474028Y-27618278D01*
X121475400Y-27611825D01*
X121475400Y-27422175D01*
X121468088Y-27387771D01*
X121442161Y-27265795D01*
X121435970Y-27236669D01*
X121414678Y-27188847D01*
X121361517Y-27069445D01*
X121361516Y-27069443D01*
X121358832Y-27063415D01*
X121345013Y-27044394D01*
X121280835Y-26956061D01*
X121256976Y-26889193D01*
X121273057Y-26820041D01*
X121280835Y-26807939D01*
X121354951Y-26705927D01*
X121354952Y-26705926D01*
X121358832Y-26700585D01*
X121369556Y-26676500D01*
X121433285Y-26533362D01*
X121433286Y-26533360D01*
X121435970Y-26527331D01*
X121466986Y-26381411D01*
X121474028Y-26348282D01*
X121474028Y-26348278D01*
X121475400Y-26341825D01*
X121475400Y-26152175D01*
X121435970Y-25966669D01*
X121415684Y-25921106D01*
X121361517Y-25799445D01*
X121361516Y-25799443D01*
X121358832Y-25793415D01*
X121280835Y-25686061D01*
X121256976Y-25619193D01*
X121273057Y-25550041D01*
X121280835Y-25537939D01*
X121354951Y-25435927D01*
X121354952Y-25435926D01*
X121358832Y-25430585D01*
X121368707Y-25408407D01*
X121433285Y-25263362D01*
X121433286Y-25263360D01*
X121435970Y-25257331D01*
X121464652Y-25122392D01*
X121474028Y-25078282D01*
X121474028Y-25078278D01*
X121475400Y-25071825D01*
X121475400Y-24882175D01*
X121472015Y-24866246D01*
X121437342Y-24703126D01*
X121435970Y-24696669D01*
X121433285Y-24690638D01*
X121361517Y-24529445D01*
X121361516Y-24529443D01*
X121358832Y-24523415D01*
X121354951Y-24518074D01*
X121351650Y-24512356D01*
X121353709Y-24511167D01*
X121333496Y-24454512D01*
X121349578Y-24385360D01*
X121363407Y-24365814D01*
X121369327Y-24360713D01*
X121374208Y-24353182D01*
X121374211Y-24353179D01*
X121389442Y-24329681D01*
X121397836Y-24318205D01*
X121415608Y-24296584D01*
X121415609Y-24296582D01*
X121421307Y-24289650D01*
X121428474Y-24272861D01*
X121438620Y-24253807D01*
X121448552Y-24238485D01*
X121451124Y-24229884D01*
X121451126Y-24229880D01*
X121459150Y-24203050D01*
X121463986Y-24189679D01*
X121474971Y-24163949D01*
X121474972Y-24163947D01*
X121478497Y-24155689D01*
X121479563Y-24146778D01*
X121479565Y-24146769D01*
X121480666Y-24137560D01*
X121485056Y-24116426D01*
X121487714Y-24107536D01*
X121487714Y-24107533D01*
X121490286Y-24098934D01*
X121490341Y-24089961D01*
X121490512Y-24061964D01*
X121491020Y-24053855D01*
X121491206Y-24049402D01*
X121491785Y-24044563D01*
X121490883Y-24019125D01*
X121490806Y-24013891D01*
X121490970Y-23986974D01*
X121491176Y-23953279D01*
X121488832Y-23945079D01*
X121487852Y-23933689D01*
X121474720Y-23563482D01*
X121476387Y-23538112D01*
X121477020Y-23534349D01*
X121477827Y-23529552D01*
X121477980Y-23517000D01*
X121477290Y-23512179D01*
X121476408Y-23506019D01*
X121475457Y-23479172D01*
X121482163Y-23385408D01*
X121487290Y-23313720D01*
X121489848Y-23295932D01*
X121491561Y-23288060D01*
X121531251Y-23105612D01*
X121536315Y-23088366D01*
X121604386Y-22905863D01*
X121611854Y-22889510D01*
X121705204Y-22718556D01*
X121714924Y-22703432D01*
X121714941Y-22703410D01*
X121831647Y-22547511D01*
X121843420Y-22533925D01*
X121856739Y-22520607D01*
X121922688Y-22454659D01*
X121981152Y-22396197D01*
X121994738Y-22384425D01*
X122150667Y-22267701D01*
X122165791Y-22257982D01*
X122336742Y-22164639D01*
X122353090Y-22157173D01*
X122535600Y-22089105D01*
X122552847Y-22084041D01*
X122743176Y-22042642D01*
X122760965Y-22040084D01*
X122923058Y-22028495D01*
X122940117Y-22029204D01*
X122940117Y-22029200D01*
X122949087Y-22029310D01*
X122957961Y-22030692D01*
X122966864Y-22029528D01*
X122966865Y-22029528D01*
X122989536Y-22026564D01*
X123005870Y-22025501D01*
X126272863Y-22025501D01*
X126340984Y-22045503D01*
G37*
%TD.AperFunction*%
%TA.AperFunction,Conductor*%
G36*
X117474915Y-27531578D02*
G01*
X117501806Y-27535118D01*
X117509356Y-27534284D01*
X117513619Y-27534329D01*
X117581527Y-27555043D01*
X117627455Y-27609182D01*
X117638300Y-27660322D01*
X117638300Y-28212134D01*
X117645055Y-28274316D01*
X117696185Y-28410705D01*
X117783539Y-28527261D01*
X117790719Y-28532642D01*
X117831874Y-28563486D01*
X117874389Y-28620345D01*
X117879415Y-28691164D01*
X117845355Y-28753457D01*
X117831875Y-28765138D01*
X117791074Y-28795717D01*
X117778515Y-28808276D01*
X117702014Y-28910351D01*
X117693476Y-28925946D01*
X117648322Y-29046394D01*
X117644695Y-29061649D01*
X117639169Y-29112514D01*
X117638800Y-29119328D01*
X117638800Y-29491885D01*
X117643275Y-29507124D01*
X117644665Y-29508329D01*
X117652348Y-29510000D01*
X118924800Y-29510000D01*
X118992921Y-29530002D01*
X119039414Y-29583658D01*
X119050800Y-29636000D01*
X119050800Y-30853884D01*
X119055275Y-30869123D01*
X119056665Y-30870328D01*
X119064348Y-30871999D01*
X119491469Y-30871999D01*
X119498290Y-30871629D01*
X119549152Y-30866105D01*
X119569556Y-30861254D01*
X119640456Y-30864957D01*
X119698098Y-30906403D01*
X119724183Y-30972435D01*
X119724700Y-30983837D01*
X119724700Y-32982500D01*
X119704698Y-33050621D01*
X119651042Y-33097114D01*
X119598700Y-33108500D01*
X114150997Y-33108500D01*
X114082876Y-33088498D01*
X114036383Y-33034842D01*
X114026279Y-32964568D01*
X114037236Y-32929261D01*
X114037234Y-32929260D01*
X114037242Y-32929239D01*
X114038037Y-32926678D01*
X114039139Y-32924449D01*
X114039144Y-32924437D01*
X114041430Y-32919811D01*
X114085118Y-32776018D01*
X114104865Y-32711023D01*
X114104865Y-32711021D01*
X114106370Y-32706069D01*
X114135529Y-32484590D01*
X114135837Y-32471971D01*
X114137074Y-32421365D01*
X114137074Y-32421361D01*
X114137156Y-32418000D01*
X114118852Y-32195361D01*
X114064431Y-31978702D01*
X113975354Y-31773840D01*
X113854014Y-31586277D01*
X113703670Y-31421051D01*
X113699619Y-31417852D01*
X113699615Y-31417848D01*
X113532414Y-31285800D01*
X113532410Y-31285798D01*
X113528359Y-31282598D01*
X113516920Y-31276283D01*
X113435445Y-31231307D01*
X113344654Y-31181188D01*
X113294683Y-31130755D01*
X113289140Y-31119100D01*
X113287717Y-31115665D01*
X113286394Y-31111767D01*
X113272534Y-31083660D01*
X113204965Y-30946641D01*
X113191688Y-30919718D01*
X113163940Y-30878189D01*
X113142727Y-30810439D01*
X113161511Y-30741972D01*
X113164901Y-30737226D01*
X113164792Y-30737153D01*
X113168232Y-30732005D01*
X113172158Y-30727221D01*
X113177853Y-30716566D01*
X113251280Y-30579195D01*
X113251281Y-30579192D01*
X113254197Y-30573737D01*
X113273755Y-30509263D01*
X113312670Y-30449882D01*
X113377511Y-30420966D01*
X113382137Y-30420531D01*
X113382134Y-30420500D01*
X113420394Y-30416344D01*
X113447606Y-30416344D01*
X113461627Y-30417867D01*
X113470869Y-30418871D01*
X113536431Y-30446113D01*
X113576857Y-30504476D01*
X113582660Y-30531838D01*
X113584721Y-30552859D01*
X113588163Y-30587960D01*
X113645418Y-30760073D01*
X113649065Y-30766095D01*
X113649066Y-30766097D01*
X113734038Y-30906403D01*
X113739380Y-30915224D01*
X113744269Y-30920287D01*
X113744270Y-30920288D01*
X113794628Y-30972435D01*
X113865382Y-31045702D01*
X113894147Y-31064525D01*
X113995357Y-31130755D01*
X114017159Y-31145022D01*
X114023763Y-31147478D01*
X114023765Y-31147479D01*
X114180558Y-31205790D01*
X114180560Y-31205790D01*
X114187168Y-31208248D01*
X114270072Y-31219310D01*
X114359980Y-31231307D01*
X114359984Y-31231307D01*
X114366961Y-31232238D01*
X114373972Y-31231600D01*
X114373976Y-31231600D01*
X114525965Y-31217767D01*
X114547600Y-31215798D01*
X114554302Y-31213620D01*
X114554304Y-31213620D01*
X114713409Y-31161924D01*
X114713412Y-31161923D01*
X114720108Y-31159747D01*
X114875912Y-31066869D01*
X115007266Y-30941782D01*
X115107643Y-30790702D01*
X115172055Y-30621138D01*
X115174737Y-30602054D01*
X115185080Y-30528463D01*
X115214369Y-30463789D01*
X115273973Y-30425216D01*
X115309854Y-30419999D01*
X115503669Y-30419999D01*
X115510490Y-30419629D01*
X115561352Y-30414105D01*
X115576604Y-30410479D01*
X115581432Y-30408669D01*
X117638801Y-30408669D01*
X117639171Y-30415490D01*
X117644695Y-30466352D01*
X117648321Y-30481604D01*
X117693476Y-30602054D01*
X117702014Y-30617649D01*
X117778515Y-30719724D01*
X117791076Y-30732285D01*
X117893151Y-30808786D01*
X117908746Y-30817324D01*
X118029194Y-30862478D01*
X118044449Y-30866105D01*
X118095314Y-30871631D01*
X118102128Y-30872000D01*
X118524685Y-30872000D01*
X118539924Y-30867525D01*
X118541129Y-30866135D01*
X118542800Y-30858452D01*
X118542800Y-30036115D01*
X118538325Y-30020876D01*
X118536935Y-30019671D01*
X118529252Y-30018000D01*
X117656916Y-30018000D01*
X117641677Y-30022475D01*
X117640472Y-30023865D01*
X117638801Y-30031548D01*
X117638801Y-30408669D01*
X115581432Y-30408669D01*
X115697054Y-30365324D01*
X115712649Y-30356786D01*
X115814724Y-30280285D01*
X115827285Y-30267724D01*
X115903786Y-30165649D01*
X115912324Y-30150054D01*
X115957478Y-30029606D01*
X115961105Y-30014351D01*
X115966631Y-29963486D01*
X115967000Y-29956672D01*
X115967000Y-29945871D01*
X115987002Y-29877750D01*
X116040658Y-29831257D01*
X116106170Y-29820561D01*
X116246925Y-29835355D01*
X116329424Y-29827847D01*
X116437749Y-29817989D01*
X116437752Y-29817988D01*
X116443888Y-29817430D01*
X116449794Y-29815692D01*
X116449798Y-29815691D01*
X116595214Y-29772893D01*
X116633619Y-29761590D01*
X116639077Y-29758737D01*
X116639081Y-29758735D01*
X116732951Y-29709660D01*
X116808890Y-29669960D01*
X116963025Y-29546032D01*
X116967289Y-29540951D01*
X116989531Y-29514443D01*
X117090154Y-29394526D01*
X117093121Y-29389128D01*
X117093125Y-29389123D01*
X117182467Y-29226608D01*
X117185433Y-29221213D01*
X117187846Y-29213608D01*
X117243373Y-29038564D01*
X117243373Y-29038563D01*
X117245235Y-29032694D01*
X117262500Y-28878773D01*
X117262500Y-27672231D01*
X117262164Y-27668803D01*
X117262178Y-27668728D01*
X117262049Y-27666086D01*
X117262686Y-27666055D01*
X117275419Y-27599054D01*
X117324279Y-27547545D01*
X117387562Y-27530500D01*
X117458470Y-27530500D01*
X117474915Y-27531578D01*
G37*
%TD.AperFunction*%
%TA.AperFunction,Conductor*%
G36*
X154340988Y-22045502D02*
G01*
X154387481Y-22099158D01*
X154397585Y-22169432D01*
X154368091Y-22234012D01*
X154308365Y-22272396D01*
X154299709Y-22274608D01*
X154299705Y-22274609D01*
X154153834Y-22306414D01*
X154150407Y-22307587D01*
X154150401Y-22307589D01*
X153891722Y-22396155D01*
X153825590Y-22418797D01*
X153512439Y-22568163D01*
X153509360Y-22570094D01*
X153509359Y-22570095D01*
X153447848Y-22608681D01*
X153218530Y-22752532D01*
X153215694Y-22754804D01*
X153215687Y-22754809D01*
X153027160Y-22905848D01*
X152947760Y-22969459D01*
X152703717Y-23216071D01*
X152701476Y-23218929D01*
X152493619Y-23484020D01*
X152489637Y-23489098D01*
X152487744Y-23492187D01*
X152487742Y-23492190D01*
X152441484Y-23567676D01*
X152308356Y-23784921D01*
X152306831Y-23788206D01*
X152306829Y-23788210D01*
X152259933Y-23889239D01*
X152162278Y-24099620D01*
X152119177Y-24229946D01*
X152064999Y-24393765D01*
X152053338Y-24429023D01*
X152052602Y-24432578D01*
X152052601Y-24432581D01*
X152008769Y-24644237D01*
X151982981Y-24768764D01*
X151974923Y-24859057D01*
X151956523Y-25065222D01*
X151955751Y-25073869D01*
X151955751Y-25819790D01*
X151935749Y-25887911D01*
X151883623Y-25933693D01*
X151742004Y-26000674D01*
X151435791Y-26184212D01*
X151149043Y-26396880D01*
X150905022Y-26618050D01*
X150899713Y-26622432D01*
X150897175Y-26624612D01*
X150893876Y-26627088D01*
X150884328Y-26636439D01*
X150867513Y-26657884D01*
X150865120Y-26660936D01*
X150855061Y-26672285D01*
X149242347Y-28284999D01*
X149229956Y-28295867D01*
X149214460Y-28307757D01*
X149214458Y-28307759D01*
X149208437Y-28312379D01*
X149200999Y-28321663D01*
X149196137Y-28327732D01*
X149181760Y-28342905D01*
X149014368Y-28492494D01*
X149003322Y-28501303D01*
X148798437Y-28646679D01*
X148786473Y-28654197D01*
X148566585Y-28775725D01*
X148553862Y-28781852D01*
X148321764Y-28877991D01*
X148321747Y-28877998D01*
X148308423Y-28882661D01*
X148067004Y-28952213D01*
X148053233Y-28955356D01*
X147859854Y-28988214D01*
X147805545Y-28997441D01*
X147791511Y-28999023D01*
X147574709Y-29011199D01*
X147551199Y-29010318D01*
X147550427Y-29010216D01*
X147547822Y-29009873D01*
X147547818Y-29009873D01*
X147540291Y-29008882D01*
X147510310Y-29012192D01*
X147505355Y-29012739D01*
X147491528Y-29013500D01*
X146463270Y-29013500D01*
X146395149Y-28993498D01*
X146348656Y-28939842D01*
X146338055Y-28873456D01*
X146342358Y-28835090D01*
X146342751Y-28831587D01*
X146342751Y-27719763D01*
X146342031Y-27712413D01*
X146328217Y-27571534D01*
X146328216Y-27571531D01*
X146327616Y-27565408D01*
X146275773Y-27393693D01*
X146269403Y-27372593D01*
X146269402Y-27372590D01*
X146267619Y-27366685D01*
X146260340Y-27352995D01*
X146173060Y-27188847D01*
X146173059Y-27188845D01*
X146170164Y-27183401D01*
X146110203Y-27109881D01*
X146042861Y-27027311D01*
X146042858Y-27027308D01*
X146038966Y-27022536D01*
X146032021Y-27016790D01*
X145883769Y-26894145D01*
X145883770Y-26894145D01*
X145879021Y-26890217D01*
X145873604Y-26887288D01*
X145873601Y-26887286D01*
X145701841Y-26794416D01*
X145701836Y-26794414D01*
X145696421Y-26791486D01*
X145498122Y-26730102D01*
X145491997Y-26729458D01*
X145491996Y-26729458D01*
X145297805Y-26709048D01*
X145297803Y-26709048D01*
X145291676Y-26708404D01*
X145205766Y-26716223D01*
X145091087Y-26726659D01*
X145091084Y-26726660D01*
X145084948Y-26727218D01*
X145079042Y-26728956D01*
X145079038Y-26728957D01*
X144931183Y-26772473D01*
X144885811Y-26785827D01*
X144701851Y-26881999D01*
X144697051Y-26885859D01*
X144697050Y-26885859D01*
X144693958Y-26888345D01*
X144540074Y-27012071D01*
X144536116Y-27016788D01*
X144536114Y-27016790D01*
X144513238Y-27044053D01*
X144406642Y-27171089D01*
X144403678Y-27176481D01*
X144403675Y-27176485D01*
X144350662Y-27272915D01*
X144306638Y-27352995D01*
X144243872Y-27550861D01*
X144243186Y-27556978D01*
X144243185Y-27556982D01*
X144236070Y-27620414D01*
X144225751Y-27712413D01*
X144225751Y-28824237D01*
X144226472Y-28831587D01*
X144230748Y-28875205D01*
X144217488Y-28944953D01*
X144168625Y-28996459D01*
X144105349Y-29013500D01*
X137823270Y-29013500D01*
X137755149Y-28993498D01*
X137708656Y-28939842D01*
X137698055Y-28873456D01*
X137702358Y-28835090D01*
X137702751Y-28831587D01*
X137702751Y-27719763D01*
X137702031Y-27712413D01*
X137688217Y-27571534D01*
X137688216Y-27571531D01*
X137687616Y-27565408D01*
X137635773Y-27393693D01*
X137629403Y-27372593D01*
X137629402Y-27372590D01*
X137627619Y-27366685D01*
X137620340Y-27352995D01*
X137533060Y-27188847D01*
X137533059Y-27188845D01*
X137530164Y-27183401D01*
X137470203Y-27109881D01*
X137402861Y-27027311D01*
X137402858Y-27027308D01*
X137398966Y-27022536D01*
X137392021Y-27016790D01*
X137243769Y-26894145D01*
X137243770Y-26894145D01*
X137239021Y-26890217D01*
X137233604Y-26887288D01*
X137233601Y-26887286D01*
X137061841Y-26794416D01*
X137061836Y-26794414D01*
X137056421Y-26791486D01*
X136858122Y-26730102D01*
X136851997Y-26729458D01*
X136851996Y-26729458D01*
X136657805Y-26709048D01*
X136657803Y-26709048D01*
X136651676Y-26708404D01*
X136565766Y-26716223D01*
X136451087Y-26726659D01*
X136451084Y-26726660D01*
X136444948Y-26727218D01*
X136439042Y-26728956D01*
X136439038Y-26728957D01*
X136291183Y-26772473D01*
X136245811Y-26785827D01*
X136061851Y-26881999D01*
X136057051Y-26885859D01*
X136057050Y-26885859D01*
X136053958Y-26888345D01*
X135900074Y-27012071D01*
X135896116Y-27016788D01*
X135896114Y-27016790D01*
X135873238Y-27044053D01*
X135766642Y-27171089D01*
X135763678Y-27176481D01*
X135763675Y-27176485D01*
X135710662Y-27272915D01*
X135666638Y-27352995D01*
X135603872Y-27550861D01*
X135603186Y-27556978D01*
X135603185Y-27556982D01*
X135596070Y-27620414D01*
X135585751Y-27712413D01*
X135585751Y-28824237D01*
X135586472Y-28831587D01*
X135590421Y-28871870D01*
X135577161Y-28941618D01*
X135528298Y-28993124D01*
X135478848Y-29009404D01*
X135464020Y-29011041D01*
X135443129Y-29011604D01*
X135433105Y-29011041D01*
X135412308Y-29009873D01*
X135218992Y-28999016D01*
X135204958Y-28997435D01*
X135081114Y-28976392D01*
X134957274Y-28955350D01*
X134943500Y-28952206D01*
X134798217Y-28910351D01*
X134702085Y-28882656D01*
X134688758Y-28877993D01*
X134456642Y-28781846D01*
X134443912Y-28775715D01*
X134224031Y-28654191D01*
X134212067Y-28646673D01*
X134007177Y-28501295D01*
X133996130Y-28492485D01*
X133834172Y-28347749D01*
X133818171Y-28330504D01*
X133816141Y-28327858D01*
X133816137Y-28327854D01*
X133811514Y-28321829D01*
X133784081Y-28299851D01*
X133773767Y-28290612D01*
X133323671Y-27840516D01*
X133289645Y-27778204D01*
X133287551Y-27765465D01*
X133283432Y-27728746D01*
X133282647Y-27721745D01*
X133250742Y-27630127D01*
X133225314Y-27557106D01*
X133225312Y-27557103D01*
X133222995Y-27550448D01*
X133205579Y-27522577D01*
X133130609Y-27402598D01*
X133126876Y-27396624D01*
X133113191Y-27382843D01*
X133004028Y-27272915D01*
X133004024Y-27272912D01*
X132999065Y-27267918D01*
X132987947Y-27260862D01*
X132939788Y-27230300D01*
X132845916Y-27170727D01*
X132805007Y-27156160D01*
X132681675Y-27112243D01*
X132681670Y-27112242D01*
X132675040Y-27109881D01*
X132668052Y-27109048D01*
X132668049Y-27109047D01*
X132544948Y-27094368D01*
X132494930Y-27088404D01*
X132487927Y-27089140D01*
X132487926Y-27089140D01*
X132321538Y-27106628D01*
X132321536Y-27106629D01*
X132314538Y-27107364D01*
X132142829Y-27165818D01*
X132105396Y-27188847D01*
X131994345Y-27257166D01*
X131994342Y-27257168D01*
X131988338Y-27260862D01*
X131983303Y-27265793D01*
X131983300Y-27265795D01*
X131880275Y-27366685D01*
X131858743Y-27387771D01*
X131760485Y-27540238D01*
X131758076Y-27546858D01*
X131758074Y-27546861D01*
X131700856Y-27704066D01*
X131698447Y-27710685D01*
X131675713Y-27890640D01*
X131693413Y-28071160D01*
X131750668Y-28243273D01*
X131754315Y-28249295D01*
X131754316Y-28249297D01*
X131811007Y-28342905D01*
X131844630Y-28398424D01*
X131849519Y-28403487D01*
X131849520Y-28403488D01*
X131863429Y-28417891D01*
X131970632Y-28528902D01*
X131976528Y-28532760D01*
X132110372Y-28620345D01*
X132122409Y-28628222D01*
X132129013Y-28630678D01*
X132129015Y-28630679D01*
X132285808Y-28688990D01*
X132285810Y-28688990D01*
X132292418Y-28691448D01*
X132299403Y-28692380D01*
X132299407Y-28692381D01*
X132334337Y-28697041D01*
X132354437Y-28699723D01*
X132419313Y-28728558D01*
X132426867Y-28735521D01*
X132869435Y-29178089D01*
X132881100Y-29191531D01*
X132890843Y-29204507D01*
X132894976Y-29210012D01*
X132904327Y-29219561D01*
X132906935Y-29221606D01*
X132907246Y-29222108D01*
X132907383Y-29221957D01*
X133169045Y-29459115D01*
X133171528Y-29460956D01*
X133171531Y-29460959D01*
X133196256Y-29479296D01*
X133239056Y-29535941D01*
X133244437Y-29606733D01*
X133210690Y-29669197D01*
X133148531Y-29703500D01*
X133121198Y-29706500D01*
X131973727Y-29706500D01*
X131968230Y-29706380D01*
X131964665Y-29706224D01*
X131960562Y-29705775D01*
X131956438Y-29705865D01*
X131928714Y-29706470D01*
X131925965Y-29706500D01*
X131894080Y-29706500D01*
X131894080Y-29706338D01*
X131884209Y-29706338D01*
X131883910Y-29706318D01*
X131875806Y-29704707D01*
X131825268Y-29708021D01*
X131811871Y-29708900D01*
X131806373Y-29709140D01*
X131798885Y-29709303D01*
X131782533Y-29709660D01*
X131774789Y-29710852D01*
X131763868Y-29712048D01*
X131756072Y-29712559D01*
X131732661Y-29717216D01*
X131727284Y-29718163D01*
X131663938Y-29727914D01*
X131656372Y-29731243D01*
X131649206Y-29733332D01*
X131638537Y-29735942D01*
X131595124Y-29744579D01*
X131572473Y-29746810D01*
X131571034Y-29747000D01*
X131562777Y-29747000D01*
X131554799Y-29749138D01*
X131508614Y-29761515D01*
X131500586Y-29763387D01*
X131485055Y-29766477D01*
X131481151Y-29767802D01*
X131481141Y-29767805D01*
X131470055Y-29771569D01*
X131462184Y-29773957D01*
X131446875Y-29778060D01*
X131443068Y-29779637D01*
X131443059Y-29779640D01*
X131432244Y-29784120D01*
X131424532Y-29787023D01*
X131371433Y-29805050D01*
X131364566Y-29809639D01*
X131363262Y-29810282D01*
X131343192Y-29821010D01*
X131310302Y-29834635D01*
X131295270Y-29840862D01*
X131273516Y-29847461D01*
X131272117Y-29847936D01*
X131264014Y-29849548D01*
X131256604Y-29853203D01*
X131248788Y-29855856D01*
X131248494Y-29854990D01*
X131201274Y-29866000D01*
X130994751Y-29866000D01*
X130926630Y-29845998D01*
X130880137Y-29792342D01*
X130868751Y-29740000D01*
X130868751Y-26326499D01*
X130888753Y-26258378D01*
X130942409Y-26211885D01*
X130994751Y-26200499D01*
X131358385Y-26200499D01*
X131420567Y-26193744D01*
X131556956Y-26142614D01*
X131673512Y-26055260D01*
X131760866Y-25938704D01*
X131811996Y-25802315D01*
X131818751Y-25740133D01*
X131818751Y-25674908D01*
X131838753Y-25606787D01*
X131892409Y-25560294D01*
X131962683Y-25550190D01*
X132027263Y-25579684D01*
X132033797Y-25585764D01*
X132100143Y-25652050D01*
X132301715Y-25802776D01*
X132305667Y-25804931D01*
X132305669Y-25804932D01*
X132518742Y-25921106D01*
X132518746Y-25921108D01*
X132522697Y-25923262D01*
X132526913Y-25924831D01*
X132526915Y-25924832D01*
X132754365Y-26009483D01*
X132754368Y-26009484D01*
X132758584Y-26011053D01*
X132929451Y-26048080D01*
X132948436Y-26052194D01*
X133010775Y-26086169D01*
X133044850Y-26148454D01*
X133047751Y-26175336D01*
X133047751Y-26216134D01*
X133054506Y-26278316D01*
X133105636Y-26414705D01*
X133192990Y-26531261D01*
X133309546Y-26618615D01*
X133445935Y-26669745D01*
X133508117Y-26676500D01*
X135304385Y-26676500D01*
X135366567Y-26669745D01*
X135502956Y-26618615D01*
X135619512Y-26531261D01*
X135706866Y-26414705D01*
X135757996Y-26278316D01*
X135764751Y-26216134D01*
X135764751Y-25505997D01*
X135784753Y-25437876D01*
X135838409Y-25391383D01*
X135908683Y-25381279D01*
X135971067Y-25408913D01*
X136049481Y-25473783D01*
X136054898Y-25476712D01*
X136054901Y-25476714D01*
X136226661Y-25569584D01*
X136226666Y-25569586D01*
X136232081Y-25572514D01*
X136430380Y-25633898D01*
X136436505Y-25634542D01*
X136436506Y-25634542D01*
X136630697Y-25654952D01*
X136630699Y-25654952D01*
X136636826Y-25655596D01*
X136722736Y-25647777D01*
X136837415Y-25637341D01*
X136837418Y-25637340D01*
X136843554Y-25636782D01*
X136849460Y-25635044D01*
X136849464Y-25635043D01*
X137017633Y-25585548D01*
X137042691Y-25578173D01*
X137226651Y-25482001D01*
X137236410Y-25474155D01*
X137281531Y-25437876D01*
X137388428Y-25351929D01*
X137393913Y-25345393D01*
X137517901Y-25197629D01*
X137521860Y-25192911D01*
X137524824Y-25187519D01*
X137524827Y-25187515D01*
X137618897Y-25016402D01*
X137621864Y-25011005D01*
X137684630Y-24813139D01*
X137685601Y-24804489D01*
X137702358Y-24655087D01*
X137702751Y-24651587D01*
X137702751Y-24644237D01*
X144225751Y-24644237D01*
X144226051Y-24647293D01*
X144226051Y-24647300D01*
X144239587Y-24785344D01*
X144240886Y-24798592D01*
X144280725Y-24930546D01*
X144290984Y-24964526D01*
X144300883Y-24997315D01*
X144303778Y-25002760D01*
X144303779Y-25002762D01*
X144366419Y-25120568D01*
X144398338Y-25180599D01*
X144437161Y-25228201D01*
X144525641Y-25336689D01*
X144525644Y-25336692D01*
X144529536Y-25341464D01*
X144534284Y-25345392D01*
X144534285Y-25345393D01*
X144611067Y-25408913D01*
X144689481Y-25473783D01*
X144694898Y-25476712D01*
X144694901Y-25476714D01*
X144866661Y-25569584D01*
X144866666Y-25569586D01*
X144872081Y-25572514D01*
X145070380Y-25633898D01*
X145076505Y-25634542D01*
X145076506Y-25634542D01*
X145270697Y-25654952D01*
X145270699Y-25654952D01*
X145276826Y-25655596D01*
X145362736Y-25647777D01*
X145477415Y-25637341D01*
X145477418Y-25637340D01*
X145483554Y-25636782D01*
X145489460Y-25635044D01*
X145489464Y-25635043D01*
X145657633Y-25585548D01*
X145682691Y-25578173D01*
X145866651Y-25482001D01*
X145871447Y-25478145D01*
X145871459Y-25478137D01*
X146000499Y-25374385D01*
X146066121Y-25347288D01*
X146135976Y-25359971D01*
X146187884Y-25408407D01*
X146205451Y-25472581D01*
X146205452Y-26212669D01*
X146205822Y-26219490D01*
X146211346Y-26270352D01*
X146214972Y-26285604D01*
X146260127Y-26406054D01*
X146268665Y-26421649D01*
X146345166Y-26523724D01*
X146357727Y-26536285D01*
X146459802Y-26612786D01*
X146475397Y-26621324D01*
X146595845Y-26666478D01*
X146611100Y-26670105D01*
X146661965Y-26675631D01*
X146668779Y-26676000D01*
X147291336Y-26676000D01*
X147306575Y-26671525D01*
X147307780Y-26670135D01*
X147309451Y-26662452D01*
X147309451Y-26657884D01*
X147817451Y-26657884D01*
X147821926Y-26673123D01*
X147823316Y-26674328D01*
X147830999Y-26675999D01*
X148458120Y-26675999D01*
X148464941Y-26675629D01*
X148515803Y-26670105D01*
X148531055Y-26666479D01*
X148651505Y-26621324D01*
X148667100Y-26612786D01*
X148769175Y-26536285D01*
X148781736Y-26523724D01*
X148858237Y-26421649D01*
X148866775Y-26406054D01*
X148911929Y-26285606D01*
X148915556Y-26270351D01*
X148921082Y-26219486D01*
X148921451Y-26212672D01*
X148921451Y-25590115D01*
X148916976Y-25574876D01*
X148915586Y-25573671D01*
X148907903Y-25572000D01*
X147835566Y-25572000D01*
X147820327Y-25576475D01*
X147819122Y-25577865D01*
X147817451Y-25585548D01*
X147817451Y-26657884D01*
X147309451Y-26657884D01*
X147309451Y-25045885D01*
X147817451Y-25045885D01*
X147821926Y-25061124D01*
X147823316Y-25062329D01*
X147830999Y-25064000D01*
X148903335Y-25064000D01*
X148918574Y-25059525D01*
X148919779Y-25058135D01*
X148921450Y-25050452D01*
X148921450Y-24423331D01*
X148921080Y-24416510D01*
X148915556Y-24365648D01*
X148911930Y-24350396D01*
X148866775Y-24229946D01*
X148858237Y-24214351D01*
X148781736Y-24112276D01*
X148769175Y-24099715D01*
X148667100Y-24023214D01*
X148651505Y-24014676D01*
X148540748Y-23973155D01*
X148483984Y-23930513D01*
X148459284Y-23863952D01*
X148474491Y-23794603D01*
X148496038Y-23765922D01*
X148597508Y-23664805D01*
X148604181Y-23656965D01*
X148728454Y-23484020D01*
X148733764Y-23475183D01*
X148828121Y-23284267D01*
X148831920Y-23274672D01*
X148893828Y-23070910D01*
X148896006Y-23060837D01*
X148897437Y-23049962D01*
X148895226Y-23035778D01*
X148882068Y-23032000D01*
X147835566Y-23032000D01*
X147820327Y-23036475D01*
X147819122Y-23037865D01*
X147817451Y-23045548D01*
X147817451Y-25045885D01*
X147309451Y-25045885D01*
X147309451Y-23050115D01*
X147304976Y-23034876D01*
X147303586Y-23033671D01*
X147295903Y-23032000D01*
X146253318Y-23032000D01*
X146185197Y-23011998D01*
X146155675Y-22985635D01*
X146042865Y-22847316D01*
X146042860Y-22847311D01*
X146038966Y-22842536D01*
X146032021Y-22836790D01*
X145883769Y-22714145D01*
X145883770Y-22714145D01*
X145879021Y-22710217D01*
X145873604Y-22707288D01*
X145873601Y-22707286D01*
X145701841Y-22614416D01*
X145701836Y-22614414D01*
X145696421Y-22611486D01*
X145498122Y-22550102D01*
X145491997Y-22549458D01*
X145491996Y-22549458D01*
X145297805Y-22529048D01*
X145297803Y-22529048D01*
X145291676Y-22528404D01*
X145214958Y-22535386D01*
X145091087Y-22546659D01*
X145091084Y-22546660D01*
X145084948Y-22547218D01*
X145079042Y-22548956D01*
X145079038Y-22548957D01*
X144931183Y-22592473D01*
X144885811Y-22605827D01*
X144701851Y-22701999D01*
X144540074Y-22832071D01*
X144536116Y-22836788D01*
X144536114Y-22836790D01*
X144491877Y-22889510D01*
X144406642Y-22991089D01*
X144403678Y-22996481D01*
X144403675Y-22996485D01*
X144330307Y-23129942D01*
X144306638Y-23172995D01*
X144243872Y-23370861D01*
X144243186Y-23376978D01*
X144243185Y-23376982D01*
X144237338Y-23429113D01*
X144225751Y-23532413D01*
X144225751Y-24644237D01*
X137702751Y-24644237D01*
X137702751Y-23539763D01*
X137702031Y-23532413D01*
X137688217Y-23391534D01*
X137688216Y-23391531D01*
X137687616Y-23385408D01*
X137639150Y-23224877D01*
X137629403Y-23192593D01*
X137629402Y-23192590D01*
X137627619Y-23186685D01*
X137617470Y-23167598D01*
X137533060Y-23008847D01*
X137533059Y-23008845D01*
X137530164Y-23003401D01*
X137437265Y-22889495D01*
X137402861Y-22847311D01*
X137402858Y-22847308D01*
X137398966Y-22842536D01*
X137392021Y-22836790D01*
X137243769Y-22714145D01*
X137243770Y-22714145D01*
X137239021Y-22710217D01*
X137233604Y-22707288D01*
X137233601Y-22707286D01*
X137061841Y-22614416D01*
X137061836Y-22614414D01*
X137056421Y-22611486D01*
X136858122Y-22550102D01*
X136851997Y-22549458D01*
X136851996Y-22549458D01*
X136657805Y-22529048D01*
X136657803Y-22529048D01*
X136651676Y-22528404D01*
X136574958Y-22535386D01*
X136451087Y-22546659D01*
X136451084Y-22546660D01*
X136444948Y-22547218D01*
X136439042Y-22548956D01*
X136439038Y-22548957D01*
X136291183Y-22592473D01*
X136245811Y-22605827D01*
X136061851Y-22701999D01*
X135900074Y-22832071D01*
X135770601Y-22986371D01*
X135770081Y-22986991D01*
X135710971Y-23026318D01*
X135673559Y-23032000D01*
X133089476Y-23032000D01*
X133075945Y-23035973D01*
X133074508Y-23045966D01*
X133104816Y-23180446D01*
X133107896Y-23190275D01*
X133188021Y-23387603D01*
X133192664Y-23396794D01*
X133303945Y-23578388D01*
X133310028Y-23586699D01*
X133449464Y-23747667D01*
X133456828Y-23754879D01*
X133461773Y-23758985D01*
X133501407Y-23817889D01*
X133502904Y-23888870D01*
X133465788Y-23949392D01*
X133425515Y-23973910D01*
X133317956Y-24014232D01*
X133317955Y-24014233D01*
X133309546Y-24017385D01*
X133302361Y-24022770D01*
X133302359Y-24022771D01*
X133218416Y-24085683D01*
X133151909Y-24110531D01*
X133082527Y-24095478D01*
X133032297Y-24045304D01*
X133017298Y-23992061D01*
X133017299Y-23992002D01*
X133016734Y-23986966D01*
X133016271Y-23981919D01*
X132999369Y-23745589D01*
X132999369Y-23745588D01*
X132999048Y-23741102D01*
X132954072Y-23534349D01*
X132946534Y-23499698D01*
X132946533Y-23499695D01*
X132945579Y-23495309D01*
X132944012Y-23491107D01*
X132944010Y-23491101D01*
X132859245Y-23263840D01*
X132857674Y-23259628D01*
X132855523Y-23255688D01*
X132855519Y-23255680D01*
X132739283Y-23042810D01*
X132737124Y-23038856D01*
X132586381Y-22837486D01*
X132408515Y-22659620D01*
X132404919Y-22656928D01*
X132404912Y-22656922D01*
X132261356Y-22549458D01*
X132207146Y-22508877D01*
X131986374Y-22388326D01*
X131840340Y-22333859D01*
X131783505Y-22291312D01*
X131766392Y-22260035D01*
X131764019Y-22253706D01*
X131764018Y-22253704D01*
X131760866Y-22245296D01*
X131747204Y-22227067D01*
X131722355Y-22160561D01*
X131737407Y-22091179D01*
X131787581Y-22040948D01*
X131848029Y-22025501D01*
X133060899Y-22025501D01*
X133129020Y-22045503D01*
X133175513Y-22099159D01*
X133185617Y-22169433D01*
X133175187Y-22204551D01*
X133129589Y-22302783D01*
X133126026Y-22312470D01*
X133070640Y-22512183D01*
X133072163Y-22520607D01*
X133084543Y-22524000D01*
X135724595Y-22524000D01*
X135738126Y-22520027D01*
X135739431Y-22510947D01*
X135697465Y-22343875D01*
X135694145Y-22334124D01*
X135636585Y-22201743D01*
X135627765Y-22131296D01*
X135658432Y-22067265D01*
X135718849Y-22029977D01*
X135752135Y-22025501D01*
X138369570Y-22025501D01*
X146218101Y-22025500D01*
X146286220Y-22045502D01*
X146332713Y-22099158D01*
X146342817Y-22169432D01*
X146332387Y-22204550D01*
X146286790Y-22302783D01*
X146283226Y-22312470D01*
X146227840Y-22512183D01*
X146229363Y-22520607D01*
X146241743Y-22524000D01*
X148881795Y-22524000D01*
X148895326Y-22520027D01*
X148896631Y-22510947D01*
X148854665Y-22343875D01*
X148851345Y-22334124D01*
X148793784Y-22201742D01*
X148784964Y-22131296D01*
X148815631Y-22067264D01*
X148876047Y-22029976D01*
X148909331Y-22025500D01*
X154272868Y-22025500D01*
X154340988Y-22045502D01*
G37*
%TD.AperFunction*%
%TA.AperFunction,Conductor*%
G36*
X117255969Y-22045503D02*
G01*
X117302462Y-22099159D01*
X117312566Y-22169433D01*
X117302136Y-22204551D01*
X117256538Y-22302783D01*
X117252975Y-22312470D01*
X117197589Y-22512183D01*
X117199112Y-22520607D01*
X117211492Y-22524000D01*
X118661200Y-22524000D01*
X118729321Y-22544002D01*
X118775814Y-22597658D01*
X118787200Y-22650000D01*
X118787200Y-25446000D01*
X118767198Y-25514121D01*
X118713542Y-25560614D01*
X118661200Y-25572000D01*
X117193316Y-25572000D01*
X117178077Y-25576475D01*
X117176872Y-25577865D01*
X117175201Y-25585548D01*
X117175201Y-26137500D01*
X117155199Y-26205621D01*
X117101543Y-26252114D01*
X117049201Y-26263500D01*
X114798524Y-26263500D01*
X114780768Y-26262243D01*
X114761971Y-26259567D01*
X114761964Y-26259566D01*
X114757893Y-26258987D01*
X114751873Y-26258924D01*
X114748663Y-26258890D01*
X114748658Y-26258890D01*
X114744529Y-26258847D01*
X114729551Y-26260660D01*
X114728425Y-26260796D01*
X114720349Y-26261511D01*
X114692991Y-26263047D01*
X114505276Y-26273586D01*
X114433884Y-26285715D01*
X114272509Y-26313131D01*
X114272504Y-26313132D01*
X114269032Y-26313722D01*
X114038768Y-26380058D01*
X113993130Y-26398961D01*
X113820629Y-26470410D01*
X113820622Y-26470413D01*
X113817378Y-26471757D01*
X113814302Y-26473457D01*
X113814300Y-26473458D01*
X113673840Y-26551086D01*
X113607648Y-26587668D01*
X113604767Y-26589712D01*
X113604764Y-26589714D01*
X113502247Y-26662452D01*
X113412214Y-26726332D01*
X113409580Y-26728685D01*
X113409581Y-26728685D01*
X113297971Y-26828424D01*
X113297407Y-26828894D01*
X113292497Y-26831798D01*
X113280724Y-26843571D01*
X113275588Y-26848427D01*
X113264013Y-26858771D01*
X113255704Y-26865582D01*
X113245472Y-26873264D01*
X113245466Y-26873269D01*
X113242171Y-26875743D01*
X113239227Y-26878626D01*
X113235575Y-26882201D01*
X113235571Y-26882205D01*
X113232622Y-26885093D01*
X113230073Y-26888344D01*
X113230072Y-26888345D01*
X113218259Y-26903410D01*
X113194762Y-26926420D01*
X113181642Y-26936271D01*
X113172093Y-26945622D01*
X113169549Y-26948867D01*
X113169537Y-26948880D01*
X113162216Y-26958217D01*
X113157017Y-26964427D01*
X113029941Y-27106628D01*
X113013332Y-27125214D01*
X112874668Y-27320648D01*
X112872960Y-27323738D01*
X112872959Y-27323740D01*
X112763068Y-27522577D01*
X112758757Y-27530378D01*
X112757410Y-27533629D01*
X112757409Y-27533632D01*
X112738821Y-27578508D01*
X112694273Y-27633789D01*
X112626910Y-27656210D01*
X112558118Y-27638652D01*
X112546781Y-27630127D01*
X112546511Y-27630499D01*
X112540100Y-27625841D01*
X112534321Y-27620414D01*
X112527375Y-27616595D01*
X112527372Y-27616593D01*
X112516566Y-27610652D01*
X112500047Y-27599801D01*
X112499084Y-27599054D01*
X112484041Y-27587386D01*
X112476772Y-27584241D01*
X112476768Y-27584238D01*
X112443463Y-27569826D01*
X112432813Y-27564609D01*
X112394060Y-27543305D01*
X112374437Y-27538267D01*
X112355734Y-27531863D01*
X112344420Y-27526967D01*
X112344419Y-27526967D01*
X112337145Y-27523819D01*
X112329322Y-27522580D01*
X112329312Y-27522577D01*
X112293476Y-27516901D01*
X112281856Y-27514495D01*
X112246711Y-27505472D01*
X112246710Y-27505472D01*
X112239030Y-27503500D01*
X112218776Y-27503500D01*
X112199065Y-27501949D01*
X112196534Y-27501548D01*
X112179057Y-27498780D01*
X112171165Y-27499526D01*
X112135039Y-27502941D01*
X112123181Y-27503500D01*
X111287763Y-27503500D01*
X111276579Y-27502973D01*
X111269091Y-27501299D01*
X111261168Y-27501548D01*
X111201033Y-27503438D01*
X111197075Y-27503500D01*
X111169144Y-27503500D01*
X111165229Y-27503995D01*
X111165225Y-27503995D01*
X111165167Y-27504003D01*
X111165138Y-27504006D01*
X111153296Y-27504939D01*
X111109110Y-27506327D01*
X111091744Y-27511372D01*
X111089658Y-27511978D01*
X111070306Y-27515986D01*
X111063235Y-27516880D01*
X111050203Y-27518526D01*
X111042834Y-27521443D01*
X111042832Y-27521444D01*
X111009097Y-27534800D01*
X110997869Y-27538645D01*
X110955407Y-27550982D01*
X110948585Y-27555016D01*
X110948579Y-27555019D01*
X110937968Y-27561294D01*
X110920218Y-27569990D01*
X110908756Y-27574528D01*
X110908751Y-27574531D01*
X110901383Y-27577448D01*
X110883970Y-27590099D01*
X110865625Y-27603427D01*
X110855707Y-27609943D01*
X110844463Y-27616593D01*
X110817637Y-27632458D01*
X110812168Y-27637927D01*
X110746165Y-27663845D01*
X110676542Y-27649947D01*
X110625485Y-27600615D01*
X110618612Y-27586561D01*
X110609256Y-27563972D01*
X110605462Y-27557106D01*
X110500223Y-27366685D01*
X110493345Y-27354240D01*
X110491303Y-27351362D01*
X110491298Y-27351354D01*
X110356726Y-27161690D01*
X110354679Y-27158805D01*
X110352322Y-27156167D01*
X110352316Y-27156160D01*
X110252437Y-27044394D01*
X110252081Y-27043966D01*
X110249202Y-27039098D01*
X110237627Y-27027523D01*
X110232785Y-27022402D01*
X110222110Y-27010458D01*
X110215318Y-27002172D01*
X110205257Y-26988771D01*
X110195907Y-26979222D01*
X110171405Y-26960010D01*
X110160055Y-26949951D01*
X110136666Y-26926561D01*
X110125008Y-26913126D01*
X110111129Y-26894642D01*
X110101778Y-26885093D01*
X110098533Y-26882549D01*
X110098520Y-26882537D01*
X110089183Y-26875216D01*
X110082973Y-26870017D01*
X109924819Y-26728685D01*
X109922186Y-26726332D01*
X109832153Y-26662452D01*
X109729636Y-26589714D01*
X109729633Y-26589712D01*
X109726752Y-26587668D01*
X109660561Y-26551086D01*
X109520100Y-26473458D01*
X109520098Y-26473457D01*
X109517022Y-26471757D01*
X109513778Y-26470413D01*
X109513771Y-26470410D01*
X109341270Y-26398961D01*
X109295632Y-26380058D01*
X109065368Y-26313722D01*
X109061896Y-26313132D01*
X109061891Y-26313131D01*
X108900516Y-26285715D01*
X108829124Y-26273586D01*
X108726718Y-26267836D01*
X108676360Y-26265009D01*
X108675471Y-26264928D01*
X108669910Y-26263500D01*
X108653020Y-26263500D01*
X108645960Y-26263302D01*
X108633223Y-26262587D01*
X108630837Y-26262453D01*
X108620151Y-26261394D01*
X108612568Y-26260315D01*
X108603235Y-26258987D01*
X108597020Y-26258922D01*
X108594005Y-26258890D01*
X108594000Y-26258890D01*
X108589871Y-26258847D01*
X108558968Y-26262587D01*
X108543831Y-26263500D01*
X106860500Y-26263500D01*
X106792379Y-26243498D01*
X106745886Y-26189842D01*
X106734500Y-26137500D01*
X106734500Y-25241102D01*
X106754502Y-25172981D01*
X106808158Y-25126488D01*
X106878432Y-25116384D01*
X106940813Y-25144016D01*
X107047325Y-25232130D01*
X107221299Y-25326198D01*
X107410232Y-25384682D01*
X107416357Y-25385326D01*
X107416358Y-25385326D01*
X107600796Y-25404711D01*
X107600798Y-25404711D01*
X107606925Y-25405355D01*
X107689424Y-25397847D01*
X107797749Y-25387989D01*
X107797752Y-25387988D01*
X107803888Y-25387430D01*
X107809794Y-25385692D01*
X107809798Y-25385691D01*
X107940546Y-25347210D01*
X107993619Y-25331590D01*
X107999077Y-25328737D01*
X107999081Y-25328735D01*
X108124126Y-25263362D01*
X108168890Y-25239960D01*
X108323025Y-25116032D01*
X108450154Y-24964526D01*
X108453121Y-24959128D01*
X108453125Y-24959123D01*
X108536744Y-24807018D01*
X108545433Y-24791213D01*
X108547846Y-24783608D01*
X108603373Y-24608564D01*
X108603373Y-24608563D01*
X108605235Y-24602694D01*
X108622500Y-24448773D01*
X108622500Y-24441769D01*
X115245500Y-24441769D01*
X115245800Y-24444825D01*
X115245800Y-24444832D01*
X115246530Y-24452273D01*
X115259920Y-24588833D01*
X115317084Y-24778169D01*
X115409934Y-24952796D01*
X115457408Y-25011005D01*
X115531040Y-25101287D01*
X115531043Y-25101290D01*
X115534935Y-25106062D01*
X115539682Y-25109989D01*
X115539684Y-25109991D01*
X115682575Y-25228201D01*
X115682579Y-25228203D01*
X115687325Y-25232130D01*
X115861299Y-25326198D01*
X116050232Y-25384682D01*
X116056357Y-25385326D01*
X116056358Y-25385326D01*
X116240796Y-25404711D01*
X116240798Y-25404711D01*
X116246925Y-25405355D01*
X116329424Y-25397847D01*
X116437749Y-25387989D01*
X116437752Y-25387988D01*
X116443888Y-25387430D01*
X116449794Y-25385692D01*
X116449798Y-25385691D01*
X116580546Y-25347210D01*
X116633619Y-25331590D01*
X116639077Y-25328737D01*
X116639081Y-25328735D01*
X116764126Y-25263362D01*
X116808890Y-25239960D01*
X116963025Y-25116032D01*
X116998624Y-25073606D01*
X117057732Y-25034281D01*
X117128720Y-25033155D01*
X117177658Y-25059376D01*
X117181066Y-25062329D01*
X117188748Y-25064000D01*
X118261085Y-25064000D01*
X118276324Y-25059525D01*
X118277529Y-25058135D01*
X118279200Y-25050452D01*
X118279200Y-23050115D01*
X118274725Y-23034876D01*
X118273335Y-23033671D01*
X118265652Y-23032000D01*
X117216425Y-23032000D01*
X117201186Y-23036475D01*
X117198364Y-23039732D01*
X117174696Y-23091557D01*
X117114971Y-23129942D01*
X117043974Y-23129943D01*
X116981830Y-23088684D01*
X116976963Y-23082716D01*
X116976957Y-23082710D01*
X116973065Y-23077938D01*
X116964570Y-23070910D01*
X116825425Y-22955799D01*
X116825421Y-22955797D01*
X116820675Y-22951870D01*
X116646701Y-22857802D01*
X116457768Y-22799318D01*
X116451643Y-22798674D01*
X116451642Y-22798674D01*
X116267204Y-22779289D01*
X116267202Y-22779289D01*
X116261075Y-22778645D01*
X116178576Y-22786153D01*
X116070251Y-22796011D01*
X116070248Y-22796012D01*
X116064112Y-22796570D01*
X116058206Y-22798308D01*
X116058202Y-22798309D01*
X116015313Y-22810932D01*
X115874381Y-22852410D01*
X115868923Y-22855263D01*
X115868919Y-22855265D01*
X115788325Y-22897399D01*
X115699110Y-22944040D01*
X115544975Y-23067968D01*
X115417846Y-23219474D01*
X115414879Y-23224872D01*
X115414875Y-23224877D01*
X115360397Y-23323974D01*
X115322567Y-23392787D01*
X115320706Y-23398654D01*
X115320705Y-23398656D01*
X115272563Y-23550420D01*
X115262765Y-23581306D01*
X115245500Y-23735227D01*
X115245500Y-24441769D01*
X108622500Y-24441769D01*
X108622500Y-23742231D01*
X108621814Y-23735227D01*
X108610388Y-23618710D01*
X108608080Y-23595167D01*
X108605524Y-23586699D01*
X108576989Y-23492190D01*
X108550916Y-23405831D01*
X108458066Y-23231204D01*
X108348440Y-23096789D01*
X108336960Y-23082713D01*
X108336957Y-23082710D01*
X108333065Y-23077938D01*
X108324570Y-23070910D01*
X108185425Y-22955799D01*
X108185421Y-22955797D01*
X108180675Y-22951870D01*
X108006701Y-22857802D01*
X107817768Y-22799318D01*
X107811643Y-22798674D01*
X107811642Y-22798674D01*
X107627204Y-22779289D01*
X107627202Y-22779289D01*
X107621075Y-22778645D01*
X107538576Y-22786153D01*
X107430251Y-22796011D01*
X107430248Y-22796012D01*
X107424112Y-22796570D01*
X107418206Y-22798308D01*
X107418202Y-22798309D01*
X107375313Y-22810932D01*
X107234381Y-22852410D01*
X107228923Y-22855263D01*
X107228919Y-22855265D01*
X107148325Y-22897399D01*
X107059110Y-22944040D01*
X106904975Y-23067968D01*
X106904109Y-23066891D01*
X106847641Y-23096967D01*
X106776882Y-23091165D01*
X106727905Y-23057213D01*
X106709259Y-23036205D01*
X106694617Y-23032000D01*
X105248000Y-23032000D01*
X105179879Y-23011998D01*
X105133386Y-22958342D01*
X105122000Y-22906000D01*
X105122000Y-22650000D01*
X105142002Y-22581879D01*
X105195658Y-22535386D01*
X105248000Y-22524000D01*
X106694344Y-22524000D01*
X106707875Y-22520027D01*
X106709180Y-22510947D01*
X106667214Y-22343875D01*
X106663894Y-22334124D01*
X106606334Y-22201743D01*
X106597514Y-22131296D01*
X106628181Y-22067265D01*
X106688598Y-22029977D01*
X106721884Y-22025501D01*
X117187848Y-22025501D01*
X117255969Y-22045503D01*
G37*
%TD.AperFunction*%
M02*
