%TF.GenerationSoftware,KiCad,Pcbnew,(6.0.10)*%
%TF.CreationDate,2023-01-23T13:10:33-05:00*%
%TF.ProjectId,nfdb_mkii,6e666462-5f6d-46b6-9969-2e6b69636164,rev?*%
%TF.SameCoordinates,Original*%
%TF.FileFunction,Profile,NP*%
%FSLAX46Y46*%
G04 Gerber Fmt 4.6, Leading zero omitted, Abs format (unit mm)*
G04 Created by KiCad (PCBNEW (6.0.10)) date 2023-01-23 13:10:33*
%MOMM*%
%LPD*%
G01*
G04 APERTURE LIST*
%TA.AperFunction,Profile*%
%ADD10C,0.200000*%
%TD*%
G04 APERTURE END LIST*
D10*
X120964200Y-31617000D02*
G75*
G03*
X122964251Y-33617000I2000000J0D01*
G01*
X144699251Y-44467000D02*
X144699251Y-34617000D01*
X152590000Y-46275000D02*
X152590000Y-45467000D01*
X146605000Y-45467000D02*
X145699251Y-45467000D01*
X144699300Y-44467000D02*
G75*
G03*
X145699251Y-45467000I1000000J0D01*
G01*
X120233200Y-24023000D02*
X120233200Y-21517001D01*
X104338950Y-33617000D02*
X103478200Y-33617000D01*
X160964251Y-46275000D02*
X160964251Y-50000000D01*
X160964251Y-31517000D02*
X160964251Y-23517000D01*
X108818950Y-33617000D02*
X120233200Y-33617000D01*
X160964251Y-46275000D02*
X152590000Y-46275000D01*
X104338950Y-33617000D02*
X104338950Y-50000000D01*
X143699251Y-33617000D02*
X122964251Y-33617000D01*
X120982200Y-29823000D02*
X120233200Y-29823000D01*
X154964251Y-33516951D02*
G75*
G03*
X153964251Y-34517000I49J-1000049D01*
G01*
X146605000Y-45467000D02*
X146605000Y-46402000D01*
X103476000Y-21517001D02*
X120233200Y-21517001D01*
X103478200Y-33617000D02*
X103476000Y-21517000D01*
X108818950Y-46402000D02*
X146605000Y-46402000D01*
X158964251Y-33517000D02*
X154964251Y-33517000D01*
X160964251Y-50000000D02*
X104338950Y-50000000D01*
X160964300Y-23516999D02*
G75*
G03*
X158964251Y-21517000I-2000000J-1D01*
G01*
X152964251Y-45466951D02*
G75*
G03*
X153964251Y-44467000I49J999951D01*
G01*
X158964251Y-33516951D02*
G75*
G03*
X160964251Y-31517000I49J1999951D01*
G01*
X153964251Y-44467000D02*
X153964251Y-34517000D01*
X120982200Y-24023000D02*
X120964251Y-23517000D01*
X120233200Y-29823000D02*
X120233200Y-33617000D01*
X144699200Y-34617000D02*
G75*
G03*
X143699251Y-33617000I-1000000J0D01*
G01*
X120233200Y-24023000D02*
X120982200Y-24023000D01*
X152964251Y-45467000D02*
X152590000Y-45467000D01*
X120982200Y-29823000D02*
X120964252Y-31617000D01*
X108818950Y-46402000D02*
X108818950Y-33617000D01*
X122964250Y-21517051D02*
G75*
G03*
X120964251Y-23517000I-50J-1999949D01*
G01*
X122964250Y-21517001D02*
X158964251Y-21517000D01*
M02*
