M48
; DRILL file {KiCad (6.0.10)} date Mon Jan 23 13:10:31 2023
; FORMAT={-:-/ absolute / inch / decimal}
; #@! TF.CreationDate,2023-01-23T13:10:31-05:00
; #@! TF.GenerationSoftware,Kicad,Pcbnew,(6.0.10)
; #@! TF.FileFunction,NonPlated,1,2,NPTH
FMAT,2
INCH
; #@! TA.AperFunction,NonPlated,NPTH,ComponentDrill
T1C0.0256
; #@! TA.AperFunction,NonPlated,NPTH,ComponentDrill
T2C0.0310
%
G90
G05
T1
X4.2931Y-1.0922
X4.5206Y-1.0922
T2
X4.0974Y-1.3356
X4.0974Y-1.8069
X4.1474Y-1.3356
X4.1474Y-1.8069
X4.1974Y-1.3356
X4.1974Y-1.8069
X4.2474Y-1.3356
X4.2474Y-1.8069
X4.2974Y-1.3356
X4.2974Y-1.8069
X4.747Y-0.9833
X4.747Y-1.0333
X4.747Y-1.0833
X4.747Y-1.1333
X5.7619Y-1.8069
X5.8119Y-1.8069
X5.8619Y-1.8069
X5.9119Y-1.8069
X5.9619Y-1.8069
X6.0119Y-1.8069
T0
M30
