%TF.GenerationSoftware,KiCad,Pcbnew,(6.0.10)*%
%TF.CreationDate,2023-01-23T13:10:33-05:00*%
%TF.ProjectId,nfdb_mkii,6e666462-5f6d-46b6-9969-2e6b69636164,rev?*%
%TF.SameCoordinates,Original*%
%TF.FileFunction,Soldermask,Top*%
%TF.FilePolarity,Negative*%
%FSLAX46Y46*%
G04 Gerber Fmt 4.6, Leading zero omitted, Abs format (unit mm)*
G04 Created by KiCad (PCBNEW (6.0.10)) date 2023-01-23 13:10:33*
%MOMM*%
%LPD*%
G01*
G04 APERTURE LIST*
G04 Aperture macros list*
%AMRoundRect*
0 Rectangle with rounded corners*
0 $1 Rounding radius*
0 $2 $3 $4 $5 $6 $7 $8 $9 X,Y pos of 4 corners*
0 Add a 4 corners polygon primitive as box body*
4,1,4,$2,$3,$4,$5,$6,$7,$8,$9,$2,$3,0*
0 Add four circle primitives for the rounded corners*
1,1,$1+$1,$2,$3*
1,1,$1+$1,$4,$5*
1,1,$1+$1,$6,$7*
1,1,$1+$1,$8,$9*
0 Add four rect primitives between the rounded corners*
20,1,$1+$1,$2,$3,$4,$5,0*
20,1,$1+$1,$4,$5,$6,$7,0*
20,1,$1+$1,$6,$7,$8,$9,0*
20,1,$1+$1,$8,$9,$2,$3,0*%
G04 Aperture macros list end*
%ADD10R,1.200000X1.300000*%
%ADD11R,1.200000X0.600000*%
%ADD12C,0.787400*%
%ADD13R,1.700000X1.700000*%
%ADD14O,1.700000X1.700000*%
%ADD15C,0.650000*%
%ADD16R,0.600000X1.450000*%
%ADD17R,0.300000X1.450000*%
%ADD18O,1.000000X2.100000*%
%ADD19O,1.000000X1.600000*%
%ADD20O,5.000000X7.000000*%
%ADD21R,1.300000X1.000000*%
%ADD22R,1.300000X1.200000*%
%ADD23RoundRect,0.150000X-0.625000X0.150000X-0.625000X-0.150000X0.625000X-0.150000X0.625000X0.150000X0*%
%ADD24RoundRect,0.250000X-0.650000X0.350000X-0.650000X-0.350000X0.650000X-0.350000X0.650000X0.350000X0*%
%ADD25O,1.100000X2.100000*%
G04 APERTURE END LIST*
D10*
X158870251Y-31323000D03*
X156670251Y-31323000D03*
D11*
X128860251Y-30674500D03*
X128860251Y-31624500D03*
X128860251Y-32574500D03*
X131160251Y-32574500D03*
X131160251Y-31624500D03*
X131160251Y-30674500D03*
D12*
X104073950Y-33924000D03*
X107883950Y-33924000D03*
X109153950Y-33924000D03*
X105343950Y-33924000D03*
X106613950Y-33924000D03*
X120573200Y-24977000D03*
X120573200Y-28787000D03*
X120573200Y-26247000D03*
X120573200Y-27517000D03*
D13*
X118533200Y-25318000D03*
D14*
X118533200Y-22778000D03*
D13*
X147563451Y-25318000D03*
D14*
X147563451Y-22778000D03*
D15*
X114824000Y-27742000D03*
X109044000Y-27742000D03*
D16*
X115159000Y-29187000D03*
X114384000Y-29187000D03*
D17*
X113684000Y-29187000D03*
X113184000Y-29187000D03*
X112684000Y-29187000D03*
X112184000Y-29187000D03*
X111684000Y-29187000D03*
X111184000Y-29187000D03*
X110684000Y-29187000D03*
X110184000Y-29187000D03*
D16*
X109484000Y-29187000D03*
X108709000Y-29187000D03*
D18*
X107614000Y-28272000D03*
D19*
X116254000Y-24092000D03*
D18*
X116254000Y-28272000D03*
D19*
X107614000Y-24092000D03*
D12*
X104073950Y-45894000D03*
X106613950Y-45894000D03*
X107883950Y-45894000D03*
X105343950Y-45894000D03*
X109153950Y-45894000D03*
D20*
X154964251Y-26209000D03*
D21*
X130660251Y-22992001D03*
X130660251Y-25191999D03*
D12*
X147621000Y-45894000D03*
X152701000Y-45894000D03*
X146351000Y-45894000D03*
X148891000Y-45894000D03*
X150161000Y-45894000D03*
X151431000Y-45894000D03*
D22*
X105136200Y-27564000D03*
X105136200Y-29764000D03*
D13*
X134406251Y-25318000D03*
D14*
X134406251Y-22778000D03*
D13*
X110234000Y-32418000D03*
D14*
X112774000Y-32418000D03*
D13*
X105376000Y-25318000D03*
D14*
X105376000Y-22778000D03*
D23*
X149494000Y-38262000D03*
X149494000Y-39262000D03*
X149494000Y-40262000D03*
X149494000Y-41262000D03*
X149494000Y-42262000D03*
D24*
X145619000Y-36962000D03*
X145619000Y-43562000D03*
D13*
X139264251Y-32418000D03*
D14*
X141804251Y-32418000D03*
D20*
X126964251Y-26209000D03*
D22*
X118796800Y-27564000D03*
X118796800Y-29764000D03*
D25*
X145284251Y-28272000D03*
X136644251Y-28272000D03*
X136644251Y-24092000D03*
X145284251Y-24092000D03*
M02*
