%TF.GenerationSoftware,KiCad,Pcbnew,(6.0.10)*%
%TF.CreationDate,2023-01-23T13:10:32-05:00*%
%TF.ProjectId,nfdb_mkii,6e666462-5f6d-46b6-9969-2e6b69636164,rev?*%
%TF.SameCoordinates,Original*%
%TF.FileFunction,Copper,L2,Bot*%
%TF.FilePolarity,Positive*%
%FSLAX46Y46*%
G04 Gerber Fmt 4.6, Leading zero omitted, Abs format (unit mm)*
G04 Created by KiCad (PCBNEW (6.0.10)) date 2023-01-23 13:10:32*
%MOMM*%
%LPD*%
G01*
G04 APERTURE LIST*
%TA.AperFunction,ComponentPad*%
%ADD10R,1.700000X1.700000*%
%TD*%
%TA.AperFunction,ComponentPad*%
%ADD11O,1.700000X1.700000*%
%TD*%
%TA.AperFunction,ComponentPad*%
%ADD12O,1.000000X2.100000*%
%TD*%
%TA.AperFunction,ComponentPad*%
%ADD13O,1.000000X1.600000*%
%TD*%
%TA.AperFunction,ComponentPad*%
%ADD14O,5.000000X7.000000*%
%TD*%
%TA.AperFunction,ComponentPad*%
%ADD15O,1.100000X2.100000*%
%TD*%
%TA.AperFunction,ViaPad*%
%ADD16C,0.600000*%
%TD*%
%TA.AperFunction,Conductor*%
%ADD17C,0.500000*%
%TD*%
%TA.AperFunction,Conductor*%
%ADD18C,0.250000*%
%TD*%
G04 APERTURE END LIST*
D10*
X118533200Y-25318000D03*
D11*
X118533200Y-22778000D03*
D10*
X147563451Y-25318000D03*
D11*
X147563451Y-22778000D03*
D12*
X107614000Y-28272000D03*
D13*
X116254000Y-24092000D03*
D12*
X116254000Y-28272000D03*
D13*
X107614000Y-24092000D03*
D14*
X154964251Y-26209000D03*
D10*
X134406251Y-25318000D03*
D11*
X134406251Y-22778000D03*
D10*
X110234000Y-32418000D03*
D11*
X112774000Y-32418000D03*
D10*
X105376000Y-25318000D03*
D11*
X105376000Y-22778000D03*
D10*
X139264251Y-32418000D03*
D11*
X141804251Y-32418000D03*
D14*
X126964251Y-26209000D03*
D15*
X145284251Y-28272000D03*
X136644251Y-28272000D03*
X136644251Y-24092000D03*
X145284251Y-24092000D03*
D16*
X152936250Y-30569000D03*
X106600000Y-27860000D03*
X116826000Y-30844000D03*
X123099251Y-32432000D03*
X122210251Y-31543000D03*
X105076000Y-31924000D03*
X158913251Y-22399000D03*
X150034000Y-44539000D03*
X145970000Y-34972000D03*
X145316250Y-31585000D03*
X159802251Y-23492000D03*
X145970000Y-40262000D03*
X123099251Y-22399000D03*
X122210251Y-23492000D03*
X107168200Y-22441000D03*
X159802251Y-28317200D03*
X148510000Y-44539000D03*
X158913251Y-28317200D03*
X155222250Y-32855000D03*
X114384000Y-30418800D03*
X132528750Y-30914500D03*
X148002000Y-30914500D03*
X109185200Y-30427000D03*
X127155250Y-30823000D03*
X127174000Y-32249000D03*
X132489250Y-27902000D03*
X152066000Y-44116000D03*
D17*
X109193400Y-30418800D02*
X109185200Y-30427000D01*
X108818138Y-30427000D02*
X109185200Y-30427000D01*
X114384000Y-30418800D02*
X109193400Y-30418800D01*
X105376000Y-25318000D02*
X105330000Y-25364000D01*
X132528750Y-30887250D02*
X132938214Y-30477786D01*
X132528750Y-30914500D02*
X132528750Y-30887250D01*
X147571787Y-30477787D02*
X148002000Y-30908000D01*
X105330000Y-25364000D02*
X105330000Y-26938862D01*
X134352427Y-29892000D02*
X146157573Y-29892000D01*
X106208680Y-29060183D02*
X106696818Y-29548321D01*
X148002000Y-30908000D02*
X148002000Y-30914500D01*
X105330027Y-26938862D02*
G75*
G03*
X106208680Y-29060183I2999973J-38D01*
G01*
X147571801Y-30477773D02*
G75*
G03*
X146157573Y-29892000I-1414201J-1414227D01*
G01*
X134352427Y-29892020D02*
G75*
G03*
X132938215Y-30477787I-27J-1999980D01*
G01*
X108818138Y-30426973D02*
G75*
G02*
X106696818Y-29548321I-38J2999973D01*
G01*
D18*
X133739107Y-31200893D02*
X133562893Y-31377107D01*
X127709357Y-31377107D02*
X127155250Y-30823000D01*
X132855786Y-31670000D02*
X128416464Y-31670000D01*
X139880037Y-30908000D02*
X134446214Y-30908000D01*
X141804251Y-32418000D02*
X140587144Y-31200893D01*
X133562900Y-31377114D02*
G75*
G02*
X132855786Y-31670000I-707100J707114D01*
G01*
X140587125Y-31200912D02*
G75*
G03*
X139880037Y-30908000I-707125J-707088D01*
G01*
X128416464Y-31670025D02*
G75*
G02*
X127709358Y-31377106I36J1000025D01*
G01*
X133739100Y-31200886D02*
G75*
G02*
X134446214Y-30908000I707100J-707114D01*
G01*
X127174000Y-32249000D02*
X127207214Y-32282214D01*
X128621427Y-32868000D02*
X138814251Y-32868000D01*
X138814251Y-32868000D02*
X139264251Y-32418000D01*
X128621427Y-32867980D02*
G75*
G02*
X127207215Y-32282213I-27J1999980D01*
G01*
X152066000Y-44116000D02*
X152066000Y-35198641D01*
X130802198Y-27140000D02*
X127895251Y-27140000D01*
X132489250Y-27902000D02*
X132392625Y-27902000D01*
X132392625Y-27902000D02*
X132216411Y-27725786D01*
X127895251Y-27140000D02*
X126964251Y-26209000D01*
X154964251Y-29815108D02*
X154964251Y-26209000D01*
X152944680Y-33077320D02*
X154085572Y-31936428D01*
X130802198Y-27140002D02*
G75*
G02*
X132216411Y-27725786I2J-1999998D01*
G01*
X152066029Y-35198641D02*
G75*
G02*
X152944680Y-33077320I2999971J41D01*
G01*
X154964271Y-29815108D02*
G75*
G02*
X154085572Y-31936428I-2999971J8D01*
G01*
%TA.AperFunction,Conductor*%
G36*
X146286220Y-22045502D02*
G01*
X146332713Y-22099158D01*
X146342817Y-22169432D01*
X146332387Y-22204550D01*
X146286790Y-22302783D01*
X146283226Y-22312470D01*
X146227840Y-22512183D01*
X146229363Y-22520607D01*
X146241743Y-22524000D01*
X148881795Y-22524000D01*
X148895326Y-22520027D01*
X148896631Y-22510947D01*
X148854665Y-22343875D01*
X148851345Y-22334124D01*
X148793784Y-22201742D01*
X148784964Y-22131296D01*
X148815631Y-22067264D01*
X148876047Y-22029976D01*
X148909332Y-22025500D01*
X154272867Y-22025500D01*
X154340988Y-22045502D01*
X154387481Y-22099158D01*
X154397585Y-22169432D01*
X154368091Y-22234012D01*
X154308365Y-22272396D01*
X154299709Y-22274608D01*
X154299705Y-22274609D01*
X154153834Y-22306414D01*
X154150407Y-22307587D01*
X154150401Y-22307589D01*
X153926105Y-22384383D01*
X153825590Y-22418797D01*
X153512439Y-22568163D01*
X153509360Y-22570094D01*
X153509359Y-22570095D01*
X153447848Y-22608681D01*
X153218530Y-22752532D01*
X153215694Y-22754804D01*
X153215687Y-22754809D01*
X153027160Y-22905848D01*
X152947760Y-22969459D01*
X152703717Y-23216071D01*
X152701476Y-23218929D01*
X152493619Y-23484020D01*
X152489637Y-23489098D01*
X152487744Y-23492187D01*
X152487742Y-23492190D01*
X152441484Y-23567676D01*
X152308356Y-23784921D01*
X152306831Y-23788206D01*
X152306829Y-23788210D01*
X152259933Y-23889239D01*
X152162278Y-24099620D01*
X152119177Y-24229946D01*
X152096081Y-24299782D01*
X152053338Y-24429023D01*
X152052602Y-24432578D01*
X152052601Y-24432581D01*
X152008769Y-24644237D01*
X151982981Y-24768764D01*
X151974923Y-24859057D01*
X151956523Y-25065222D01*
X151955751Y-25073869D01*
X151955751Y-27297432D01*
X151955856Y-27299251D01*
X151955856Y-27299255D01*
X151968773Y-27523266D01*
X151970624Y-27555374D01*
X151971247Y-27558943D01*
X152026848Y-27877520D01*
X152030275Y-27897158D01*
X152031304Y-27900633D01*
X152031306Y-27900640D01*
X152047922Y-27956734D01*
X152128814Y-28229820D01*
X152130237Y-28233156D01*
X152130238Y-28233159D01*
X152258737Y-28534420D01*
X152264935Y-28548952D01*
X152266730Y-28552099D01*
X152266732Y-28552103D01*
X152359533Y-28714800D01*
X152436834Y-28850324D01*
X152642233Y-29129940D01*
X152644699Y-29132593D01*
X152644700Y-29132595D01*
X152654886Y-29143556D01*
X152878409Y-29384096D01*
X153142232Y-29609422D01*
X153430204Y-29802931D01*
X153738510Y-29962060D01*
X154063062Y-30084698D01*
X154191738Y-30117019D01*
X154252933Y-30153014D01*
X154284954Y-30216379D01*
X154285262Y-30260330D01*
X154272620Y-30334732D01*
X154269475Y-30348507D01*
X154250358Y-30414862D01*
X154207695Y-30562948D01*
X154199926Y-30589913D01*
X154195260Y-30603247D01*
X154175008Y-30652138D01*
X154099116Y-30835354D01*
X154092985Y-30848085D01*
X153971460Y-31067962D01*
X153963943Y-31079926D01*
X153818558Y-31284822D01*
X153809748Y-31295869D01*
X153665139Y-31457684D01*
X153665034Y-31457801D01*
X153647791Y-31473800D01*
X153639086Y-31480479D01*
X153617306Y-31507664D01*
X153617103Y-31507918D01*
X153607864Y-31518232D01*
X152534905Y-32591190D01*
X152521464Y-32602854D01*
X152502982Y-32616731D01*
X152493433Y-32626082D01*
X152491428Y-32628639D01*
X152490939Y-32628943D01*
X152491086Y-32629076D01*
X152253879Y-32890798D01*
X152252042Y-32893274D01*
X152252037Y-32893281D01*
X152043062Y-33175058D01*
X152041215Y-33177549D01*
X151857681Y-33483763D01*
X151809702Y-33585210D01*
X151706540Y-33803335D01*
X151705046Y-33806493D01*
X151704006Y-33809400D01*
X151704003Y-33809407D01*
X151653715Y-33949958D01*
X151584779Y-34142629D01*
X151498038Y-34488935D01*
X151497586Y-34491984D01*
X151497584Y-34491993D01*
X151446112Y-34839025D01*
X151446111Y-34839036D01*
X151445660Y-34842076D01*
X151445509Y-34845157D01*
X151445508Y-34845164D01*
X151429519Y-35170714D01*
X151428771Y-35178556D01*
X151428571Y-35181184D01*
X151427987Y-35185286D01*
X151427847Y-35198650D01*
X151431587Y-35229550D01*
X151432500Y-35244690D01*
X151432500Y-43569331D01*
X151412411Y-43637586D01*
X151341054Y-43748310D01*
X151341050Y-43748319D01*
X151337235Y-43754238D01*
X151334826Y-43760858D01*
X151334825Y-43760859D01*
X151277606Y-43918066D01*
X151275197Y-43924685D01*
X151252463Y-44104640D01*
X151270163Y-44285160D01*
X151327418Y-44457273D01*
X151331065Y-44463295D01*
X151331066Y-44463297D01*
X151407656Y-44589762D01*
X151421380Y-44612424D01*
X151426269Y-44617487D01*
X151426270Y-44617488D01*
X151488791Y-44682230D01*
X151547382Y-44742902D01*
X151553274Y-44746757D01*
X151553278Y-44746761D01*
X151577936Y-44762896D01*
X151623985Y-44816933D01*
X151633508Y-44887288D01*
X151603483Y-44951623D01*
X151543443Y-44989513D01*
X151495772Y-44993638D01*
X151490333Y-44993066D01*
X151481553Y-44992143D01*
X151481546Y-44992143D01*
X151478286Y-44991800D01*
X151383714Y-44991800D01*
X151272387Y-45003501D01*
X151248953Y-45005964D01*
X151248952Y-45005964D01*
X151242389Y-45006654D01*
X151236111Y-45008694D01*
X151236110Y-45008694D01*
X151206198Y-45018413D01*
X151062021Y-45065259D01*
X151056299Y-45068562D01*
X151056298Y-45068563D01*
X151004499Y-45098469D01*
X150897779Y-45160084D01*
X150880308Y-45175815D01*
X150816302Y-45206531D01*
X150745849Y-45197766D01*
X150711693Y-45175816D01*
X150694221Y-45160084D01*
X150587501Y-45098469D01*
X150535702Y-45068563D01*
X150535701Y-45068562D01*
X150529979Y-45065259D01*
X150385802Y-45018413D01*
X150355890Y-45008694D01*
X150355889Y-45008694D01*
X150349611Y-45006654D01*
X150343048Y-45005964D01*
X150343047Y-45005964D01*
X150319613Y-45003501D01*
X150208286Y-44991800D01*
X150113714Y-44991800D01*
X150002387Y-45003501D01*
X149978953Y-45005964D01*
X149978952Y-45005964D01*
X149972389Y-45006654D01*
X149966111Y-45008694D01*
X149966110Y-45008694D01*
X149936198Y-45018413D01*
X149792021Y-45065259D01*
X149786299Y-45068562D01*
X149786298Y-45068563D01*
X149734499Y-45098469D01*
X149627779Y-45160084D01*
X149610308Y-45175815D01*
X149546302Y-45206531D01*
X149475849Y-45197766D01*
X149441693Y-45175816D01*
X149424221Y-45160084D01*
X149317501Y-45098469D01*
X149265702Y-45068563D01*
X149265701Y-45068562D01*
X149259979Y-45065259D01*
X149115802Y-45018413D01*
X149085890Y-45008694D01*
X149085889Y-45008694D01*
X149079611Y-45006654D01*
X149073048Y-45005964D01*
X149073047Y-45005964D01*
X149049613Y-45003501D01*
X148938286Y-44991800D01*
X148843714Y-44991800D01*
X148732387Y-45003501D01*
X148708953Y-45005964D01*
X148708952Y-45005964D01*
X148702389Y-45006654D01*
X148696111Y-45008694D01*
X148696110Y-45008694D01*
X148666198Y-45018413D01*
X148522021Y-45065259D01*
X148516299Y-45068562D01*
X148516298Y-45068563D01*
X148464499Y-45098469D01*
X148357779Y-45160084D01*
X148340308Y-45175815D01*
X148276302Y-45206531D01*
X148205849Y-45197766D01*
X148171693Y-45175816D01*
X148154221Y-45160084D01*
X148047501Y-45098469D01*
X147995702Y-45068563D01*
X147995701Y-45068562D01*
X147989979Y-45065259D01*
X147845802Y-45018413D01*
X147815890Y-45008694D01*
X147815889Y-45008694D01*
X147809611Y-45006654D01*
X147803048Y-45005964D01*
X147803047Y-45005964D01*
X147779613Y-45003501D01*
X147668286Y-44991800D01*
X147573714Y-44991800D01*
X147462387Y-45003501D01*
X147438953Y-45005964D01*
X147438952Y-45005964D01*
X147432389Y-45006654D01*
X147426111Y-45008694D01*
X147426110Y-45008694D01*
X147396198Y-45018413D01*
X147252021Y-45065259D01*
X147246299Y-45068562D01*
X147246298Y-45068563D01*
X147128730Y-45136441D01*
X147059735Y-45153179D01*
X146992643Y-45129959D01*
X146982322Y-45121763D01*
X146974062Y-45114468D01*
X146962018Y-45102276D01*
X146948573Y-45086673D01*
X146948570Y-45086671D01*
X146942713Y-45079873D01*
X146921165Y-45065906D01*
X146906291Y-45054615D01*
X146893783Y-45043569D01*
X146893782Y-45043568D01*
X146887049Y-45037622D01*
X146860287Y-45025057D01*
X146845309Y-45016737D01*
X146828017Y-45005529D01*
X146828012Y-45005527D01*
X146820485Y-45000648D01*
X146811892Y-44998078D01*
X146811887Y-44998076D01*
X146795880Y-44993289D01*
X146778436Y-44986628D01*
X146763324Y-44979533D01*
X146763322Y-44979532D01*
X146755200Y-44975719D01*
X146746333Y-44974338D01*
X146746332Y-44974338D01*
X146736690Y-44972837D01*
X146725983Y-44971170D01*
X146709268Y-44967387D01*
X146689534Y-44961485D01*
X146689528Y-44961484D01*
X146680934Y-44958914D01*
X146671963Y-44958859D01*
X146671962Y-44958859D01*
X146661903Y-44958798D01*
X146646494Y-44958704D01*
X146645711Y-44958671D01*
X146644614Y-44958500D01*
X146613623Y-44958500D01*
X146612853Y-44958498D01*
X146539215Y-44958048D01*
X146539214Y-44958048D01*
X146535279Y-44958024D01*
X146533935Y-44958408D01*
X146532590Y-44958500D01*
X145748634Y-44958500D01*
X145729243Y-44956999D01*
X145714425Y-44954691D01*
X145705552Y-44953309D01*
X145696542Y-44954487D01*
X145696524Y-44954489D01*
X145666086Y-44954758D01*
X145604018Y-44947762D01*
X145576512Y-44941483D01*
X145542093Y-44929438D01*
X145499426Y-44914507D01*
X145474015Y-44902268D01*
X145404864Y-44858815D01*
X145382807Y-44841224D01*
X145325062Y-44783476D01*
X145307472Y-44761418D01*
X145264024Y-44692269D01*
X145251782Y-44666848D01*
X145243732Y-44643841D01*
X145224809Y-44589762D01*
X145218532Y-44562256D01*
X145212443Y-44508205D01*
X145212162Y-44483501D01*
X145212827Y-44479552D01*
X145212980Y-44467000D01*
X145209024Y-44439376D01*
X145207751Y-44421514D01*
X145207751Y-34670250D01*
X145209497Y-34649345D01*
X145212021Y-34634344D01*
X145212021Y-34634341D01*
X145212827Y-34629552D01*
X145212980Y-34617000D01*
X145210761Y-34601504D01*
X145209811Y-34592644D01*
X145196481Y-34406267D01*
X145196160Y-34401777D01*
X145150296Y-34190934D01*
X145074893Y-33988765D01*
X145069902Y-33979623D01*
X144986441Y-33826771D01*
X144971487Y-33799384D01*
X144842183Y-33626646D01*
X144702097Y-33486553D01*
X144692792Y-33477247D01*
X144689612Y-33474067D01*
X144516881Y-33344754D01*
X144327505Y-33241339D01*
X144125340Y-33165926D01*
X143914500Y-33120051D01*
X143910005Y-33119729D01*
X143910003Y-33119729D01*
X143739746Y-33107543D01*
X143727833Y-33106118D01*
X143727411Y-33106047D01*
X143711829Y-33103425D01*
X143706977Y-33103365D01*
X143706972Y-33103365D01*
X143705337Y-33103345D01*
X143699277Y-33103271D01*
X143694459Y-33103961D01*
X143694455Y-33103961D01*
X143671637Y-33107228D01*
X143653781Y-33108500D01*
X143181248Y-33108500D01*
X143113127Y-33088498D01*
X143066634Y-33034842D01*
X143056530Y-32964568D01*
X143067487Y-32929261D01*
X143067485Y-32929260D01*
X143067493Y-32929239D01*
X143068288Y-32926678D01*
X143069390Y-32924449D01*
X143069395Y-32924437D01*
X143071681Y-32919811D01*
X143115369Y-32776018D01*
X143135116Y-32711023D01*
X143135116Y-32711021D01*
X143136621Y-32706069D01*
X143165780Y-32484590D01*
X143165862Y-32481240D01*
X143167325Y-32421365D01*
X143167325Y-32421361D01*
X143167407Y-32418000D01*
X143149103Y-32195361D01*
X143094682Y-31978702D01*
X143005605Y-31773840D01*
X142931071Y-31658628D01*
X142887073Y-31590617D01*
X142887071Y-31590614D01*
X142884265Y-31586277D01*
X142733921Y-31421051D01*
X142729870Y-31417852D01*
X142729866Y-31417848D01*
X142562665Y-31285800D01*
X142562661Y-31285798D01*
X142558610Y-31282598D01*
X142527344Y-31265338D01*
X142503785Y-31252333D01*
X142363040Y-31174638D01*
X142358171Y-31172914D01*
X142358167Y-31172912D01*
X142157338Y-31101795D01*
X142157334Y-31101794D01*
X142152463Y-31100069D01*
X142147370Y-31099162D01*
X142147367Y-31099161D01*
X141937624Y-31061800D01*
X141937618Y-31061799D01*
X141932535Y-31060894D01*
X141858703Y-31059992D01*
X141714332Y-31058228D01*
X141714330Y-31058228D01*
X141709162Y-31058165D01*
X141488342Y-31091955D01*
X141475783Y-31096060D01*
X141404819Y-31098210D01*
X141347545Y-31065389D01*
X141147751Y-30865595D01*
X141113725Y-30803283D01*
X141118790Y-30732468D01*
X141161337Y-30675632D01*
X141227857Y-30650821D01*
X141236846Y-30650500D01*
X146101591Y-30650500D01*
X146117382Y-30651493D01*
X146146926Y-30655225D01*
X146167320Y-30653225D01*
X146189498Y-30653011D01*
X146341915Y-30665004D01*
X146361439Y-30668097D01*
X146392828Y-30675632D01*
X146531591Y-30708945D01*
X146550391Y-30715053D01*
X146712061Y-30782017D01*
X146729671Y-30790989D01*
X146878867Y-30882415D01*
X146894863Y-30894036D01*
X147002995Y-30986388D01*
X147015343Y-30999332D01*
X147015350Y-30999325D01*
X147020255Y-31004369D01*
X147024575Y-31009938D01*
X147030017Y-31014408D01*
X147030018Y-31014409D01*
X147057232Y-31036762D01*
X147066352Y-31045033D01*
X147237409Y-31216090D01*
X147261891Y-31251181D01*
X147263418Y-31255773D01*
X147279664Y-31282598D01*
X147349938Y-31398635D01*
X147357380Y-31410924D01*
X147362269Y-31415987D01*
X147362270Y-31415988D01*
X147395021Y-31449902D01*
X147483382Y-31541402D01*
X147502614Y-31553987D01*
X147608499Y-31623276D01*
X147635159Y-31640722D01*
X147641763Y-31643178D01*
X147641765Y-31643179D01*
X147798558Y-31701490D01*
X147798560Y-31701490D01*
X147805168Y-31703948D01*
X147888995Y-31715133D01*
X147977980Y-31727007D01*
X147977984Y-31727007D01*
X147984961Y-31727938D01*
X147991972Y-31727300D01*
X147991976Y-31727300D01*
X148134459Y-31714332D01*
X148165600Y-31711498D01*
X148172302Y-31709320D01*
X148172304Y-31709320D01*
X148331409Y-31657624D01*
X148331412Y-31657623D01*
X148338108Y-31655447D01*
X148460550Y-31582457D01*
X148487860Y-31566177D01*
X148487862Y-31566176D01*
X148493912Y-31562569D01*
X148625266Y-31437482D01*
X148725643Y-31286402D01*
X148774575Y-31157590D01*
X148787555Y-31123420D01*
X148787556Y-31123418D01*
X148790055Y-31116838D01*
X148792975Y-31096060D01*
X148814748Y-30941139D01*
X148814748Y-30941136D01*
X148815299Y-30937217D01*
X148815616Y-30914500D01*
X148795397Y-30734245D01*
X148793080Y-30727591D01*
X148738064Y-30569606D01*
X148738062Y-30569603D01*
X148735745Y-30562948D01*
X148639626Y-30409124D01*
X148572673Y-30341702D01*
X148516778Y-30285415D01*
X148516774Y-30285412D01*
X148511815Y-30280418D01*
X148500697Y-30273362D01*
X148364618Y-30187004D01*
X148364616Y-30187003D01*
X148358666Y-30183227D01*
X148358463Y-30183155D01*
X148328364Y-30161683D01*
X148152076Y-29985395D01*
X148140544Y-29972130D01*
X148128760Y-29956492D01*
X148128756Y-29956488D01*
X148126376Y-29953329D01*
X148111516Y-29938048D01*
X148106546Y-29934080D01*
X148096472Y-29926038D01*
X148090467Y-29920928D01*
X147911959Y-29759142D01*
X147909664Y-29757062D01*
X147907184Y-29755223D01*
X147907177Y-29755217D01*
X147705895Y-29605940D01*
X147691965Y-29595609D01*
X147656000Y-29574053D01*
X147462155Y-29457869D01*
X147462150Y-29457867D01*
X147459490Y-29456272D01*
X147214476Y-29340393D01*
X146959285Y-29249087D01*
X146946661Y-29245925D01*
X146699371Y-29183985D01*
X146699368Y-29183984D01*
X146696372Y-29183234D01*
X146693322Y-29182782D01*
X146693314Y-29182780D01*
X146511348Y-29155790D01*
X146428862Y-29143556D01*
X146364415Y-29113776D01*
X146326297Y-29053880D01*
X146324171Y-28994586D01*
X146324630Y-28993139D01*
X146342751Y-28831587D01*
X146342751Y-27719763D01*
X146342031Y-27712413D01*
X146328217Y-27571534D01*
X146328216Y-27571531D01*
X146327616Y-27565408D01*
X146286366Y-27428778D01*
X146269403Y-27372593D01*
X146269402Y-27372590D01*
X146267619Y-27366685D01*
X146254137Y-27341329D01*
X146173060Y-27188847D01*
X146173059Y-27188845D01*
X146170164Y-27183401D01*
X146110203Y-27109881D01*
X146042861Y-27027311D01*
X146042858Y-27027308D01*
X146038966Y-27022536D01*
X146032021Y-27016790D01*
X145912047Y-26917539D01*
X145879021Y-26890217D01*
X145873604Y-26887288D01*
X145873601Y-26887286D01*
X145701841Y-26794416D01*
X145701836Y-26794414D01*
X145696421Y-26791486D01*
X145498122Y-26730102D01*
X145491997Y-26729458D01*
X145491996Y-26729458D01*
X145297805Y-26709048D01*
X145297803Y-26709048D01*
X145291676Y-26708404D01*
X145205766Y-26716223D01*
X145091087Y-26726659D01*
X145091084Y-26726660D01*
X145084948Y-26727218D01*
X145079042Y-26728956D01*
X145079038Y-26728957D01*
X144966058Y-26762209D01*
X144885811Y-26785827D01*
X144701851Y-26881999D01*
X144540074Y-27012071D01*
X144536116Y-27016788D01*
X144536114Y-27016790D01*
X144484919Y-27077802D01*
X144406642Y-27171089D01*
X144403678Y-27176481D01*
X144403675Y-27176485D01*
X144319064Y-27330392D01*
X144306638Y-27352995D01*
X144243872Y-27550861D01*
X144243186Y-27556978D01*
X144243185Y-27556982D01*
X144234592Y-27633598D01*
X144225751Y-27712413D01*
X144225751Y-28824237D01*
X144226051Y-28827293D01*
X144226051Y-28827300D01*
X144236014Y-28928902D01*
X144240886Y-28978592D01*
X144242341Y-28983411D01*
X144235990Y-29053730D01*
X144192389Y-29109761D01*
X144118777Y-29133500D01*
X137809778Y-29133500D01*
X137741657Y-29113498D01*
X137695164Y-29059842D01*
X137685589Y-28993247D01*
X137684630Y-28993139D01*
X137692182Y-28925810D01*
X137702751Y-28831587D01*
X137702751Y-27719763D01*
X137702031Y-27712413D01*
X137688217Y-27571534D01*
X137688216Y-27571531D01*
X137687616Y-27565408D01*
X137646366Y-27428778D01*
X137629403Y-27372593D01*
X137629402Y-27372590D01*
X137627619Y-27366685D01*
X137614137Y-27341329D01*
X137533060Y-27188847D01*
X137533059Y-27188845D01*
X137530164Y-27183401D01*
X137470203Y-27109881D01*
X137402861Y-27027311D01*
X137402858Y-27027308D01*
X137398966Y-27022536D01*
X137392021Y-27016790D01*
X137272047Y-26917539D01*
X137239021Y-26890217D01*
X137233604Y-26887288D01*
X137233601Y-26887286D01*
X137061841Y-26794416D01*
X137061836Y-26794414D01*
X137056421Y-26791486D01*
X136858122Y-26730102D01*
X136851997Y-26729458D01*
X136851996Y-26729458D01*
X136657805Y-26709048D01*
X136657803Y-26709048D01*
X136651676Y-26708404D01*
X136565766Y-26716223D01*
X136451087Y-26726659D01*
X136451084Y-26726660D01*
X136444948Y-26727218D01*
X136439042Y-26728956D01*
X136439038Y-26728957D01*
X136326058Y-26762209D01*
X136245811Y-26785827D01*
X136061851Y-26881999D01*
X135900074Y-27012071D01*
X135896116Y-27016788D01*
X135896114Y-27016790D01*
X135844919Y-27077802D01*
X135766642Y-27171089D01*
X135763678Y-27176481D01*
X135763675Y-27176485D01*
X135679064Y-27330392D01*
X135666638Y-27352995D01*
X135603872Y-27550861D01*
X135603186Y-27556978D01*
X135603185Y-27556982D01*
X135594592Y-27633598D01*
X135585751Y-27712413D01*
X135585751Y-28824237D01*
X135586051Y-28827293D01*
X135586051Y-28827300D01*
X135596014Y-28928902D01*
X135600886Y-28978592D01*
X135602341Y-28983411D01*
X135595990Y-29053730D01*
X135552389Y-29109761D01*
X135478777Y-29133500D01*
X134414588Y-29133500D01*
X134397050Y-29132273D01*
X134377685Y-29129551D01*
X134377668Y-29129550D01*
X134373750Y-29128999D01*
X134363696Y-29128858D01*
X134356401Y-29128756D01*
X134356394Y-29128756D01*
X134352437Y-29128701D01*
X134332671Y-29130917D01*
X134324838Y-29131548D01*
X134183015Y-29138514D01*
X134084821Y-29143336D01*
X134084816Y-29143336D01*
X134081731Y-29143488D01*
X134078671Y-29143942D01*
X134078670Y-29143942D01*
X133816691Y-29182800D01*
X133816686Y-29182801D01*
X133813632Y-29183254D01*
X133810636Y-29184004D01*
X133810633Y-29184005D01*
X133563422Y-29245925D01*
X133550722Y-29249106D01*
X133436969Y-29289806D01*
X133298446Y-29339368D01*
X133298439Y-29339371D01*
X133295532Y-29340411D01*
X133292736Y-29341733D01*
X133292732Y-29341735D01*
X133217418Y-29377355D01*
X133050521Y-29456289D01*
X132818047Y-29595625D01*
X132815566Y-29597465D01*
X132602837Y-29755231D01*
X132602830Y-29755237D01*
X132600350Y-29757076D01*
X132475118Y-29870577D01*
X132470533Y-29874325D01*
X132469107Y-29875191D01*
X132460731Y-29882588D01*
X132451951Y-29891368D01*
X132447475Y-29895631D01*
X132437593Y-29904588D01*
X132428814Y-29911848D01*
X132413767Y-29923187D01*
X132398485Y-29938047D01*
X132396017Y-29941139D01*
X132396013Y-29941143D01*
X132376011Y-29966199D01*
X132366635Y-29976684D01*
X132147763Y-30195556D01*
X132124690Y-30213778D01*
X132033845Y-30269666D01*
X132033842Y-30269668D01*
X132027838Y-30273362D01*
X132022803Y-30278293D01*
X132022800Y-30278295D01*
X131903275Y-30395343D01*
X131898243Y-30400271D01*
X131799985Y-30552738D01*
X131797576Y-30559358D01*
X131797574Y-30559361D01*
X131751363Y-30686324D01*
X131737947Y-30723185D01*
X131715213Y-30903140D01*
X131715901Y-30910153D01*
X131715871Y-30912263D01*
X131694917Y-30980097D01*
X131640616Y-31025835D01*
X131589883Y-31036500D01*
X128466494Y-31036500D01*
X128450043Y-31035421D01*
X128430703Y-31032874D01*
X128423170Y-31031882D01*
X128415513Y-31032727D01*
X128385241Y-31032410D01*
X128338068Y-31026198D01*
X128306299Y-31017684D01*
X128248551Y-30993762D01*
X128220068Y-30977316D01*
X128185651Y-30950906D01*
X128172340Y-30939107D01*
X128169932Y-30936648D01*
X128165312Y-30930627D01*
X128137874Y-30908644D01*
X128127562Y-30899407D01*
X127989671Y-30761516D01*
X127955645Y-30699204D01*
X127953551Y-30686465D01*
X127950047Y-30655225D01*
X127948647Y-30642745D01*
X127906517Y-30521763D01*
X127891314Y-30478106D01*
X127891312Y-30478103D01*
X127888995Y-30471448D01*
X127853784Y-30415098D01*
X127796609Y-30323598D01*
X127792876Y-30317624D01*
X127777375Y-30302015D01*
X127743567Y-30239586D01*
X127748878Y-30168788D01*
X127791622Y-30112100D01*
X127825966Y-30094023D01*
X128099486Y-30000376D01*
X128102912Y-29999203D01*
X128416063Y-29849837D01*
X128709972Y-29665468D01*
X128712808Y-29663196D01*
X128712815Y-29663191D01*
X128977906Y-29450813D01*
X128980742Y-29448541D01*
X129177086Y-29250130D01*
X129222234Y-29204507D01*
X129222235Y-29204506D01*
X129224785Y-29201929D01*
X129270555Y-29143556D01*
X129436625Y-28931759D01*
X129436626Y-28931757D01*
X129438865Y-28928902D01*
X129485232Y-28853239D01*
X129570067Y-28714800D01*
X129620146Y-28633079D01*
X129624192Y-28624364D01*
X129732818Y-28390347D01*
X129766224Y-28318380D01*
X129854771Y-28050641D01*
X129874025Y-27992422D01*
X129874026Y-27992417D01*
X129875164Y-27988977D01*
X129878307Y-27973803D01*
X129897489Y-27881172D01*
X129898985Y-27873949D01*
X129932385Y-27811300D01*
X129994354Y-27776653D01*
X130022367Y-27773500D01*
X130752181Y-27773500D01*
X130768627Y-27774578D01*
X130787985Y-27777127D01*
X130787989Y-27777127D01*
X130795516Y-27778118D01*
X130813237Y-27776162D01*
X130835290Y-27775671D01*
X130922802Y-27781407D01*
X130972318Y-27784652D01*
X130988659Y-27786803D01*
X131147778Y-27818454D01*
X131163697Y-27822720D01*
X131280836Y-27862483D01*
X131314616Y-27873949D01*
X131317314Y-27874865D01*
X131332538Y-27881171D01*
X131478045Y-27952926D01*
X131492311Y-27961163D01*
X131528613Y-27985419D01*
X131627200Y-28051293D01*
X131640274Y-28061325D01*
X131684987Y-28100536D01*
X131721468Y-28155495D01*
X131750668Y-28243273D01*
X131754315Y-28249295D01*
X131754316Y-28249297D01*
X131807079Y-28336419D01*
X131844630Y-28398424D01*
X131970632Y-28528902D01*
X132122409Y-28628222D01*
X132129013Y-28630678D01*
X132129015Y-28630679D01*
X132285808Y-28688990D01*
X132285810Y-28688990D01*
X132292418Y-28691448D01*
X132376245Y-28702633D01*
X132465230Y-28714507D01*
X132465234Y-28714507D01*
X132472211Y-28715438D01*
X132479222Y-28714800D01*
X132479226Y-28714800D01*
X132621709Y-28701832D01*
X132652850Y-28698998D01*
X132659552Y-28696820D01*
X132659554Y-28696820D01*
X132818659Y-28645124D01*
X132818662Y-28645123D01*
X132825358Y-28642947D01*
X132963065Y-28560857D01*
X132975110Y-28553677D01*
X132975112Y-28553676D01*
X132981162Y-28550069D01*
X133112516Y-28424982D01*
X133212893Y-28273902D01*
X133261932Y-28144807D01*
X133274805Y-28110920D01*
X133274806Y-28110918D01*
X133277305Y-28104338D01*
X133279314Y-28090041D01*
X133301998Y-27928639D01*
X133301998Y-27928636D01*
X133302549Y-27924717D01*
X133302866Y-27902000D01*
X133282647Y-27721745D01*
X133279397Y-27712413D01*
X133225314Y-27557106D01*
X133225312Y-27557103D01*
X133222995Y-27550448D01*
X133194869Y-27505436D01*
X133130609Y-27402598D01*
X133126876Y-27396624D01*
X133103012Y-27372593D01*
X133004028Y-27272915D01*
X133004024Y-27272912D01*
X132999065Y-27267918D01*
X132845916Y-27170727D01*
X132801404Y-27154877D01*
X132681675Y-27112243D01*
X132681670Y-27112242D01*
X132675040Y-27109881D01*
X132668052Y-27109048D01*
X132668049Y-27109047D01*
X132494930Y-27088404D01*
X132495101Y-27086968D01*
X132430115Y-27066003D01*
X132348280Y-27007938D01*
X132205511Y-26906638D01*
X131946630Y-26763560D01*
X131673357Y-26650367D01*
X131389129Y-26568483D01*
X131097520Y-26518937D01*
X130883957Y-26506944D01*
X130884037Y-26505517D01*
X130882228Y-26505742D01*
X130882228Y-26506500D01*
X130879591Y-26506500D01*
X130876757Y-26506421D01*
X130876119Y-26506500D01*
X130876052Y-26506500D01*
X130872897Y-26506323D01*
X130872788Y-26506309D01*
X130872526Y-26506302D01*
X130833869Y-26504131D01*
X130823177Y-26503071D01*
X130819657Y-26502570D01*
X130819655Y-26502570D01*
X130815561Y-26501987D01*
X130808154Y-26501909D01*
X130806317Y-26501890D01*
X130806315Y-26501890D01*
X130802197Y-26501847D01*
X130798107Y-26502342D01*
X130798106Y-26502342D01*
X130796222Y-26502570D01*
X130771290Y-26505587D01*
X130756155Y-26506500D01*
X130098751Y-26506500D01*
X130030630Y-26486498D01*
X129984137Y-26432842D01*
X129972751Y-26380500D01*
X129972751Y-26216134D01*
X133047751Y-26216134D01*
X133054506Y-26278316D01*
X133105636Y-26414705D01*
X133192990Y-26531261D01*
X133309546Y-26618615D01*
X133445935Y-26669745D01*
X133508117Y-26676500D01*
X135304385Y-26676500D01*
X135366567Y-26669745D01*
X135502956Y-26618615D01*
X135619512Y-26531261D01*
X135706866Y-26414705D01*
X135757996Y-26278316D01*
X135764751Y-26216134D01*
X135764751Y-25505997D01*
X135784753Y-25437876D01*
X135838409Y-25391383D01*
X135908683Y-25381279D01*
X135971067Y-25408913D01*
X136049481Y-25473783D01*
X136054898Y-25476712D01*
X136054901Y-25476714D01*
X136226661Y-25569584D01*
X136226666Y-25569586D01*
X136232081Y-25572514D01*
X136430380Y-25633898D01*
X136436505Y-25634542D01*
X136436506Y-25634542D01*
X136630697Y-25654952D01*
X136630699Y-25654952D01*
X136636826Y-25655596D01*
X136722736Y-25647777D01*
X136837415Y-25637341D01*
X136837418Y-25637340D01*
X136843554Y-25636782D01*
X136849460Y-25635044D01*
X136849464Y-25635043D01*
X137017633Y-25585548D01*
X137042691Y-25578173D01*
X137226651Y-25482001D01*
X137388428Y-25351929D01*
X137393913Y-25345393D01*
X137517901Y-25197629D01*
X137521860Y-25192911D01*
X137524824Y-25187519D01*
X137524827Y-25187515D01*
X137618897Y-25016402D01*
X137621864Y-25011005D01*
X137684630Y-24813139D01*
X137685601Y-24804489D01*
X137702358Y-24655087D01*
X137702751Y-24651587D01*
X137702751Y-24644237D01*
X144225751Y-24644237D01*
X144226051Y-24647293D01*
X144226051Y-24647300D01*
X144239587Y-24785344D01*
X144240886Y-24798592D01*
X144280725Y-24930546D01*
X144290984Y-24964526D01*
X144300883Y-24997315D01*
X144303778Y-25002760D01*
X144303779Y-25002762D01*
X144366419Y-25120568D01*
X144398338Y-25180599D01*
X144437161Y-25228201D01*
X144525641Y-25336689D01*
X144525644Y-25336692D01*
X144529536Y-25341464D01*
X144534284Y-25345392D01*
X144534285Y-25345393D01*
X144611067Y-25408913D01*
X144689481Y-25473783D01*
X144694898Y-25476712D01*
X144694901Y-25476714D01*
X144866661Y-25569584D01*
X144866666Y-25569586D01*
X144872081Y-25572514D01*
X145070380Y-25633898D01*
X145076505Y-25634542D01*
X145076506Y-25634542D01*
X145270697Y-25654952D01*
X145270699Y-25654952D01*
X145276826Y-25655596D01*
X145362736Y-25647777D01*
X145477415Y-25637341D01*
X145477418Y-25637340D01*
X145483554Y-25636782D01*
X145489460Y-25635044D01*
X145489464Y-25635043D01*
X145657633Y-25585548D01*
X145682691Y-25578173D01*
X145866651Y-25482001D01*
X145871447Y-25478145D01*
X145871459Y-25478137D01*
X146000499Y-25374385D01*
X146066121Y-25347288D01*
X146135976Y-25359971D01*
X146187884Y-25408407D01*
X146205451Y-25472581D01*
X146205452Y-26212669D01*
X146205822Y-26219490D01*
X146211346Y-26270352D01*
X146214972Y-26285604D01*
X146260127Y-26406054D01*
X146268665Y-26421649D01*
X146345166Y-26523724D01*
X146357727Y-26536285D01*
X146459802Y-26612786D01*
X146475397Y-26621324D01*
X146595845Y-26666478D01*
X146611100Y-26670105D01*
X146661965Y-26675631D01*
X146668779Y-26676000D01*
X147291336Y-26676000D01*
X147306575Y-26671525D01*
X147307780Y-26670135D01*
X147309451Y-26662452D01*
X147309451Y-26657884D01*
X147817451Y-26657884D01*
X147821926Y-26673123D01*
X147823316Y-26674328D01*
X147830999Y-26675999D01*
X148458120Y-26675999D01*
X148464941Y-26675629D01*
X148515803Y-26670105D01*
X148531055Y-26666479D01*
X148651505Y-26621324D01*
X148667100Y-26612786D01*
X148769175Y-26536285D01*
X148781736Y-26523724D01*
X148858237Y-26421649D01*
X148866775Y-26406054D01*
X148911929Y-26285606D01*
X148915556Y-26270351D01*
X148921082Y-26219486D01*
X148921451Y-26212672D01*
X148921451Y-25590115D01*
X148916976Y-25574876D01*
X148915586Y-25573671D01*
X148907903Y-25572000D01*
X147835566Y-25572000D01*
X147820327Y-25576475D01*
X147819122Y-25577865D01*
X147817451Y-25585548D01*
X147817451Y-26657884D01*
X147309451Y-26657884D01*
X147309451Y-25045885D01*
X147817451Y-25045885D01*
X147821926Y-25061124D01*
X147823316Y-25062329D01*
X147830999Y-25064000D01*
X148903335Y-25064000D01*
X148918574Y-25059525D01*
X148919779Y-25058135D01*
X148921450Y-25050452D01*
X148921450Y-24423331D01*
X148921080Y-24416510D01*
X148915556Y-24365648D01*
X148911930Y-24350396D01*
X148866775Y-24229946D01*
X148858237Y-24214351D01*
X148781736Y-24112276D01*
X148769175Y-24099715D01*
X148667100Y-24023214D01*
X148651505Y-24014676D01*
X148540748Y-23973155D01*
X148483984Y-23930513D01*
X148459284Y-23863952D01*
X148474491Y-23794603D01*
X148496038Y-23765922D01*
X148597508Y-23664805D01*
X148604181Y-23656965D01*
X148728454Y-23484020D01*
X148733764Y-23475183D01*
X148828121Y-23284267D01*
X148831920Y-23274672D01*
X148893828Y-23070910D01*
X148896006Y-23060837D01*
X148897437Y-23049962D01*
X148895226Y-23035778D01*
X148882068Y-23032000D01*
X147835566Y-23032000D01*
X147820327Y-23036475D01*
X147819122Y-23037865D01*
X147817451Y-23045548D01*
X147817451Y-25045885D01*
X147309451Y-25045885D01*
X147309451Y-23050115D01*
X147304976Y-23034876D01*
X147303586Y-23033671D01*
X147295903Y-23032000D01*
X146253318Y-23032000D01*
X146185197Y-23011998D01*
X146155675Y-22985635D01*
X146042865Y-22847316D01*
X146042860Y-22847311D01*
X146038966Y-22842536D01*
X146032021Y-22836790D01*
X145883769Y-22714145D01*
X145883770Y-22714145D01*
X145879021Y-22710217D01*
X145873604Y-22707288D01*
X145873601Y-22707286D01*
X145701841Y-22614416D01*
X145701836Y-22614414D01*
X145696421Y-22611486D01*
X145498122Y-22550102D01*
X145491997Y-22549458D01*
X145491996Y-22549458D01*
X145297805Y-22529048D01*
X145297803Y-22529048D01*
X145291676Y-22528404D01*
X145214958Y-22535386D01*
X145091087Y-22546659D01*
X145091084Y-22546660D01*
X145084948Y-22547218D01*
X145079042Y-22548956D01*
X145079038Y-22548957D01*
X144931183Y-22592473D01*
X144885811Y-22605827D01*
X144701851Y-22701999D01*
X144540074Y-22832071D01*
X144536116Y-22836788D01*
X144536114Y-22836790D01*
X144491877Y-22889510D01*
X144406642Y-22991089D01*
X144403678Y-22996481D01*
X144403675Y-22996485D01*
X144330307Y-23129942D01*
X144306638Y-23172995D01*
X144243872Y-23370861D01*
X144243186Y-23376978D01*
X144243185Y-23376982D01*
X144237338Y-23429112D01*
X144225751Y-23532413D01*
X144225751Y-24644237D01*
X137702751Y-24644237D01*
X137702751Y-23539763D01*
X137702031Y-23532413D01*
X137688217Y-23391534D01*
X137688216Y-23391531D01*
X137687616Y-23385408D01*
X137639150Y-23224877D01*
X137629403Y-23192593D01*
X137629402Y-23192590D01*
X137627619Y-23186685D01*
X137617470Y-23167598D01*
X137533060Y-23008847D01*
X137533059Y-23008845D01*
X137530164Y-23003401D01*
X137437265Y-22889495D01*
X137402861Y-22847311D01*
X137402858Y-22847308D01*
X137398966Y-22842536D01*
X137392021Y-22836790D01*
X137243769Y-22714145D01*
X137243770Y-22714145D01*
X137239021Y-22710217D01*
X137233604Y-22707288D01*
X137233601Y-22707286D01*
X137061841Y-22614416D01*
X137061836Y-22614414D01*
X137056421Y-22611486D01*
X136858122Y-22550102D01*
X136851997Y-22549458D01*
X136851996Y-22549458D01*
X136657805Y-22529048D01*
X136657803Y-22529048D01*
X136651676Y-22528404D01*
X136574958Y-22535386D01*
X136451087Y-22546659D01*
X136451084Y-22546660D01*
X136444948Y-22547218D01*
X136439042Y-22548956D01*
X136439038Y-22548957D01*
X136291183Y-22592473D01*
X136245811Y-22605827D01*
X136061851Y-22701999D01*
X135900074Y-22832071D01*
X135770601Y-22986371D01*
X135770081Y-22986991D01*
X135710971Y-23026318D01*
X135673559Y-23032000D01*
X133089476Y-23032000D01*
X133075945Y-23035973D01*
X133074508Y-23045966D01*
X133104816Y-23180446D01*
X133107896Y-23190275D01*
X133188021Y-23387603D01*
X133192664Y-23396794D01*
X133303945Y-23578388D01*
X133310028Y-23586699D01*
X133449464Y-23747667D01*
X133456828Y-23754879D01*
X133461773Y-23758985D01*
X133501407Y-23817889D01*
X133502904Y-23888870D01*
X133465788Y-23949392D01*
X133425515Y-23973910D01*
X133317956Y-24014232D01*
X133317955Y-24014233D01*
X133309546Y-24017385D01*
X133192990Y-24104739D01*
X133105636Y-24221295D01*
X133054506Y-24357684D01*
X133047751Y-24419866D01*
X133047751Y-26216134D01*
X129972751Y-26216134D01*
X129972751Y-25120568D01*
X129972510Y-25116384D01*
X129958087Y-24866246D01*
X129958086Y-24866241D01*
X129957878Y-24862626D01*
X129913537Y-24608564D01*
X129898851Y-24524415D01*
X129898849Y-24524408D01*
X129898227Y-24520842D01*
X129895714Y-24512356D01*
X129848563Y-24353179D01*
X129799688Y-24188180D01*
X129789353Y-24163949D01*
X129664991Y-23872386D01*
X129664989Y-23872383D01*
X129663567Y-23869048D01*
X129660661Y-23863952D01*
X129493459Y-23570816D01*
X129491668Y-23567676D01*
X129468354Y-23535937D01*
X129357778Y-23385408D01*
X129286269Y-23288060D01*
X129282745Y-23284267D01*
X129080746Y-23066891D01*
X129050093Y-23033904D01*
X128786270Y-22808578D01*
X128498298Y-22615069D01*
X128353363Y-22540262D01*
X128193212Y-22457602D01*
X128189992Y-22455940D01*
X127865440Y-22333302D01*
X127861919Y-22332418D01*
X127861914Y-22332416D01*
X127628174Y-22273705D01*
X127566978Y-22237710D01*
X127534957Y-22174345D01*
X127542277Y-22103727D01*
X127586615Y-22048276D01*
X127658869Y-22025501D01*
X133060899Y-22025501D01*
X133129020Y-22045503D01*
X133175513Y-22099159D01*
X133185617Y-22169433D01*
X133175187Y-22204551D01*
X133129589Y-22302783D01*
X133126026Y-22312470D01*
X133070640Y-22512183D01*
X133072163Y-22520607D01*
X133084543Y-22524000D01*
X135724595Y-22524000D01*
X135738126Y-22520027D01*
X135739431Y-22510947D01*
X135697465Y-22343875D01*
X135694145Y-22334124D01*
X135636585Y-22201743D01*
X135627765Y-22131296D01*
X135658432Y-22067265D01*
X135718849Y-22029977D01*
X135752135Y-22025501D01*
X140994967Y-22025500D01*
X146218100Y-22025500D01*
X146286220Y-22045502D01*
G37*
%TD.AperFunction*%
%TA.AperFunction,Conductor*%
G36*
X158934279Y-22027000D02*
G01*
X158957988Y-22030691D01*
X158973244Y-22028696D01*
X158998567Y-22027953D01*
X159017533Y-22029309D01*
X159167543Y-22040034D01*
X159185332Y-22042592D01*
X159375669Y-22083993D01*
X159392916Y-22089057D01*
X159575421Y-22157124D01*
X159591774Y-22164591D01*
X159762743Y-22257943D01*
X159777857Y-22267656D01*
X159933797Y-22384387D01*
X159947378Y-22396155D01*
X160071834Y-22520607D01*
X160085114Y-22533887D01*
X160096888Y-22547473D01*
X160112376Y-22568163D01*
X160213622Y-22703410D01*
X160223341Y-22718534D01*
X160316695Y-22889495D01*
X160324163Y-22905848D01*
X160392232Y-23088345D01*
X160397297Y-23105594D01*
X160421331Y-23216071D01*
X160436414Y-23285405D01*
X160438702Y-23295924D01*
X160441261Y-23313717D01*
X160444451Y-23358326D01*
X160452823Y-23475385D01*
X160452032Y-23494431D01*
X160451941Y-23501852D01*
X160450560Y-23510723D01*
X160451724Y-23519625D01*
X160451724Y-23519627D01*
X160453022Y-23529551D01*
X160454358Y-23539763D01*
X160454687Y-23542282D01*
X160455751Y-23558620D01*
X160455751Y-31467633D01*
X160454251Y-31487018D01*
X160451941Y-31501851D01*
X160451941Y-31501855D01*
X160450560Y-31510724D01*
X160452555Y-31525976D01*
X160453298Y-31551302D01*
X160441795Y-31712137D01*
X160441213Y-31720273D01*
X160438655Y-31738064D01*
X160397251Y-31928390D01*
X160392186Y-31945639D01*
X160324116Y-32128137D01*
X160316649Y-32144487D01*
X160261954Y-32244653D01*
X160223302Y-32315437D01*
X160213584Y-32330559D01*
X160138701Y-32430590D01*
X160096852Y-32486493D01*
X160085078Y-32500079D01*
X159947347Y-32637807D01*
X159933767Y-32649575D01*
X159777830Y-32766304D01*
X159762713Y-32776018D01*
X159651897Y-32836526D01*
X159597296Y-32866340D01*
X159591761Y-32869362D01*
X159575410Y-32876830D01*
X159393734Y-32944587D01*
X159392903Y-32944897D01*
X159375656Y-32949961D01*
X159185325Y-32991360D01*
X159167536Y-32993918D01*
X159005448Y-33005507D01*
X158988387Y-33004797D01*
X158988387Y-33004801D01*
X158979413Y-33004691D01*
X158970540Y-33003309D01*
X158961637Y-33004473D01*
X158961636Y-33004473D01*
X158938965Y-33007437D01*
X158922631Y-33008500D01*
X155017487Y-33008500D01*
X154996589Y-33006755D01*
X154981577Y-33004230D01*
X154981575Y-33004230D01*
X154976778Y-33003423D01*
X154971914Y-33003364D01*
X154971913Y-33003364D01*
X154970274Y-33003344D01*
X154964226Y-33003271D01*
X154950473Y-33005241D01*
X154950148Y-33005288D01*
X154941274Y-33006241D01*
X154748996Y-33020002D01*
X154744595Y-33020960D01*
X154744592Y-33020960D01*
X154542556Y-33064919D01*
X154542554Y-33064919D01*
X154538149Y-33065878D01*
X154533929Y-33067452D01*
X154533926Y-33067453D01*
X154340192Y-33139720D01*
X154340188Y-33139722D01*
X154335976Y-33141293D01*
X154146594Y-33244712D01*
X153973857Y-33374029D01*
X153821281Y-33526613D01*
X153818584Y-33530216D01*
X153694667Y-33695755D01*
X153694664Y-33695760D01*
X153691972Y-33699356D01*
X153588562Y-33888744D01*
X153586990Y-33892959D01*
X153586989Y-33892961D01*
X153576769Y-33920364D01*
X153513157Y-34090920D01*
X153467291Y-34301769D01*
X153466970Y-34306259D01*
X153454239Y-34484271D01*
X153453059Y-34494671D01*
X153451941Y-34501847D01*
X153451941Y-34501856D01*
X153450560Y-34510724D01*
X153451724Y-34519626D01*
X153451724Y-34519628D01*
X153454687Y-34542283D01*
X153455751Y-34558621D01*
X153455751Y-44417633D01*
X153454251Y-44437018D01*
X153450560Y-44460724D01*
X153451724Y-44469626D01*
X153451740Y-44469750D01*
X153452011Y-44500192D01*
X153445019Y-44562252D01*
X153438741Y-44589759D01*
X153421516Y-44638982D01*
X153411768Y-44666840D01*
X153399526Y-44692259D01*
X153367704Y-44742902D01*
X153356079Y-44761402D01*
X153338487Y-44783460D01*
X153309609Y-44812337D01*
X153280741Y-44841203D01*
X153258683Y-44858792D01*
X153189540Y-44902236D01*
X153164119Y-44914477D01*
X153121359Y-44929438D01*
X153087037Y-44941446D01*
X153059535Y-44947722D01*
X153003669Y-44954014D01*
X152988031Y-44954796D01*
X152979422Y-44954691D01*
X152970552Y-44953309D01*
X152946324Y-44956476D01*
X152938972Y-44957437D01*
X152922641Y-44958500D01*
X152668762Y-44958500D01*
X152600641Y-44938498D01*
X152554148Y-44884842D01*
X152544044Y-44814568D01*
X152573538Y-44749988D01*
X152581870Y-44741254D01*
X152633309Y-44692269D01*
X152689266Y-44638982D01*
X152789643Y-44487902D01*
X152854055Y-44318338D01*
X152855035Y-44311366D01*
X152878748Y-44142639D01*
X152878748Y-44142636D01*
X152879299Y-44138717D01*
X152879616Y-44116000D01*
X152859397Y-43935745D01*
X152857080Y-43929091D01*
X152802064Y-43771106D01*
X152802062Y-43771103D01*
X152799745Y-43764448D01*
X152718646Y-43634661D01*
X152699500Y-43567892D01*
X152699500Y-35248651D01*
X152700578Y-35232206D01*
X152703127Y-35212847D01*
X152703127Y-35212843D01*
X152704118Y-35205315D01*
X152701978Y-35185932D01*
X152701415Y-35165041D01*
X152714008Y-34940734D01*
X152715589Y-34926701D01*
X152750786Y-34719531D01*
X152757670Y-34679015D01*
X152760814Y-34665240D01*
X152830360Y-34423828D01*
X152835027Y-34410491D01*
X152931164Y-34178390D01*
X152937294Y-34165660D01*
X153011886Y-34030691D01*
X153058818Y-33945771D01*
X153066333Y-33933811D01*
X153072366Y-33925309D01*
X153211709Y-33728920D01*
X153220516Y-33717875D01*
X153248357Y-33686721D01*
X153365232Y-33555935D01*
X153382478Y-33539933D01*
X153385150Y-33537883D01*
X153391176Y-33533259D01*
X153395922Y-33527335D01*
X153395925Y-33527332D01*
X153413156Y-33505823D01*
X153422396Y-33495508D01*
X154495341Y-32422564D01*
X154508785Y-32410898D01*
X154523950Y-32399512D01*
X154523956Y-32399507D01*
X154527259Y-32397027D01*
X154536808Y-32387676D01*
X154538809Y-32385124D01*
X154539295Y-32384822D01*
X154539149Y-32384690D01*
X154601918Y-32315437D01*
X154776371Y-32122963D01*
X154989043Y-31836215D01*
X155172584Y-31530002D01*
X155174489Y-31525976D01*
X155313721Y-31231600D01*
X155325227Y-31207273D01*
X155377279Y-31061800D01*
X155444458Y-30874052D01*
X155444460Y-30874045D01*
X155445501Y-30871136D01*
X155452827Y-30841892D01*
X155531497Y-30527831D01*
X155532249Y-30524829D01*
X155541055Y-30465469D01*
X155564299Y-30308771D01*
X155574726Y-30238478D01*
X155604507Y-30174029D01*
X155664404Y-30135913D01*
X155672520Y-30133858D01*
X155771123Y-30112359D01*
X155771124Y-30112359D01*
X155774668Y-30111586D01*
X155778095Y-30110413D01*
X155778101Y-30110411D01*
X156099486Y-30000376D01*
X156102912Y-29999203D01*
X156416063Y-29849837D01*
X156709972Y-29665468D01*
X156712808Y-29663196D01*
X156712815Y-29663191D01*
X156977906Y-29450813D01*
X156980742Y-29448541D01*
X157177086Y-29250130D01*
X157222234Y-29204507D01*
X157222235Y-29204506D01*
X157224785Y-29201929D01*
X157270555Y-29143556D01*
X157436625Y-28931759D01*
X157436626Y-28931757D01*
X157438865Y-28928902D01*
X157485232Y-28853239D01*
X157570067Y-28714800D01*
X157620146Y-28633079D01*
X157624192Y-28624364D01*
X157732818Y-28390347D01*
X157766224Y-28318380D01*
X157854771Y-28050641D01*
X157874025Y-27992422D01*
X157874026Y-27992417D01*
X157875164Y-27988977D01*
X157878307Y-27973803D01*
X157944786Y-27652786D01*
X157944786Y-27652783D01*
X157945521Y-27649236D01*
X157965027Y-27430673D01*
X157972502Y-27346924D01*
X157972502Y-27346918D01*
X157972751Y-27344131D01*
X157972751Y-25120568D01*
X157972510Y-25116384D01*
X157958087Y-24866246D01*
X157958086Y-24866241D01*
X157957878Y-24862626D01*
X157913537Y-24608564D01*
X157898851Y-24524415D01*
X157898849Y-24524408D01*
X157898227Y-24520842D01*
X157895714Y-24512356D01*
X157848563Y-24353179D01*
X157799688Y-24188180D01*
X157789353Y-24163949D01*
X157664991Y-23872386D01*
X157664989Y-23872383D01*
X157663567Y-23869048D01*
X157660661Y-23863952D01*
X157493459Y-23570816D01*
X157491668Y-23567676D01*
X157468354Y-23535937D01*
X157357778Y-23385408D01*
X157286269Y-23288060D01*
X157282745Y-23284267D01*
X157080746Y-23066891D01*
X157050093Y-23033904D01*
X156786270Y-22808578D01*
X156498298Y-22615069D01*
X156353363Y-22540262D01*
X156193212Y-22457602D01*
X156189992Y-22455940D01*
X155865440Y-22333302D01*
X155861919Y-22332418D01*
X155861914Y-22332416D01*
X155628170Y-22273704D01*
X155566974Y-22237709D01*
X155534953Y-22174344D01*
X155542273Y-22103726D01*
X155586611Y-22048275D01*
X155658865Y-22025500D01*
X158914897Y-22025500D01*
X158934279Y-22027000D01*
G37*
%TD.AperFunction*%
%TA.AperFunction,Conductor*%
G36*
X104186998Y-26549442D02*
G01*
X104279295Y-26618615D01*
X104415684Y-26669745D01*
X104423536Y-26670598D01*
X104423540Y-26670599D01*
X104451478Y-26673633D01*
X104459108Y-26674462D01*
X104524669Y-26701703D01*
X104565096Y-26760066D01*
X104571500Y-26799725D01*
X104571500Y-26876701D01*
X104570274Y-26894238D01*
X104568068Y-26909936D01*
X104566999Y-26917539D01*
X104566701Y-26938852D01*
X104567596Y-26946828D01*
X104568261Y-26952762D01*
X104568926Y-26961309D01*
X104579206Y-27196816D01*
X104582258Y-27266739D01*
X104625092Y-27592130D01*
X104625683Y-27594795D01*
X104625684Y-27594802D01*
X104654069Y-27722845D01*
X104696124Y-27912550D01*
X104696945Y-27915155D01*
X104696948Y-27915165D01*
X104729271Y-28017682D01*
X104794812Y-28225560D01*
X104920405Y-28528777D01*
X104921673Y-28531213D01*
X104921674Y-28531215D01*
X104930907Y-28548952D01*
X105071947Y-28819894D01*
X105248285Y-29096696D01*
X105249947Y-29098862D01*
X105249954Y-29098872D01*
X105337993Y-29213608D01*
X105448077Y-29357075D01*
X105449937Y-29359105D01*
X105449943Y-29359112D01*
X105610781Y-29534640D01*
X105612129Y-29536137D01*
X105612179Y-29536190D01*
X105613464Y-29537645D01*
X105613438Y-29537668D01*
X105614029Y-29538836D01*
X105614354Y-29538538D01*
X105638388Y-29564767D01*
X105646110Y-29574053D01*
X105651701Y-29581472D01*
X105651705Y-29581477D01*
X105654082Y-29584631D01*
X105668941Y-29599912D01*
X105672033Y-29602380D01*
X105672037Y-29602384D01*
X105697093Y-29622386D01*
X105707578Y-29631762D01*
X106116529Y-30040713D01*
X106128061Y-30053978D01*
X106142229Y-30072779D01*
X106144992Y-30075620D01*
X106153820Y-30084698D01*
X106157089Y-30088060D01*
X106167740Y-30096562D01*
X106174238Y-30102122D01*
X106399926Y-30308924D01*
X106488940Y-30377226D01*
X106658129Y-30507047D01*
X106658139Y-30507054D01*
X106660305Y-30508716D01*
X106937107Y-30685054D01*
X107035940Y-30736502D01*
X107151339Y-30796573D01*
X107228224Y-30836596D01*
X107531441Y-30962189D01*
X107534060Y-30963015D01*
X107534069Y-30963018D01*
X107634776Y-30994769D01*
X107844451Y-31060876D01*
X107847120Y-31061468D01*
X107847125Y-31061469D01*
X108162198Y-31131316D01*
X108162206Y-31131317D01*
X108164870Y-31131908D01*
X108490261Y-31174742D01*
X108493011Y-31174862D01*
X108493022Y-31174863D01*
X108661292Y-31182208D01*
X108729461Y-31185183D01*
X108731679Y-31185300D01*
X108734902Y-31185500D01*
X108736635Y-31185500D01*
X108737197Y-31185521D01*
X108761024Y-31186561D01*
X108771414Y-31187014D01*
X108783440Y-31188119D01*
X108796835Y-31190001D01*
X108801920Y-31190072D01*
X108802547Y-31190081D01*
X108803025Y-31190229D01*
X108804744Y-31190361D01*
X108804714Y-31190750D01*
X108870381Y-31211036D01*
X108916117Y-31265338D01*
X108925235Y-31335747D01*
X108918763Y-31360298D01*
X108885029Y-31450282D01*
X108885027Y-31450288D01*
X108882255Y-31457684D01*
X108875500Y-31519866D01*
X108875500Y-32974300D01*
X108855498Y-33042421D01*
X108801842Y-33088914D01*
X108794488Y-33091777D01*
X108791248Y-33093219D01*
X108784971Y-33095259D01*
X108779256Y-33098559D01*
X108774107Y-33100851D01*
X108749206Y-33107945D01*
X108749229Y-33108024D01*
X108720797Y-33116150D01*
X108704035Y-33119728D01*
X108674763Y-33123920D01*
X108666595Y-33127634D01*
X108666594Y-33127634D01*
X108651388Y-33134548D01*
X108633864Y-33140996D01*
X108609179Y-33148051D01*
X108601585Y-33152843D01*
X108601582Y-33152844D01*
X108584170Y-33163830D01*
X108569087Y-33171969D01*
X108542168Y-33184208D01*
X108540524Y-33185624D01*
X108475646Y-33204516D01*
X108412930Y-33187635D01*
X108258652Y-33098563D01*
X108258651Y-33098562D01*
X108252929Y-33095259D01*
X108107767Y-33048093D01*
X108078840Y-33038694D01*
X108078839Y-33038694D01*
X108072561Y-33036654D01*
X108065998Y-33035964D01*
X108065997Y-33035964D01*
X108042563Y-33033501D01*
X107931236Y-33021800D01*
X107836664Y-33021800D01*
X107725337Y-33033501D01*
X107701903Y-33035964D01*
X107701902Y-33035964D01*
X107695339Y-33036654D01*
X107689061Y-33038694D01*
X107689060Y-33038694D01*
X107660133Y-33048093D01*
X107514971Y-33095259D01*
X107509249Y-33098562D01*
X107509248Y-33098563D01*
X107494240Y-33107228D01*
X107350729Y-33190084D01*
X107333258Y-33205815D01*
X107269252Y-33236531D01*
X107198799Y-33227766D01*
X107164643Y-33205816D01*
X107147171Y-33190084D01*
X107003660Y-33107228D01*
X106988652Y-33098563D01*
X106988651Y-33098562D01*
X106982929Y-33095259D01*
X106837767Y-33048093D01*
X106808840Y-33038694D01*
X106808839Y-33038694D01*
X106802561Y-33036654D01*
X106795998Y-33035964D01*
X106795997Y-33035964D01*
X106772563Y-33033501D01*
X106661236Y-33021800D01*
X106566664Y-33021800D01*
X106455337Y-33033501D01*
X106431903Y-33035964D01*
X106431902Y-33035964D01*
X106425339Y-33036654D01*
X106419061Y-33038694D01*
X106419060Y-33038694D01*
X106390133Y-33048093D01*
X106244971Y-33095259D01*
X106239249Y-33098562D01*
X106239248Y-33098563D01*
X106224240Y-33107228D01*
X106080729Y-33190084D01*
X106063258Y-33205815D01*
X105999252Y-33236531D01*
X105928799Y-33227766D01*
X105894643Y-33205816D01*
X105877171Y-33190084D01*
X105733660Y-33107228D01*
X105718652Y-33098563D01*
X105718651Y-33098562D01*
X105712929Y-33095259D01*
X105567767Y-33048093D01*
X105538840Y-33038694D01*
X105538839Y-33038694D01*
X105532561Y-33036654D01*
X105525998Y-33035964D01*
X105525997Y-33035964D01*
X105502563Y-33033501D01*
X105391236Y-33021800D01*
X105296664Y-33021800D01*
X105185337Y-33033501D01*
X105161903Y-33035964D01*
X105161902Y-33035964D01*
X105155339Y-33036654D01*
X105149061Y-33038694D01*
X105149060Y-33038694D01*
X105120133Y-33048093D01*
X104974971Y-33095259D01*
X104969249Y-33098562D01*
X104969248Y-33098563D01*
X104816451Y-33186780D01*
X104816448Y-33186782D01*
X104810729Y-33190084D01*
X104805818Y-33194506D01*
X104805815Y-33194508D01*
X104801656Y-33198252D01*
X104737647Y-33228966D01*
X104667194Y-33220199D01*
X104633942Y-33199053D01*
X104628796Y-33194508D01*
X104620999Y-33187622D01*
X104594237Y-33175057D01*
X104579259Y-33166737D01*
X104561967Y-33155529D01*
X104561962Y-33155527D01*
X104554435Y-33150648D01*
X104545840Y-33148078D01*
X104545839Y-33148077D01*
X104536262Y-33145213D01*
X104509366Y-33133615D01*
X104448657Y-33098565D01*
X104448649Y-33098562D01*
X104442929Y-33095259D01*
X104436647Y-33093218D01*
X104436645Y-33093217D01*
X104268840Y-33038694D01*
X104268839Y-33038694D01*
X104262561Y-33036654D01*
X104255998Y-33035964D01*
X104255997Y-33035964D01*
X104232563Y-33033501D01*
X104121236Y-33021800D01*
X104112568Y-33021800D01*
X104044447Y-33001798D01*
X103997954Y-32948142D01*
X103986568Y-32895823D01*
X103986567Y-32886286D01*
X103985756Y-28429841D01*
X103985433Y-26650291D01*
X104005423Y-26582167D01*
X104059070Y-26535664D01*
X104129342Y-26525547D01*
X104186998Y-26549442D01*
G37*
%TD.AperFunction*%
%TA.AperFunction,Conductor*%
G36*
X117255969Y-22045503D02*
G01*
X117302462Y-22099159D01*
X117312566Y-22169433D01*
X117302136Y-22204551D01*
X117256538Y-22302783D01*
X117252975Y-22312470D01*
X117197589Y-22512183D01*
X117199112Y-22520607D01*
X117211492Y-22524000D01*
X118661200Y-22524000D01*
X118729321Y-22544002D01*
X118775814Y-22597658D01*
X118787200Y-22650000D01*
X118787200Y-26657884D01*
X118791675Y-26673123D01*
X118793065Y-26674328D01*
X118800748Y-26675999D01*
X119427869Y-26675999D01*
X119434690Y-26675629D01*
X119485552Y-26670105D01*
X119500806Y-26666478D01*
X119622454Y-26620875D01*
X119693261Y-26615692D01*
X119755630Y-26649613D01*
X119781789Y-26687606D01*
X119787568Y-26700585D01*
X119791448Y-26705926D01*
X119791449Y-26705927D01*
X119865565Y-26807939D01*
X119889424Y-26874807D01*
X119873343Y-26943959D01*
X119865565Y-26956061D01*
X119793234Y-27055617D01*
X119787568Y-27063415D01*
X119784884Y-27069443D01*
X119784883Y-27069445D01*
X119729464Y-27193918D01*
X119710430Y-27236669D01*
X119704039Y-27266739D01*
X119682795Y-27366685D01*
X119671000Y-27422175D01*
X119671000Y-27611825D01*
X119672372Y-27618278D01*
X119672372Y-27618282D01*
X119685318Y-27679188D01*
X119710430Y-27797331D01*
X119713114Y-27803360D01*
X119713115Y-27803362D01*
X119760538Y-27909874D01*
X119787568Y-27970585D01*
X119791448Y-27975926D01*
X119791449Y-27975927D01*
X119865565Y-28077939D01*
X119889424Y-28144807D01*
X119873343Y-28213959D01*
X119865565Y-28226061D01*
X119798492Y-28318380D01*
X119787568Y-28333415D01*
X119784884Y-28339443D01*
X119784883Y-28339445D01*
X119744636Y-28429841D01*
X119710430Y-28506669D01*
X119695800Y-28575500D01*
X119681464Y-28642947D01*
X119671000Y-28692175D01*
X119671000Y-28881825D01*
X119672372Y-28888278D01*
X119672372Y-28888282D01*
X119690265Y-28972463D01*
X119710430Y-29067331D01*
X119713114Y-29073360D01*
X119713115Y-29073362D01*
X119770509Y-29202269D01*
X119787568Y-29240585D01*
X119791448Y-29245925D01*
X119852904Y-29330513D01*
X119876762Y-29397381D01*
X119860681Y-29466532D01*
X119849506Y-29482329D01*
X119846073Y-29485287D01*
X119841189Y-29492822D01*
X119832106Y-29506835D01*
X119820815Y-29521709D01*
X119812357Y-29531287D01*
X119803822Y-29540951D01*
X119792643Y-29564761D01*
X119791258Y-29567711D01*
X119782937Y-29582691D01*
X119771729Y-29599983D01*
X119771727Y-29599988D01*
X119766848Y-29607515D01*
X119764278Y-29616108D01*
X119764276Y-29616113D01*
X119759489Y-29632120D01*
X119752828Y-29649564D01*
X119745733Y-29664676D01*
X119741919Y-29672800D01*
X119740538Y-29681667D01*
X119740538Y-29681668D01*
X119737370Y-29702015D01*
X119733587Y-29718732D01*
X119727685Y-29738466D01*
X119727684Y-29738472D01*
X119725114Y-29747066D01*
X119725059Y-29756037D01*
X119725059Y-29756038D01*
X119724904Y-29781497D01*
X119724871Y-29782289D01*
X119724700Y-29783386D01*
X119724700Y-29814377D01*
X119724698Y-29815147D01*
X119724224Y-29892721D01*
X119724608Y-29894065D01*
X119724700Y-29895410D01*
X119724700Y-32982500D01*
X119704698Y-33050621D01*
X119651042Y-33097114D01*
X119598700Y-33108500D01*
X114150997Y-33108500D01*
X114082876Y-33088498D01*
X114036383Y-33034842D01*
X114026279Y-32964568D01*
X114037236Y-32929261D01*
X114037234Y-32929260D01*
X114037242Y-32929239D01*
X114038037Y-32926678D01*
X114039139Y-32924449D01*
X114039144Y-32924437D01*
X114041430Y-32919811D01*
X114085118Y-32776018D01*
X114104865Y-32711023D01*
X114104865Y-32711021D01*
X114106370Y-32706069D01*
X114135529Y-32484590D01*
X114135611Y-32481240D01*
X114137074Y-32421365D01*
X114137074Y-32421361D01*
X114137156Y-32418000D01*
X114118852Y-32195361D01*
X114064431Y-31978702D01*
X113975354Y-31773840D01*
X113900820Y-31658628D01*
X113856822Y-31590617D01*
X113856820Y-31590614D01*
X113854014Y-31586277D01*
X113703670Y-31421051D01*
X113679777Y-31402181D01*
X113638715Y-31344264D01*
X113635483Y-31273341D01*
X113671109Y-31211930D01*
X113734280Y-31179528D01*
X113757870Y-31177300D01*
X114081282Y-31177300D01*
X114125202Y-31185203D01*
X114180558Y-31205790D01*
X114180560Y-31205791D01*
X114187168Y-31208248D01*
X114270072Y-31219310D01*
X114359980Y-31231307D01*
X114359984Y-31231307D01*
X114366961Y-31232238D01*
X114373972Y-31231600D01*
X114373976Y-31231600D01*
X114516459Y-31218632D01*
X114547600Y-31215798D01*
X114554302Y-31213620D01*
X114554304Y-31213620D01*
X114713409Y-31161924D01*
X114713412Y-31161923D01*
X114720108Y-31159747D01*
X114875912Y-31066869D01*
X115007266Y-30941782D01*
X115107643Y-30790702D01*
X115155392Y-30665004D01*
X115169555Y-30627720D01*
X115169556Y-30627718D01*
X115172055Y-30621138D01*
X115175488Y-30596712D01*
X115196748Y-30445439D01*
X115196748Y-30445436D01*
X115197299Y-30441517D01*
X115197616Y-30418800D01*
X115177397Y-30238545D01*
X115166071Y-30206022D01*
X115120064Y-30073906D01*
X115120062Y-30073903D01*
X115117745Y-30067248D01*
X115021626Y-29913424D01*
X115016653Y-29908416D01*
X114898778Y-29789715D01*
X114898774Y-29789712D01*
X114893815Y-29784718D01*
X114848623Y-29756038D01*
X114804314Y-29727919D01*
X114740666Y-29687527D01*
X114683421Y-29667143D01*
X114576425Y-29629043D01*
X114576420Y-29629042D01*
X114569790Y-29626681D01*
X114562802Y-29625848D01*
X114562799Y-29625847D01*
X114409060Y-29607515D01*
X114389680Y-29605204D01*
X114382677Y-29605940D01*
X114382676Y-29605940D01*
X114216288Y-29623428D01*
X114216286Y-29623429D01*
X114209288Y-29624164D01*
X114159574Y-29641088D01*
X114122884Y-29653578D01*
X114082279Y-29660300D01*
X109464138Y-29660300D01*
X109421871Y-29652999D01*
X109411686Y-29649372D01*
X109389239Y-29641379D01*
X109377624Y-29637243D01*
X109377622Y-29637243D01*
X109370990Y-29634881D01*
X109364002Y-29634048D01*
X109363999Y-29634047D01*
X109240898Y-29619368D01*
X109190880Y-29613404D01*
X109183877Y-29614140D01*
X109183876Y-29614140D01*
X109017488Y-29631628D01*
X109017486Y-29631629D01*
X109010488Y-29632364D01*
X108928426Y-29660300D01*
X108924084Y-29661778D01*
X108883479Y-29668500D01*
X108874120Y-29668500D01*
X108858330Y-29667507D01*
X108842188Y-29665468D01*
X108828785Y-29663775D01*
X108804107Y-29666195D01*
X108784751Y-29666599D01*
X108574219Y-29654778D01*
X108560195Y-29653198D01*
X108490627Y-29641379D01*
X108426819Y-29610249D01*
X108389971Y-29549563D01*
X108391781Y-29478590D01*
X108415210Y-29436170D01*
X108450154Y-29394526D01*
X108453121Y-29389128D01*
X108453125Y-29389123D01*
X108542467Y-29226608D01*
X108545433Y-29221213D01*
X108547846Y-29213608D01*
X108603373Y-29038564D01*
X108603373Y-29038563D01*
X108605235Y-29032694D01*
X108622500Y-28878773D01*
X108622500Y-28659138D01*
X108642502Y-28591017D01*
X108696158Y-28544524D01*
X108766432Y-28534420D01*
X108775986Y-28536172D01*
X108833161Y-28548952D01*
X108950543Y-28575190D01*
X108956088Y-28575500D01*
X109089244Y-28575500D01*
X109224037Y-28560857D01*
X109365866Y-28513126D01*
X109389204Y-28505272D01*
X109389206Y-28505271D01*
X109395675Y-28503094D01*
X109550905Y-28409823D01*
X109555862Y-28405135D01*
X109555865Y-28405133D01*
X109677527Y-28290082D01*
X109677529Y-28290080D01*
X109682485Y-28285393D01*
X109686317Y-28279755D01*
X109686320Y-28279751D01*
X109780442Y-28141255D01*
X109784277Y-28135612D01*
X109851530Y-27967466D01*
X109852644Y-27960738D01*
X109852645Y-27960734D01*
X109879993Y-27795539D01*
X109879993Y-27795536D01*
X109881108Y-27788802D01*
X109880549Y-27778118D01*
X109876203Y-27695198D01*
X113986892Y-27695198D01*
X113987249Y-27702015D01*
X113987249Y-27702019D01*
X113992561Y-27803362D01*
X113996370Y-27876047D01*
X113998181Y-27882620D01*
X113998181Y-27882623D01*
X114019815Y-27961165D01*
X114044461Y-28050641D01*
X114128922Y-28210836D01*
X114133327Y-28216049D01*
X114133330Y-28216053D01*
X114241406Y-28343943D01*
X114241410Y-28343947D01*
X114245813Y-28349157D01*
X114251237Y-28353304D01*
X114251238Y-28353305D01*
X114384257Y-28455006D01*
X114384261Y-28455009D01*
X114389678Y-28459150D01*
X114483916Y-28503094D01*
X114547631Y-28532805D01*
X114547634Y-28532806D01*
X114553808Y-28535685D01*
X114560456Y-28537171D01*
X114560459Y-28537172D01*
X114656686Y-28558681D01*
X114730543Y-28575190D01*
X114736088Y-28575500D01*
X114869244Y-28575500D01*
X115004037Y-28560857D01*
X115079312Y-28535524D01*
X115150253Y-28532754D01*
X115211432Y-28568777D01*
X115243423Y-28632158D01*
X115245500Y-28654943D01*
X115245500Y-28871769D01*
X115245800Y-28874825D01*
X115245800Y-28874832D01*
X115246486Y-28881825D01*
X115259920Y-29018833D01*
X115317084Y-29208169D01*
X115409934Y-29382796D01*
X115468776Y-29454943D01*
X115531040Y-29531287D01*
X115531043Y-29531290D01*
X115534935Y-29536062D01*
X115539682Y-29539989D01*
X115539684Y-29539991D01*
X115682575Y-29658201D01*
X115682579Y-29658203D01*
X115687325Y-29662130D01*
X115861299Y-29756198D01*
X116050232Y-29814682D01*
X116056357Y-29815326D01*
X116056358Y-29815326D01*
X116240796Y-29834711D01*
X116240798Y-29834711D01*
X116246925Y-29835355D01*
X116329424Y-29827847D01*
X116437749Y-29817989D01*
X116437752Y-29817988D01*
X116443888Y-29817430D01*
X116449794Y-29815692D01*
X116449798Y-29815691D01*
X116567862Y-29780943D01*
X116633619Y-29761590D01*
X116639077Y-29758737D01*
X116639081Y-29758735D01*
X116768059Y-29691306D01*
X116808890Y-29669960D01*
X116963025Y-29546032D01*
X116967289Y-29540951D01*
X117003637Y-29497633D01*
X117090154Y-29394526D01*
X117093121Y-29389128D01*
X117093125Y-29389123D01*
X117182467Y-29226608D01*
X117185433Y-29221213D01*
X117187846Y-29213608D01*
X117243373Y-29038564D01*
X117243373Y-29038563D01*
X117245235Y-29032694D01*
X117262500Y-28878773D01*
X117262500Y-27672231D01*
X117261814Y-27665227D01*
X117252626Y-27571534D01*
X117248080Y-27525167D01*
X117190916Y-27335831D01*
X117098066Y-27161204D01*
X116990238Y-27028994D01*
X116976960Y-27012713D01*
X116976957Y-27012710D01*
X116973065Y-27007938D01*
X116966718Y-27002687D01*
X116825425Y-26885799D01*
X116825421Y-26885797D01*
X116820675Y-26881870D01*
X116646701Y-26787802D01*
X116457768Y-26729318D01*
X116451643Y-26728674D01*
X116451642Y-26728674D01*
X116267204Y-26709289D01*
X116267202Y-26709289D01*
X116261075Y-26708645D01*
X116178576Y-26716153D01*
X116070251Y-26726011D01*
X116070248Y-26726012D01*
X116064112Y-26726570D01*
X116058206Y-26728308D01*
X116058202Y-26728309D01*
X115953076Y-26759249D01*
X115874381Y-26782410D01*
X115868923Y-26785263D01*
X115868919Y-26785265D01*
X115802400Y-26820041D01*
X115699110Y-26874040D01*
X115544975Y-26997968D01*
X115496600Y-27055619D01*
X115437493Y-27094944D01*
X115366506Y-27096070D01*
X115323552Y-27074722D01*
X115263743Y-27028994D01*
X115263739Y-27028991D01*
X115258322Y-27024850D01*
X115112873Y-26957026D01*
X115100369Y-26951195D01*
X115100366Y-26951194D01*
X115094192Y-26948315D01*
X115087544Y-26946829D01*
X115087541Y-26946828D01*
X114938962Y-26913617D01*
X114917457Y-26908810D01*
X114911912Y-26908500D01*
X114778756Y-26908500D01*
X114643963Y-26923143D01*
X114530556Y-26961309D01*
X114478796Y-26978728D01*
X114478794Y-26978729D01*
X114472325Y-26980906D01*
X114317095Y-27074177D01*
X114312138Y-27078865D01*
X114312135Y-27078867D01*
X114190473Y-27193918D01*
X114185515Y-27198607D01*
X114181683Y-27204245D01*
X114181680Y-27204249D01*
X114097133Y-27328656D01*
X114083723Y-27348388D01*
X114016470Y-27516534D01*
X114015356Y-27523262D01*
X114015355Y-27523266D01*
X113991270Y-27668751D01*
X113986892Y-27695198D01*
X109876203Y-27695198D01*
X109871987Y-27614766D01*
X109871630Y-27607953D01*
X109866523Y-27589410D01*
X109825352Y-27439941D01*
X109823539Y-27433359D01*
X109739078Y-27273164D01*
X109734673Y-27267951D01*
X109734670Y-27267947D01*
X109626594Y-27140057D01*
X109626590Y-27140053D01*
X109622187Y-27134843D01*
X109616762Y-27130695D01*
X109483743Y-27028994D01*
X109483739Y-27028991D01*
X109478322Y-27024850D01*
X109332873Y-26957026D01*
X109320369Y-26951195D01*
X109320366Y-26951194D01*
X109314192Y-26948315D01*
X109307544Y-26946829D01*
X109307541Y-26946828D01*
X109158962Y-26913617D01*
X109137457Y-26908810D01*
X109131912Y-26908500D01*
X108998756Y-26908500D01*
X108863963Y-26923143D01*
X108750556Y-26961309D01*
X108698796Y-26978728D01*
X108698794Y-26978729D01*
X108692325Y-26980906D01*
X108537095Y-27074177D01*
X108536671Y-27073472D01*
X108475480Y-27096762D01*
X108406007Y-27082135D01*
X108368008Y-27050782D01*
X108344971Y-27022536D01*
X108333065Y-27007938D01*
X108326718Y-27002687D01*
X108185425Y-26885799D01*
X108185421Y-26885797D01*
X108180675Y-26881870D01*
X108006701Y-26787802D01*
X107817768Y-26729318D01*
X107811643Y-26728674D01*
X107811642Y-26728674D01*
X107627204Y-26709289D01*
X107627202Y-26709289D01*
X107621075Y-26708645D01*
X107538576Y-26716153D01*
X107430251Y-26726011D01*
X107430248Y-26726012D01*
X107424112Y-26726570D01*
X107418206Y-26728308D01*
X107418202Y-26728309D01*
X107313076Y-26759249D01*
X107234381Y-26782410D01*
X107228923Y-26785263D01*
X107228919Y-26785265D01*
X107162400Y-26820041D01*
X107059110Y-26874040D01*
X106904975Y-26997968D01*
X106777846Y-27149474D01*
X106774879Y-27154872D01*
X106774875Y-27154877D01*
X106713379Y-27266739D01*
X106682567Y-27322787D01*
X106680706Y-27328654D01*
X106680705Y-27328656D01*
X106648343Y-27430673D01*
X106622765Y-27511306D01*
X106605500Y-27665227D01*
X106605500Y-27956734D01*
X106585498Y-28024855D01*
X106531842Y-28071348D01*
X106461568Y-28081452D01*
X106396988Y-28051958D01*
X106369222Y-28017682D01*
X106313911Y-27917603D01*
X106307788Y-27904890D01*
X106217006Y-27685714D01*
X106212346Y-27672395D01*
X106146679Y-27444448D01*
X106143535Y-27430673D01*
X106128356Y-27341329D01*
X106103802Y-27196807D01*
X106102221Y-27182774D01*
X106101412Y-27168362D01*
X106091030Y-26983450D01*
X106091826Y-26960606D01*
X106093225Y-26949529D01*
X106089101Y-26907465D01*
X106088500Y-26895171D01*
X106088500Y-26802500D01*
X106108502Y-26734379D01*
X106162158Y-26687886D01*
X106214500Y-26676500D01*
X106274134Y-26676500D01*
X106336316Y-26669745D01*
X106472705Y-26618615D01*
X106589261Y-26531261D01*
X106676615Y-26414705D01*
X106727745Y-26278316D01*
X106734500Y-26216134D01*
X106734500Y-26212669D01*
X117175201Y-26212669D01*
X117175571Y-26219490D01*
X117181095Y-26270352D01*
X117184721Y-26285604D01*
X117229876Y-26406054D01*
X117238414Y-26421649D01*
X117314915Y-26523724D01*
X117327476Y-26536285D01*
X117429551Y-26612786D01*
X117445146Y-26621324D01*
X117565594Y-26666478D01*
X117580849Y-26670105D01*
X117631714Y-26675631D01*
X117638528Y-26676000D01*
X118261085Y-26676000D01*
X118276324Y-26671525D01*
X118277529Y-26670135D01*
X118279200Y-26662452D01*
X118279200Y-25590115D01*
X118274725Y-25574876D01*
X118273335Y-25573671D01*
X118265652Y-25572000D01*
X117193316Y-25572000D01*
X117178077Y-25576475D01*
X117176872Y-25577865D01*
X117175201Y-25585548D01*
X117175201Y-26212669D01*
X106734500Y-26212669D01*
X106734500Y-25241102D01*
X106754502Y-25172981D01*
X106808158Y-25126488D01*
X106878432Y-25116384D01*
X106940813Y-25144016D01*
X107047325Y-25232130D01*
X107221299Y-25326198D01*
X107410232Y-25384682D01*
X107416357Y-25385326D01*
X107416358Y-25385326D01*
X107600796Y-25404711D01*
X107600798Y-25404711D01*
X107606925Y-25405355D01*
X107689424Y-25397847D01*
X107797749Y-25387989D01*
X107797752Y-25387988D01*
X107803888Y-25387430D01*
X107809794Y-25385692D01*
X107809798Y-25385691D01*
X107940546Y-25347210D01*
X107993619Y-25331590D01*
X107999077Y-25328737D01*
X107999081Y-25328735D01*
X108124126Y-25263362D01*
X108168890Y-25239960D01*
X108323025Y-25116032D01*
X108450154Y-24964526D01*
X108453121Y-24959128D01*
X108453125Y-24959123D01*
X108536744Y-24807018D01*
X108545433Y-24791213D01*
X108547846Y-24783608D01*
X108603373Y-24608564D01*
X108603373Y-24608563D01*
X108605235Y-24602694D01*
X108622500Y-24448773D01*
X108622500Y-24441769D01*
X115245500Y-24441769D01*
X115245800Y-24444825D01*
X115245800Y-24444832D01*
X115246530Y-24452273D01*
X115259920Y-24588833D01*
X115317084Y-24778169D01*
X115409934Y-24952796D01*
X115457408Y-25011005D01*
X115531040Y-25101287D01*
X115531043Y-25101290D01*
X115534935Y-25106062D01*
X115539682Y-25109989D01*
X115539684Y-25109991D01*
X115682575Y-25228201D01*
X115682579Y-25228203D01*
X115687325Y-25232130D01*
X115861299Y-25326198D01*
X116050232Y-25384682D01*
X116056357Y-25385326D01*
X116056358Y-25385326D01*
X116240796Y-25404711D01*
X116240798Y-25404711D01*
X116246925Y-25405355D01*
X116329424Y-25397847D01*
X116437749Y-25387989D01*
X116437752Y-25387988D01*
X116443888Y-25387430D01*
X116449794Y-25385692D01*
X116449798Y-25385691D01*
X116580546Y-25347210D01*
X116633619Y-25331590D01*
X116639077Y-25328737D01*
X116639081Y-25328735D01*
X116764126Y-25263362D01*
X116808890Y-25239960D01*
X116963025Y-25116032D01*
X116998624Y-25073606D01*
X117057732Y-25034281D01*
X117128720Y-25033155D01*
X117177658Y-25059376D01*
X117181066Y-25062329D01*
X117188748Y-25064000D01*
X118261085Y-25064000D01*
X118276324Y-25059525D01*
X118277529Y-25058135D01*
X118279200Y-25050452D01*
X118279200Y-23050115D01*
X118274725Y-23034876D01*
X118273335Y-23033671D01*
X118265652Y-23032000D01*
X117216425Y-23032000D01*
X117201186Y-23036475D01*
X117198364Y-23039732D01*
X117174696Y-23091557D01*
X117114971Y-23129942D01*
X117043974Y-23129943D01*
X116981830Y-23088684D01*
X116976963Y-23082716D01*
X116976957Y-23082710D01*
X116973065Y-23077938D01*
X116964570Y-23070910D01*
X116825425Y-22955799D01*
X116825421Y-22955797D01*
X116820675Y-22951870D01*
X116646701Y-22857802D01*
X116457768Y-22799318D01*
X116451643Y-22798674D01*
X116451642Y-22798674D01*
X116267204Y-22779289D01*
X116267202Y-22779289D01*
X116261075Y-22778645D01*
X116178576Y-22786153D01*
X116070251Y-22796011D01*
X116070248Y-22796012D01*
X116064112Y-22796570D01*
X116058206Y-22798308D01*
X116058202Y-22798309D01*
X116015313Y-22810932D01*
X115874381Y-22852410D01*
X115868923Y-22855263D01*
X115868919Y-22855265D01*
X115788325Y-22897399D01*
X115699110Y-22944040D01*
X115544975Y-23067968D01*
X115417846Y-23219474D01*
X115414879Y-23224872D01*
X115414875Y-23224877D01*
X115370970Y-23304741D01*
X115322567Y-23392787D01*
X115320706Y-23398654D01*
X115320705Y-23398656D01*
X115272563Y-23550420D01*
X115262765Y-23581306D01*
X115245500Y-23735227D01*
X115245500Y-24441769D01*
X108622500Y-24441769D01*
X108622500Y-23742231D01*
X108621814Y-23735227D01*
X108610388Y-23618710D01*
X108608080Y-23595167D01*
X108605524Y-23586699D01*
X108552697Y-23411731D01*
X108550916Y-23405831D01*
X108458066Y-23231204D01*
X108348440Y-23096789D01*
X108336960Y-23082713D01*
X108336957Y-23082710D01*
X108333065Y-23077938D01*
X108324570Y-23070910D01*
X108185425Y-22955799D01*
X108185421Y-22955797D01*
X108180675Y-22951870D01*
X108006701Y-22857802D01*
X107817768Y-22799318D01*
X107811643Y-22798674D01*
X107811642Y-22798674D01*
X107627204Y-22779289D01*
X107627202Y-22779289D01*
X107621075Y-22778645D01*
X107538576Y-22786153D01*
X107430251Y-22796011D01*
X107430248Y-22796012D01*
X107424112Y-22796570D01*
X107418206Y-22798308D01*
X107418202Y-22798309D01*
X107375313Y-22810932D01*
X107234381Y-22852410D01*
X107228923Y-22855263D01*
X107228919Y-22855265D01*
X107148325Y-22897399D01*
X107059110Y-22944040D01*
X106904975Y-23067968D01*
X106904109Y-23066891D01*
X106847641Y-23096967D01*
X106776882Y-23091165D01*
X106727905Y-23057213D01*
X106709259Y-23036205D01*
X106694617Y-23032000D01*
X105248000Y-23032000D01*
X105179879Y-23011998D01*
X105133386Y-22958342D01*
X105122000Y-22906000D01*
X105122000Y-22650000D01*
X105142002Y-22581879D01*
X105195658Y-22535386D01*
X105248000Y-22524000D01*
X106694344Y-22524000D01*
X106707875Y-22520027D01*
X106709180Y-22510947D01*
X106667214Y-22343875D01*
X106663894Y-22334124D01*
X106606334Y-22201743D01*
X106597514Y-22131296D01*
X106628181Y-22067265D01*
X106688598Y-22029977D01*
X106721884Y-22025501D01*
X117187848Y-22025501D01*
X117255969Y-22045503D01*
G37*
%TD.AperFunction*%
%TA.AperFunction,Conductor*%
G36*
X126340984Y-22045503D02*
G01*
X126387477Y-22099159D01*
X126397581Y-22169433D01*
X126368087Y-22234013D01*
X126308361Y-22272397D01*
X126299709Y-22274608D01*
X126153834Y-22306414D01*
X126150407Y-22307587D01*
X126150401Y-22307589D01*
X125926105Y-22384383D01*
X125825590Y-22418797D01*
X125512439Y-22568163D01*
X125509360Y-22570094D01*
X125509359Y-22570095D01*
X125447848Y-22608681D01*
X125218530Y-22752532D01*
X125215694Y-22754804D01*
X125215687Y-22754809D01*
X125027160Y-22905848D01*
X124947760Y-22969459D01*
X124703717Y-23216071D01*
X124701476Y-23218929D01*
X124493619Y-23484020D01*
X124489637Y-23489098D01*
X124487744Y-23492187D01*
X124487742Y-23492190D01*
X124441484Y-23567676D01*
X124308356Y-23784921D01*
X124306831Y-23788206D01*
X124306829Y-23788210D01*
X124259933Y-23889239D01*
X124162278Y-24099620D01*
X124119177Y-24229946D01*
X124096081Y-24299782D01*
X124053338Y-24429023D01*
X124052602Y-24432578D01*
X124052601Y-24432581D01*
X124008769Y-24644237D01*
X123982981Y-24768764D01*
X123974923Y-24859057D01*
X123956523Y-25065222D01*
X123955751Y-25073869D01*
X123955751Y-27297432D01*
X123955856Y-27299251D01*
X123955856Y-27299255D01*
X123968773Y-27523266D01*
X123970624Y-27555374D01*
X123971247Y-27558943D01*
X124026848Y-27877520D01*
X124030275Y-27897158D01*
X124031304Y-27900633D01*
X124031306Y-27900640D01*
X124047922Y-27956734D01*
X124128814Y-28229820D01*
X124130237Y-28233156D01*
X124130238Y-28233159D01*
X124258737Y-28534420D01*
X124264935Y-28548952D01*
X124266730Y-28552099D01*
X124266732Y-28552103D01*
X124359533Y-28714800D01*
X124436834Y-28850324D01*
X124642233Y-29129940D01*
X124644699Y-29132593D01*
X124644700Y-29132595D01*
X124654886Y-29143556D01*
X124878409Y-29384096D01*
X125142232Y-29609422D01*
X125430204Y-29802931D01*
X125738510Y-29962060D01*
X126063062Y-30084698D01*
X126066583Y-30085582D01*
X126066588Y-30085584D01*
X126227873Y-30126096D01*
X126399559Y-30169220D01*
X126403154Y-30169693D01*
X126406722Y-30170374D01*
X126406427Y-30171918D01*
X126465579Y-30198103D01*
X126504656Y-30257378D01*
X126505484Y-30328370D01*
X126490094Y-30362536D01*
X126426485Y-30461238D01*
X126424076Y-30467858D01*
X126424074Y-30467861D01*
X126370823Y-30614166D01*
X126364447Y-30631685D01*
X126363564Y-30638673D01*
X126363564Y-30638674D01*
X126361945Y-30651493D01*
X126341713Y-30811640D01*
X126359413Y-30992160D01*
X126416668Y-31164273D01*
X126420315Y-31170295D01*
X126420316Y-31170297D01*
X126496365Y-31295869D01*
X126510630Y-31319424D01*
X126636632Y-31449902D01*
X126637817Y-31450678D01*
X126676310Y-31507664D01*
X126677933Y-31578642D01*
X126644417Y-31635939D01*
X126543493Y-31734771D01*
X126445235Y-31887238D01*
X126442826Y-31893858D01*
X126442824Y-31893861D01*
X126394734Y-32025988D01*
X126383197Y-32057685D01*
X126360463Y-32237640D01*
X126378163Y-32418160D01*
X126435418Y-32590273D01*
X126439065Y-32596295D01*
X126439066Y-32596297D01*
X126458918Y-32629076D01*
X126529380Y-32745424D01*
X126534269Y-32750487D01*
X126534270Y-32750488D01*
X126558924Y-32776018D01*
X126655382Y-32875902D01*
X126661279Y-32879761D01*
X126666703Y-32884248D01*
X126665017Y-32886286D01*
X126703210Y-32931100D01*
X126712737Y-33001455D01*
X126682715Y-33065791D01*
X126622676Y-33103683D01*
X126588171Y-33108500D01*
X123013605Y-33108500D01*
X122994223Y-33107000D01*
X122993606Y-33106904D01*
X122970514Y-33103309D01*
X122961613Y-33104473D01*
X122961609Y-33104473D01*
X122955258Y-33105304D01*
X122929935Y-33106047D01*
X122889391Y-33103149D01*
X122760956Y-33093966D01*
X122743174Y-33091410D01*
X122572544Y-33054296D01*
X122552835Y-33050009D01*
X122535586Y-33044945D01*
X122353080Y-32976878D01*
X122336727Y-32969410D01*
X122165762Y-32876060D01*
X122150637Y-32866340D01*
X121994705Y-32749614D01*
X121981119Y-32737842D01*
X121862888Y-32619614D01*
X121843385Y-32600112D01*
X121831612Y-32586526D01*
X121714878Y-32430590D01*
X121705159Y-32415466D01*
X121611805Y-32244505D01*
X121604337Y-32228152D01*
X121554322Y-32094060D01*
X121536267Y-32045652D01*
X121531202Y-32028405D01*
X121489797Y-31838069D01*
X121487239Y-31820281D01*
X121487213Y-31819918D01*
X121475677Y-31658624D01*
X121476472Y-31639514D01*
X121476562Y-31632148D01*
X121477943Y-31623276D01*
X121474231Y-31594892D01*
X121473174Y-31577302D01*
X121473286Y-31566177D01*
X121489948Y-29900730D01*
X121490020Y-29899824D01*
X121490286Y-29898934D01*
X121490598Y-29847905D01*
X121490787Y-29816979D01*
X121490791Y-29816490D01*
X121490926Y-29802931D01*
X121491040Y-29791576D01*
X121490957Y-29790954D01*
X121490948Y-29790628D01*
X121491095Y-29766511D01*
X121491176Y-29753279D01*
X121483928Y-29727918D01*
X121480177Y-29709908D01*
X121477881Y-29692648D01*
X121476698Y-29683753D01*
X121465011Y-29657350D01*
X121459079Y-29640975D01*
X121453616Y-29621859D01*
X121453615Y-29621856D01*
X121451149Y-29613229D01*
X121446086Y-29605204D01*
X121437072Y-29590919D01*
X121428416Y-29574682D01*
X121425330Y-29567711D01*
X121417739Y-29550561D01*
X121399110Y-29528498D01*
X121388829Y-29514458D01*
X121373424Y-29490042D01*
X121353648Y-29472576D01*
X121340793Y-29459431D01*
X121328741Y-29445159D01*
X121300072Y-29380208D01*
X121311070Y-29310068D01*
X121323071Y-29289806D01*
X121354952Y-29245925D01*
X121358832Y-29240585D01*
X121375892Y-29202269D01*
X121433285Y-29073362D01*
X121433286Y-29073360D01*
X121435970Y-29067331D01*
X121456135Y-28972463D01*
X121474028Y-28888282D01*
X121474028Y-28888278D01*
X121475400Y-28881825D01*
X121475400Y-28692175D01*
X121464937Y-28642947D01*
X121450600Y-28575500D01*
X121435970Y-28506669D01*
X121401764Y-28429841D01*
X121361517Y-28339445D01*
X121361516Y-28339443D01*
X121358832Y-28333415D01*
X121347909Y-28318380D01*
X121280835Y-28226061D01*
X121256976Y-28159193D01*
X121273057Y-28090041D01*
X121280835Y-28077939D01*
X121354951Y-27975927D01*
X121354952Y-27975926D01*
X121358832Y-27970585D01*
X121385863Y-27909874D01*
X121433285Y-27803362D01*
X121433286Y-27803360D01*
X121435970Y-27797331D01*
X121461082Y-27679188D01*
X121474028Y-27618282D01*
X121474028Y-27618278D01*
X121475400Y-27611825D01*
X121475400Y-27422175D01*
X121463606Y-27366685D01*
X121442361Y-27266739D01*
X121435970Y-27236669D01*
X121416936Y-27193918D01*
X121361517Y-27069445D01*
X121361516Y-27069443D01*
X121358832Y-27063415D01*
X121353167Y-27055617D01*
X121280835Y-26956061D01*
X121256976Y-26889193D01*
X121273057Y-26820041D01*
X121280835Y-26807939D01*
X121354951Y-26705927D01*
X121354952Y-26705926D01*
X121358832Y-26700585D01*
X121369556Y-26676500D01*
X121433285Y-26533362D01*
X121433286Y-26533360D01*
X121435970Y-26527331D01*
X121461748Y-26406054D01*
X121474028Y-26348282D01*
X121474028Y-26348278D01*
X121475400Y-26341825D01*
X121475400Y-26152175D01*
X121435970Y-25966669D01*
X121358832Y-25793415D01*
X121280835Y-25686061D01*
X121256976Y-25619193D01*
X121273057Y-25550041D01*
X121280835Y-25537939D01*
X121354951Y-25435927D01*
X121354952Y-25435926D01*
X121358832Y-25430585D01*
X121368707Y-25408407D01*
X121433285Y-25263362D01*
X121433286Y-25263360D01*
X121435970Y-25257331D01*
X121464652Y-25122392D01*
X121474028Y-25078282D01*
X121474028Y-25078278D01*
X121475400Y-25071825D01*
X121475400Y-24882175D01*
X121472015Y-24866246D01*
X121437342Y-24703126D01*
X121435970Y-24696669D01*
X121433285Y-24690638D01*
X121361517Y-24529445D01*
X121361516Y-24529443D01*
X121358832Y-24523415D01*
X121354951Y-24518074D01*
X121351650Y-24512356D01*
X121353709Y-24511167D01*
X121333496Y-24454512D01*
X121349578Y-24385360D01*
X121363407Y-24365814D01*
X121369327Y-24360713D01*
X121374208Y-24353182D01*
X121374211Y-24353179D01*
X121389442Y-24329681D01*
X121397836Y-24318205D01*
X121415608Y-24296584D01*
X121415609Y-24296582D01*
X121421307Y-24289650D01*
X121428474Y-24272861D01*
X121438620Y-24253807D01*
X121448552Y-24238485D01*
X121451124Y-24229884D01*
X121451126Y-24229880D01*
X121459150Y-24203050D01*
X121463986Y-24189679D01*
X121474971Y-24163949D01*
X121474972Y-24163947D01*
X121478497Y-24155689D01*
X121479563Y-24146778D01*
X121479565Y-24146769D01*
X121480666Y-24137560D01*
X121485056Y-24116426D01*
X121487714Y-24107536D01*
X121487714Y-24107533D01*
X121490286Y-24098934D01*
X121490341Y-24089961D01*
X121490512Y-24061964D01*
X121491020Y-24053855D01*
X121491206Y-24049402D01*
X121491785Y-24044563D01*
X121490883Y-24019125D01*
X121490806Y-24013891D01*
X121490873Y-24002987D01*
X121491176Y-23953279D01*
X121488832Y-23945079D01*
X121487852Y-23933689D01*
X121474720Y-23563482D01*
X121476387Y-23538112D01*
X121477020Y-23534349D01*
X121477827Y-23529552D01*
X121477980Y-23517000D01*
X121477290Y-23512179D01*
X121476408Y-23506019D01*
X121475457Y-23479172D01*
X121482163Y-23385408D01*
X121487290Y-23313720D01*
X121489848Y-23295932D01*
X121491561Y-23288060D01*
X121531251Y-23105612D01*
X121536315Y-23088366D01*
X121604386Y-22905863D01*
X121611854Y-22889510D01*
X121705204Y-22718556D01*
X121714924Y-22703432D01*
X121714941Y-22703410D01*
X121831647Y-22547511D01*
X121843420Y-22533925D01*
X121856739Y-22520607D01*
X121981152Y-22396197D01*
X121994738Y-22384425D01*
X122150667Y-22267701D01*
X122165791Y-22257982D01*
X122336742Y-22164639D01*
X122353090Y-22157173D01*
X122535600Y-22089105D01*
X122552847Y-22084041D01*
X122743176Y-22042642D01*
X122760965Y-22040084D01*
X122923058Y-22028495D01*
X122940117Y-22029204D01*
X122940117Y-22029200D01*
X122949087Y-22029310D01*
X122957961Y-22030692D01*
X122966864Y-22029528D01*
X122966865Y-22029528D01*
X122989536Y-22026564D01*
X123005870Y-22025501D01*
X126272863Y-22025501D01*
X126340984Y-22045503D01*
G37*
%TD.AperFunction*%
%TA.AperFunction,Conductor*%
G36*
X146286220Y-22045502D02*
G01*
X146332713Y-22099158D01*
X146342817Y-22169432D01*
X146332387Y-22204550D01*
X146286790Y-22302783D01*
X146283226Y-22312470D01*
X146227840Y-22512183D01*
X146229363Y-22520607D01*
X146241743Y-22524000D01*
X148881795Y-22524000D01*
X148895326Y-22520027D01*
X148896631Y-22510947D01*
X148854665Y-22343875D01*
X148851345Y-22334124D01*
X148793784Y-22201742D01*
X148784964Y-22131296D01*
X148815631Y-22067264D01*
X148876047Y-22029976D01*
X148909332Y-22025500D01*
X154272867Y-22025500D01*
X154340988Y-22045502D01*
X154387481Y-22099158D01*
X154397585Y-22169432D01*
X154368091Y-22234012D01*
X154308365Y-22272396D01*
X154299709Y-22274608D01*
X154299705Y-22274609D01*
X154153834Y-22306414D01*
X154150407Y-22307587D01*
X154150401Y-22307589D01*
X153926105Y-22384383D01*
X153825590Y-22418797D01*
X153512439Y-22568163D01*
X153509360Y-22570094D01*
X153509359Y-22570095D01*
X153447848Y-22608681D01*
X153218530Y-22752532D01*
X153215694Y-22754804D01*
X153215687Y-22754809D01*
X153027160Y-22905848D01*
X152947760Y-22969459D01*
X152703717Y-23216071D01*
X152701476Y-23218929D01*
X152493619Y-23484020D01*
X152489637Y-23489098D01*
X152487744Y-23492187D01*
X152487742Y-23492190D01*
X152441484Y-23567676D01*
X152308356Y-23784921D01*
X152306831Y-23788206D01*
X152306829Y-23788210D01*
X152259933Y-23889239D01*
X152162278Y-24099620D01*
X152119177Y-24229946D01*
X152096081Y-24299782D01*
X152053338Y-24429023D01*
X152052602Y-24432578D01*
X152052601Y-24432581D01*
X152008769Y-24644237D01*
X151982981Y-24768764D01*
X151974923Y-24859057D01*
X151956523Y-25065222D01*
X151955751Y-25073869D01*
X151955751Y-27297432D01*
X151955856Y-27299251D01*
X151955856Y-27299255D01*
X151968773Y-27523266D01*
X151970624Y-27555374D01*
X151971247Y-27558943D01*
X152026848Y-27877520D01*
X152030275Y-27897158D01*
X152031304Y-27900633D01*
X152031306Y-27900640D01*
X152047922Y-27956734D01*
X152128814Y-28229820D01*
X152130237Y-28233156D01*
X152130238Y-28233159D01*
X152258737Y-28534420D01*
X152264935Y-28548952D01*
X152266730Y-28552099D01*
X152266732Y-28552103D01*
X152359533Y-28714800D01*
X152436834Y-28850324D01*
X152642233Y-29129940D01*
X152644699Y-29132593D01*
X152644700Y-29132595D01*
X152654886Y-29143556D01*
X152878409Y-29384096D01*
X153142232Y-29609422D01*
X153430204Y-29802931D01*
X153738510Y-29962060D01*
X154063062Y-30084698D01*
X154191738Y-30117019D01*
X154252933Y-30153014D01*
X154284954Y-30216379D01*
X154285262Y-30260330D01*
X154272620Y-30334732D01*
X154269475Y-30348507D01*
X154250358Y-30414862D01*
X154207695Y-30562948D01*
X154199926Y-30589913D01*
X154195260Y-30603247D01*
X154175008Y-30652138D01*
X154099116Y-30835354D01*
X154092985Y-30848085D01*
X153971460Y-31067962D01*
X153963943Y-31079926D01*
X153818558Y-31284822D01*
X153809748Y-31295869D01*
X153665139Y-31457684D01*
X153665034Y-31457801D01*
X153647791Y-31473800D01*
X153639086Y-31480479D01*
X153617306Y-31507664D01*
X153617103Y-31507918D01*
X153607864Y-31518232D01*
X152534905Y-32591190D01*
X152521464Y-32602854D01*
X152502982Y-32616731D01*
X152493433Y-32626082D01*
X152491428Y-32628639D01*
X152490939Y-32628943D01*
X152491086Y-32629076D01*
X152253879Y-32890798D01*
X152252042Y-32893274D01*
X152252037Y-32893281D01*
X152043062Y-33175058D01*
X152041215Y-33177549D01*
X151857681Y-33483763D01*
X151809702Y-33585210D01*
X151706540Y-33803335D01*
X151705046Y-33806493D01*
X151704006Y-33809400D01*
X151704003Y-33809407D01*
X151653715Y-33949958D01*
X151584779Y-34142629D01*
X151498038Y-34488935D01*
X151497586Y-34491984D01*
X151497584Y-34491993D01*
X151446112Y-34839025D01*
X151446111Y-34839036D01*
X151445660Y-34842076D01*
X151445509Y-34845157D01*
X151445508Y-34845164D01*
X151429519Y-35170714D01*
X151428771Y-35178556D01*
X151428571Y-35181184D01*
X151427987Y-35185286D01*
X151427847Y-35198650D01*
X151431587Y-35229550D01*
X151432500Y-35244690D01*
X151432500Y-43569331D01*
X151412411Y-43637586D01*
X151341054Y-43748310D01*
X151341050Y-43748319D01*
X151337235Y-43754238D01*
X151334826Y-43760858D01*
X151334825Y-43760859D01*
X151277606Y-43918066D01*
X151275197Y-43924685D01*
X151252463Y-44104640D01*
X151270163Y-44285160D01*
X151327418Y-44457273D01*
X151331065Y-44463295D01*
X151331066Y-44463297D01*
X151407656Y-44589762D01*
X151421380Y-44612424D01*
X151426269Y-44617487D01*
X151426270Y-44617488D01*
X151488791Y-44682230D01*
X151547382Y-44742902D01*
X151553274Y-44746757D01*
X151553278Y-44746761D01*
X151577936Y-44762896D01*
X151623985Y-44816933D01*
X151633508Y-44887288D01*
X151603483Y-44951623D01*
X151543443Y-44989513D01*
X151495772Y-44993638D01*
X151490333Y-44993066D01*
X151481553Y-44992143D01*
X151481546Y-44992143D01*
X151478286Y-44991800D01*
X151383714Y-44991800D01*
X151272387Y-45003501D01*
X151248953Y-45005964D01*
X151248952Y-45005964D01*
X151242389Y-45006654D01*
X151236111Y-45008694D01*
X151236110Y-45008694D01*
X151206198Y-45018413D01*
X151062021Y-45065259D01*
X151056299Y-45068562D01*
X151056298Y-45068563D01*
X151004499Y-45098469D01*
X150897779Y-45160084D01*
X150880308Y-45175815D01*
X150816302Y-45206531D01*
X150745849Y-45197766D01*
X150711693Y-45175816D01*
X150694221Y-45160084D01*
X150587501Y-45098469D01*
X150535702Y-45068563D01*
X150535701Y-45068562D01*
X150529979Y-45065259D01*
X150385802Y-45018413D01*
X150355890Y-45008694D01*
X150355889Y-45008694D01*
X150349611Y-45006654D01*
X150343048Y-45005964D01*
X150343047Y-45005964D01*
X150319613Y-45003501D01*
X150208286Y-44991800D01*
X150113714Y-44991800D01*
X150002387Y-45003501D01*
X149978953Y-45005964D01*
X149978952Y-45005964D01*
X149972389Y-45006654D01*
X149966111Y-45008694D01*
X149966110Y-45008694D01*
X149936198Y-45018413D01*
X149792021Y-45065259D01*
X149786299Y-45068562D01*
X149786298Y-45068563D01*
X149734499Y-45098469D01*
X149627779Y-45160084D01*
X149610308Y-45175815D01*
X149546302Y-45206531D01*
X149475849Y-45197766D01*
X149441693Y-45175816D01*
X149424221Y-45160084D01*
X149317501Y-45098469D01*
X149265702Y-45068563D01*
X149265701Y-45068562D01*
X149259979Y-45065259D01*
X149115802Y-45018413D01*
X149085890Y-45008694D01*
X149085889Y-45008694D01*
X149079611Y-45006654D01*
X149073048Y-45005964D01*
X149073047Y-45005964D01*
X149049613Y-45003501D01*
X148938286Y-44991800D01*
X148843714Y-44991800D01*
X148732387Y-45003501D01*
X148708953Y-45005964D01*
X148708952Y-45005964D01*
X148702389Y-45006654D01*
X148696111Y-45008694D01*
X148696110Y-45008694D01*
X148666198Y-45018413D01*
X148522021Y-45065259D01*
X148516299Y-45068562D01*
X148516298Y-45068563D01*
X148464499Y-45098469D01*
X148357779Y-45160084D01*
X148340308Y-45175815D01*
X148276302Y-45206531D01*
X148205849Y-45197766D01*
X148171693Y-45175816D01*
X148154221Y-45160084D01*
X148047501Y-45098469D01*
X147995702Y-45068563D01*
X147995701Y-45068562D01*
X147989979Y-45065259D01*
X147845802Y-45018413D01*
X147815890Y-45008694D01*
X147815889Y-45008694D01*
X147809611Y-45006654D01*
X147803048Y-45005964D01*
X147803047Y-45005964D01*
X147779613Y-45003501D01*
X147668286Y-44991800D01*
X147573714Y-44991800D01*
X147462387Y-45003501D01*
X147438953Y-45005964D01*
X147438952Y-45005964D01*
X147432389Y-45006654D01*
X147426111Y-45008694D01*
X147426110Y-45008694D01*
X147396198Y-45018413D01*
X147252021Y-45065259D01*
X147246299Y-45068562D01*
X147246298Y-45068563D01*
X147128730Y-45136441D01*
X147059735Y-45153179D01*
X146992643Y-45129959D01*
X146982322Y-45121763D01*
X146974062Y-45114468D01*
X146962018Y-45102276D01*
X146948573Y-45086673D01*
X146948570Y-45086671D01*
X146942713Y-45079873D01*
X146921165Y-45065906D01*
X146906291Y-45054615D01*
X146893783Y-45043569D01*
X146893782Y-45043568D01*
X146887049Y-45037622D01*
X146860287Y-45025057D01*
X146845309Y-45016737D01*
X146828017Y-45005529D01*
X146828012Y-45005527D01*
X146820485Y-45000648D01*
X146811892Y-44998078D01*
X146811887Y-44998076D01*
X146795880Y-44993289D01*
X146778436Y-44986628D01*
X146763324Y-44979533D01*
X146763322Y-44979532D01*
X146755200Y-44975719D01*
X146746333Y-44974338D01*
X146746332Y-44974338D01*
X146736690Y-44972837D01*
X146725983Y-44971170D01*
X146709268Y-44967387D01*
X146689534Y-44961485D01*
X146689528Y-44961484D01*
X146680934Y-44958914D01*
X146671963Y-44958859D01*
X146671962Y-44958859D01*
X146661903Y-44958798D01*
X146646494Y-44958704D01*
X146645711Y-44958671D01*
X146644614Y-44958500D01*
X146613623Y-44958500D01*
X146612853Y-44958498D01*
X146539215Y-44958048D01*
X146539214Y-44958048D01*
X146535279Y-44958024D01*
X146533935Y-44958408D01*
X146532590Y-44958500D01*
X145748634Y-44958500D01*
X145729243Y-44956999D01*
X145714425Y-44954691D01*
X145705552Y-44953309D01*
X145696542Y-44954487D01*
X145696524Y-44954489D01*
X145666086Y-44954758D01*
X145604018Y-44947762D01*
X145576512Y-44941483D01*
X145542093Y-44929438D01*
X145499426Y-44914507D01*
X145474015Y-44902268D01*
X145404864Y-44858815D01*
X145382807Y-44841224D01*
X145325062Y-44783476D01*
X145307472Y-44761418D01*
X145264024Y-44692269D01*
X145251782Y-44666848D01*
X145243732Y-44643841D01*
X145224809Y-44589762D01*
X145218532Y-44562256D01*
X145212443Y-44508205D01*
X145212162Y-44483501D01*
X145212827Y-44479552D01*
X145212980Y-44467000D01*
X145209024Y-44439376D01*
X145207751Y-44421514D01*
X145207751Y-34670250D01*
X145209497Y-34649345D01*
X145212021Y-34634344D01*
X145212021Y-34634341D01*
X145212827Y-34629552D01*
X145212980Y-34617000D01*
X145210761Y-34601504D01*
X145209811Y-34592644D01*
X145196481Y-34406267D01*
X145196160Y-34401777D01*
X145150296Y-34190934D01*
X145074893Y-33988765D01*
X145069902Y-33979623D01*
X144986441Y-33826771D01*
X144971487Y-33799384D01*
X144842183Y-33626646D01*
X144702097Y-33486553D01*
X144692792Y-33477247D01*
X144689612Y-33474067D01*
X144516881Y-33344754D01*
X144327505Y-33241339D01*
X144125340Y-33165926D01*
X143914500Y-33120051D01*
X143910005Y-33119729D01*
X143910003Y-33119729D01*
X143739746Y-33107543D01*
X143727833Y-33106118D01*
X143727411Y-33106047D01*
X143711829Y-33103425D01*
X143706977Y-33103365D01*
X143706972Y-33103365D01*
X143705337Y-33103345D01*
X143699277Y-33103271D01*
X143694459Y-33103961D01*
X143694455Y-33103961D01*
X143671637Y-33107228D01*
X143653781Y-33108500D01*
X143181248Y-33108500D01*
X143113127Y-33088498D01*
X143066634Y-33034842D01*
X143056530Y-32964568D01*
X143067487Y-32929261D01*
X143067485Y-32929260D01*
X143067493Y-32929239D01*
X143068288Y-32926678D01*
X143069390Y-32924449D01*
X143069395Y-32924437D01*
X143071681Y-32919811D01*
X143115369Y-32776018D01*
X143135116Y-32711023D01*
X143135116Y-32711021D01*
X143136621Y-32706069D01*
X143165780Y-32484590D01*
X143165862Y-32481240D01*
X143167325Y-32421365D01*
X143167325Y-32421361D01*
X143167407Y-32418000D01*
X143149103Y-32195361D01*
X143094682Y-31978702D01*
X143005605Y-31773840D01*
X142931071Y-31658628D01*
X142887073Y-31590617D01*
X142887071Y-31590614D01*
X142884265Y-31586277D01*
X142733921Y-31421051D01*
X142729870Y-31417852D01*
X142729866Y-31417848D01*
X142562665Y-31285800D01*
X142562661Y-31285798D01*
X142558610Y-31282598D01*
X142527344Y-31265338D01*
X142503785Y-31252333D01*
X142363040Y-31174638D01*
X142358171Y-31172914D01*
X142358167Y-31172912D01*
X142157338Y-31101795D01*
X142157334Y-31101794D01*
X142152463Y-31100069D01*
X142147370Y-31099162D01*
X142147367Y-31099161D01*
X141937624Y-31061800D01*
X141937618Y-31061799D01*
X141932535Y-31060894D01*
X141858703Y-31059992D01*
X141714332Y-31058228D01*
X141714330Y-31058228D01*
X141709162Y-31058165D01*
X141488342Y-31091955D01*
X141475783Y-31096060D01*
X141404819Y-31098210D01*
X141347545Y-31065389D01*
X141147751Y-30865595D01*
X141113725Y-30803283D01*
X141118790Y-30732468D01*
X141161337Y-30675632D01*
X141227857Y-30650821D01*
X141236846Y-30650500D01*
X146101591Y-30650500D01*
X146117382Y-30651493D01*
X146146926Y-30655225D01*
X146167320Y-30653225D01*
X146189498Y-30653011D01*
X146341915Y-30665004D01*
X146361439Y-30668097D01*
X146392828Y-30675632D01*
X146531591Y-30708945D01*
X146550391Y-30715053D01*
X146712061Y-30782017D01*
X146729671Y-30790989D01*
X146878867Y-30882415D01*
X146894863Y-30894036D01*
X147002995Y-30986388D01*
X147015343Y-30999332D01*
X147015350Y-30999325D01*
X147020255Y-31004369D01*
X147024575Y-31009938D01*
X147030017Y-31014408D01*
X147030018Y-31014409D01*
X147057232Y-31036762D01*
X147066352Y-31045033D01*
X147237409Y-31216090D01*
X147261891Y-31251181D01*
X147263418Y-31255773D01*
X147279664Y-31282598D01*
X147349938Y-31398635D01*
X147357380Y-31410924D01*
X147362269Y-31415987D01*
X147362270Y-31415988D01*
X147395021Y-31449902D01*
X147483382Y-31541402D01*
X147502614Y-31553987D01*
X147608499Y-31623276D01*
X147635159Y-31640722D01*
X147641763Y-31643178D01*
X147641765Y-31643179D01*
X147798558Y-31701490D01*
X147798560Y-31701490D01*
X147805168Y-31703948D01*
X147888995Y-31715133D01*
X147977980Y-31727007D01*
X147977984Y-31727007D01*
X147984961Y-31727938D01*
X147991972Y-31727300D01*
X147991976Y-31727300D01*
X148134459Y-31714332D01*
X148165600Y-31711498D01*
X148172302Y-31709320D01*
X148172304Y-31709320D01*
X148331409Y-31657624D01*
X148331412Y-31657623D01*
X148338108Y-31655447D01*
X148460550Y-31582457D01*
X148487860Y-31566177D01*
X148487862Y-31566176D01*
X148493912Y-31562569D01*
X148625266Y-31437482D01*
X148725643Y-31286402D01*
X148774575Y-31157590D01*
X148787555Y-31123420D01*
X148787556Y-31123418D01*
X148790055Y-31116838D01*
X148792975Y-31096060D01*
X148814748Y-30941139D01*
X148814748Y-30941136D01*
X148815299Y-30937217D01*
X148815616Y-30914500D01*
X148795397Y-30734245D01*
X148793080Y-30727591D01*
X148738064Y-30569606D01*
X148738062Y-30569603D01*
X148735745Y-30562948D01*
X148639626Y-30409124D01*
X148572673Y-30341702D01*
X148516778Y-30285415D01*
X148516774Y-30285412D01*
X148511815Y-30280418D01*
X148500697Y-30273362D01*
X148364618Y-30187004D01*
X148364616Y-30187003D01*
X148358666Y-30183227D01*
X148358463Y-30183155D01*
X148328364Y-30161683D01*
X148152076Y-29985395D01*
X148140544Y-29972130D01*
X148128760Y-29956492D01*
X148128756Y-29956488D01*
X148126376Y-29953329D01*
X148111516Y-29938048D01*
X148106546Y-29934080D01*
X148096472Y-29926038D01*
X148090467Y-29920928D01*
X147911959Y-29759142D01*
X147909664Y-29757062D01*
X147907184Y-29755223D01*
X147907177Y-29755217D01*
X147705895Y-29605940D01*
X147691965Y-29595609D01*
X147656000Y-29574053D01*
X147462155Y-29457869D01*
X147462150Y-29457867D01*
X147459490Y-29456272D01*
X147214476Y-29340393D01*
X146959285Y-29249087D01*
X146946661Y-29245925D01*
X146699371Y-29183985D01*
X146699368Y-29183984D01*
X146696372Y-29183234D01*
X146693322Y-29182782D01*
X146693314Y-29182780D01*
X146511348Y-29155790D01*
X146428862Y-29143556D01*
X146364415Y-29113776D01*
X146326297Y-29053880D01*
X146324171Y-28994586D01*
X146324630Y-28993139D01*
X146342751Y-28831587D01*
X146342751Y-27719763D01*
X146342031Y-27712413D01*
X146328217Y-27571534D01*
X146328216Y-27571531D01*
X146327616Y-27565408D01*
X146286366Y-27428778D01*
X146269403Y-27372593D01*
X146269402Y-27372590D01*
X146267619Y-27366685D01*
X146254137Y-27341329D01*
X146173060Y-27188847D01*
X146173059Y-27188845D01*
X146170164Y-27183401D01*
X146110203Y-27109881D01*
X146042861Y-27027311D01*
X146042858Y-27027308D01*
X146038966Y-27022536D01*
X146032021Y-27016790D01*
X145912047Y-26917539D01*
X145879021Y-26890217D01*
X145873604Y-26887288D01*
X145873601Y-26887286D01*
X145701841Y-26794416D01*
X145701836Y-26794414D01*
X145696421Y-26791486D01*
X145498122Y-26730102D01*
X145491997Y-26729458D01*
X145491996Y-26729458D01*
X145297805Y-26709048D01*
X145297803Y-26709048D01*
X145291676Y-26708404D01*
X145205766Y-26716223D01*
X145091087Y-26726659D01*
X145091084Y-26726660D01*
X145084948Y-26727218D01*
X145079042Y-26728956D01*
X145079038Y-26728957D01*
X144966058Y-26762209D01*
X144885811Y-26785827D01*
X144701851Y-26881999D01*
X144540074Y-27012071D01*
X144536116Y-27016788D01*
X144536114Y-27016790D01*
X144484919Y-27077802D01*
X144406642Y-27171089D01*
X144403678Y-27176481D01*
X144403675Y-27176485D01*
X144319064Y-27330392D01*
X144306638Y-27352995D01*
X144243872Y-27550861D01*
X144243186Y-27556978D01*
X144243185Y-27556982D01*
X144234592Y-27633598D01*
X144225751Y-27712413D01*
X144225751Y-28824237D01*
X144226051Y-28827293D01*
X144226051Y-28827300D01*
X144236014Y-28928902D01*
X144240886Y-28978592D01*
X144242341Y-28983411D01*
X144235990Y-29053730D01*
X144192389Y-29109761D01*
X144118777Y-29133500D01*
X137809778Y-29133500D01*
X137741657Y-29113498D01*
X137695164Y-29059842D01*
X137685589Y-28993247D01*
X137684630Y-28993139D01*
X137692182Y-28925810D01*
X137702751Y-28831587D01*
X137702751Y-27719763D01*
X137702031Y-27712413D01*
X137688217Y-27571534D01*
X137688216Y-27571531D01*
X137687616Y-27565408D01*
X137646366Y-27428778D01*
X137629403Y-27372593D01*
X137629402Y-27372590D01*
X137627619Y-27366685D01*
X137614137Y-27341329D01*
X137533060Y-27188847D01*
X137533059Y-27188845D01*
X137530164Y-27183401D01*
X137470203Y-27109881D01*
X137402861Y-27027311D01*
X137402858Y-27027308D01*
X137398966Y-27022536D01*
X137392021Y-27016790D01*
X137272047Y-26917539D01*
X137239021Y-26890217D01*
X137233604Y-26887288D01*
X137233601Y-26887286D01*
X137061841Y-26794416D01*
X137061836Y-26794414D01*
X137056421Y-26791486D01*
X136858122Y-26730102D01*
X136851997Y-26729458D01*
X136851996Y-26729458D01*
X136657805Y-26709048D01*
X136657803Y-26709048D01*
X136651676Y-26708404D01*
X136565766Y-26716223D01*
X136451087Y-26726659D01*
X136451084Y-26726660D01*
X136444948Y-26727218D01*
X136439042Y-26728956D01*
X136439038Y-26728957D01*
X136326058Y-26762209D01*
X136245811Y-26785827D01*
X136061851Y-26881999D01*
X135900074Y-27012071D01*
X135896116Y-27016788D01*
X135896114Y-27016790D01*
X135844919Y-27077802D01*
X135766642Y-27171089D01*
X135763678Y-27176481D01*
X135763675Y-27176485D01*
X135679064Y-27330392D01*
X135666638Y-27352995D01*
X135603872Y-27550861D01*
X135603186Y-27556978D01*
X135603185Y-27556982D01*
X135594592Y-27633598D01*
X135585751Y-27712413D01*
X135585751Y-28824237D01*
X135586051Y-28827293D01*
X135586051Y-28827300D01*
X135596014Y-28928902D01*
X135600886Y-28978592D01*
X135602341Y-28983411D01*
X135595990Y-29053730D01*
X135552389Y-29109761D01*
X135478777Y-29133500D01*
X134414588Y-29133500D01*
X134397050Y-29132273D01*
X134377685Y-29129551D01*
X134377668Y-29129550D01*
X134373750Y-29128999D01*
X134363696Y-29128858D01*
X134356401Y-29128756D01*
X134356394Y-29128756D01*
X134352437Y-29128701D01*
X134332671Y-29130917D01*
X134324838Y-29131548D01*
X134183015Y-29138514D01*
X134084821Y-29143336D01*
X134084816Y-29143336D01*
X134081731Y-29143488D01*
X134078671Y-29143942D01*
X134078670Y-29143942D01*
X133816691Y-29182800D01*
X133816686Y-29182801D01*
X133813632Y-29183254D01*
X133810636Y-29184004D01*
X133810633Y-29184005D01*
X133563422Y-29245925D01*
X133550722Y-29249106D01*
X133436969Y-29289806D01*
X133298446Y-29339368D01*
X133298439Y-29339371D01*
X133295532Y-29340411D01*
X133292736Y-29341733D01*
X133292732Y-29341735D01*
X133217418Y-29377355D01*
X133050521Y-29456289D01*
X132818047Y-29595625D01*
X132815566Y-29597465D01*
X132602837Y-29755231D01*
X132602830Y-29755237D01*
X132600350Y-29757076D01*
X132475118Y-29870577D01*
X132470533Y-29874325D01*
X132469107Y-29875191D01*
X132460731Y-29882588D01*
X132451951Y-29891368D01*
X132447475Y-29895631D01*
X132437593Y-29904588D01*
X132428814Y-29911848D01*
X132413767Y-29923187D01*
X132398485Y-29938047D01*
X132396017Y-29941139D01*
X132396013Y-29941143D01*
X132376011Y-29966199D01*
X132366635Y-29976684D01*
X132147763Y-30195556D01*
X132124690Y-30213778D01*
X132033845Y-30269666D01*
X132033842Y-30269668D01*
X132027838Y-30273362D01*
X132022803Y-30278293D01*
X132022800Y-30278295D01*
X131903275Y-30395343D01*
X131898243Y-30400271D01*
X131799985Y-30552738D01*
X131797576Y-30559358D01*
X131797574Y-30559361D01*
X131751363Y-30686324D01*
X131737947Y-30723185D01*
X131715213Y-30903140D01*
X131715901Y-30910153D01*
X131715871Y-30912263D01*
X131694917Y-30980097D01*
X131640616Y-31025835D01*
X131589883Y-31036500D01*
X128466494Y-31036500D01*
X128450043Y-31035421D01*
X128430703Y-31032874D01*
X128423170Y-31031882D01*
X128415513Y-31032727D01*
X128385241Y-31032410D01*
X128338068Y-31026198D01*
X128306299Y-31017684D01*
X128248551Y-30993762D01*
X128220068Y-30977316D01*
X128185651Y-30950906D01*
X128172340Y-30939107D01*
X128169932Y-30936648D01*
X128165312Y-30930627D01*
X128137874Y-30908644D01*
X128127562Y-30899407D01*
X127989671Y-30761516D01*
X127955645Y-30699204D01*
X127953551Y-30686465D01*
X127950047Y-30655225D01*
X127948647Y-30642745D01*
X127906517Y-30521763D01*
X127891314Y-30478106D01*
X127891312Y-30478103D01*
X127888995Y-30471448D01*
X127853784Y-30415098D01*
X127796609Y-30323598D01*
X127792876Y-30317624D01*
X127777375Y-30302015D01*
X127743567Y-30239586D01*
X127748878Y-30168788D01*
X127791622Y-30112100D01*
X127825966Y-30094023D01*
X128099486Y-30000376D01*
X128102912Y-29999203D01*
X128416063Y-29849837D01*
X128709972Y-29665468D01*
X128712808Y-29663196D01*
X128712815Y-29663191D01*
X128977906Y-29450813D01*
X128980742Y-29448541D01*
X129177086Y-29250130D01*
X129222234Y-29204507D01*
X129222235Y-29204506D01*
X129224785Y-29201929D01*
X129270555Y-29143556D01*
X129436625Y-28931759D01*
X129436626Y-28931757D01*
X129438865Y-28928902D01*
X129485232Y-28853239D01*
X129570067Y-28714800D01*
X129620146Y-28633079D01*
X129624192Y-28624364D01*
X129732818Y-28390347D01*
X129766224Y-28318380D01*
X129854771Y-28050641D01*
X129874025Y-27992422D01*
X129874026Y-27992417D01*
X129875164Y-27988977D01*
X129878307Y-27973803D01*
X129897489Y-27881172D01*
X129898985Y-27873949D01*
X129932385Y-27811300D01*
X129994354Y-27776653D01*
X130022367Y-27773500D01*
X130752181Y-27773500D01*
X130768627Y-27774578D01*
X130787985Y-27777127D01*
X130787989Y-27777127D01*
X130795516Y-27778118D01*
X130813237Y-27776162D01*
X130835290Y-27775671D01*
X130922802Y-27781407D01*
X130972318Y-27784652D01*
X130988659Y-27786803D01*
X131147778Y-27818454D01*
X131163697Y-27822720D01*
X131280836Y-27862483D01*
X131314616Y-27873949D01*
X131317314Y-27874865D01*
X131332538Y-27881171D01*
X131478045Y-27952926D01*
X131492311Y-27961163D01*
X131528613Y-27985419D01*
X131627200Y-28051293D01*
X131640274Y-28061325D01*
X131684987Y-28100536D01*
X131721468Y-28155495D01*
X131750668Y-28243273D01*
X131754315Y-28249295D01*
X131754316Y-28249297D01*
X131807079Y-28336419D01*
X131844630Y-28398424D01*
X131970632Y-28528902D01*
X132122409Y-28628222D01*
X132129013Y-28630678D01*
X132129015Y-28630679D01*
X132285808Y-28688990D01*
X132285810Y-28688990D01*
X132292418Y-28691448D01*
X132376245Y-28702633D01*
X132465230Y-28714507D01*
X132465234Y-28714507D01*
X132472211Y-28715438D01*
X132479222Y-28714800D01*
X132479226Y-28714800D01*
X132621709Y-28701832D01*
X132652850Y-28698998D01*
X132659552Y-28696820D01*
X132659554Y-28696820D01*
X132818659Y-28645124D01*
X132818662Y-28645123D01*
X132825358Y-28642947D01*
X132963065Y-28560857D01*
X132975110Y-28553677D01*
X132975112Y-28553676D01*
X132981162Y-28550069D01*
X133112516Y-28424982D01*
X133212893Y-28273902D01*
X133261932Y-28144807D01*
X133274805Y-28110920D01*
X133274806Y-28110918D01*
X133277305Y-28104338D01*
X133279314Y-28090041D01*
X133301998Y-27928639D01*
X133301998Y-27928636D01*
X133302549Y-27924717D01*
X133302866Y-27902000D01*
X133282647Y-27721745D01*
X133279397Y-27712413D01*
X133225314Y-27557106D01*
X133225312Y-27557103D01*
X133222995Y-27550448D01*
X133194869Y-27505436D01*
X133130609Y-27402598D01*
X133126876Y-27396624D01*
X133103012Y-27372593D01*
X133004028Y-27272915D01*
X133004024Y-27272912D01*
X132999065Y-27267918D01*
X132845916Y-27170727D01*
X132801404Y-27154877D01*
X132681675Y-27112243D01*
X132681670Y-27112242D01*
X132675040Y-27109881D01*
X132668052Y-27109048D01*
X132668049Y-27109047D01*
X132494930Y-27088404D01*
X132495101Y-27086968D01*
X132430115Y-27066003D01*
X132348280Y-27007938D01*
X132205511Y-26906638D01*
X131946630Y-26763560D01*
X131673357Y-26650367D01*
X131389129Y-26568483D01*
X131097520Y-26518937D01*
X130883957Y-26506944D01*
X130884037Y-26505517D01*
X130882228Y-26505742D01*
X130882228Y-26506500D01*
X130879591Y-26506500D01*
X130876757Y-26506421D01*
X130876119Y-26506500D01*
X130876052Y-26506500D01*
X130872897Y-26506323D01*
X130872788Y-26506309D01*
X130872526Y-26506302D01*
X130833869Y-26504131D01*
X130823177Y-26503071D01*
X130819657Y-26502570D01*
X130819655Y-26502570D01*
X130815561Y-26501987D01*
X130808154Y-26501909D01*
X130806317Y-26501890D01*
X130806315Y-26501890D01*
X130802197Y-26501847D01*
X130798107Y-26502342D01*
X130798106Y-26502342D01*
X130796222Y-26502570D01*
X130771290Y-26505587D01*
X130756155Y-26506500D01*
X130098751Y-26506500D01*
X130030630Y-26486498D01*
X129984137Y-26432842D01*
X129972751Y-26380500D01*
X129972751Y-26216134D01*
X133047751Y-26216134D01*
X133054506Y-26278316D01*
X133105636Y-26414705D01*
X133192990Y-26531261D01*
X133309546Y-26618615D01*
X133445935Y-26669745D01*
X133508117Y-26676500D01*
X135304385Y-26676500D01*
X135366567Y-26669745D01*
X135502956Y-26618615D01*
X135619512Y-26531261D01*
X135706866Y-26414705D01*
X135757996Y-26278316D01*
X135764751Y-26216134D01*
X135764751Y-25505997D01*
X135784753Y-25437876D01*
X135838409Y-25391383D01*
X135908683Y-25381279D01*
X135971067Y-25408913D01*
X136049481Y-25473783D01*
X136054898Y-25476712D01*
X136054901Y-25476714D01*
X136226661Y-25569584D01*
X136226666Y-25569586D01*
X136232081Y-25572514D01*
X136430380Y-25633898D01*
X136436505Y-25634542D01*
X136436506Y-25634542D01*
X136630697Y-25654952D01*
X136630699Y-25654952D01*
X136636826Y-25655596D01*
X136722736Y-25647777D01*
X136837415Y-25637341D01*
X136837418Y-25637340D01*
X136843554Y-25636782D01*
X136849460Y-25635044D01*
X136849464Y-25635043D01*
X137017633Y-25585548D01*
X137042691Y-25578173D01*
X137226651Y-25482001D01*
X137388428Y-25351929D01*
X137393913Y-25345393D01*
X137517901Y-25197629D01*
X137521860Y-25192911D01*
X137524824Y-25187519D01*
X137524827Y-25187515D01*
X137618897Y-25016402D01*
X137621864Y-25011005D01*
X137684630Y-24813139D01*
X137685601Y-24804489D01*
X137702358Y-24655087D01*
X137702751Y-24651587D01*
X137702751Y-24644237D01*
X144225751Y-24644237D01*
X144226051Y-24647293D01*
X144226051Y-24647300D01*
X144239587Y-24785344D01*
X144240886Y-24798592D01*
X144280725Y-24930546D01*
X144290984Y-24964526D01*
X144300883Y-24997315D01*
X144303778Y-25002760D01*
X144303779Y-25002762D01*
X144366419Y-25120568D01*
X144398338Y-25180599D01*
X144437161Y-25228201D01*
X144525641Y-25336689D01*
X144525644Y-25336692D01*
X144529536Y-25341464D01*
X144534284Y-25345392D01*
X144534285Y-25345393D01*
X144611067Y-25408913D01*
X144689481Y-25473783D01*
X144694898Y-25476712D01*
X144694901Y-25476714D01*
X144866661Y-25569584D01*
X144866666Y-25569586D01*
X144872081Y-25572514D01*
X145070380Y-25633898D01*
X145076505Y-25634542D01*
X145076506Y-25634542D01*
X145270697Y-25654952D01*
X145270699Y-25654952D01*
X145276826Y-25655596D01*
X145362736Y-25647777D01*
X145477415Y-25637341D01*
X145477418Y-25637340D01*
X145483554Y-25636782D01*
X145489460Y-25635044D01*
X145489464Y-25635043D01*
X145657633Y-25585548D01*
X145682691Y-25578173D01*
X145866651Y-25482001D01*
X145871447Y-25478145D01*
X145871459Y-25478137D01*
X146000499Y-25374385D01*
X146066121Y-25347288D01*
X146135976Y-25359971D01*
X146187884Y-25408407D01*
X146205451Y-25472581D01*
X146205452Y-26212669D01*
X146205822Y-26219490D01*
X146211346Y-26270352D01*
X146214972Y-26285604D01*
X146260127Y-26406054D01*
X146268665Y-26421649D01*
X146345166Y-26523724D01*
X146357727Y-26536285D01*
X146459802Y-26612786D01*
X146475397Y-26621324D01*
X146595845Y-26666478D01*
X146611100Y-26670105D01*
X146661965Y-26675631D01*
X146668779Y-26676000D01*
X147291336Y-26676000D01*
X147306575Y-26671525D01*
X147307780Y-26670135D01*
X147309451Y-26662452D01*
X147309451Y-26657884D01*
X147817451Y-26657884D01*
X147821926Y-26673123D01*
X147823316Y-26674328D01*
X147830999Y-26675999D01*
X148458120Y-26675999D01*
X148464941Y-26675629D01*
X148515803Y-26670105D01*
X148531055Y-26666479D01*
X148651505Y-26621324D01*
X148667100Y-26612786D01*
X148769175Y-26536285D01*
X148781736Y-26523724D01*
X148858237Y-26421649D01*
X148866775Y-26406054D01*
X148911929Y-26285606D01*
X148915556Y-26270351D01*
X148921082Y-26219486D01*
X148921451Y-26212672D01*
X148921451Y-25590115D01*
X148916976Y-25574876D01*
X148915586Y-25573671D01*
X148907903Y-25572000D01*
X147835566Y-25572000D01*
X147820327Y-25576475D01*
X147819122Y-25577865D01*
X147817451Y-25585548D01*
X147817451Y-26657884D01*
X147309451Y-26657884D01*
X147309451Y-25045885D01*
X147817451Y-25045885D01*
X147821926Y-25061124D01*
X147823316Y-25062329D01*
X147830999Y-25064000D01*
X148903335Y-25064000D01*
X148918574Y-25059525D01*
X148919779Y-25058135D01*
X148921450Y-25050452D01*
X148921450Y-24423331D01*
X148921080Y-24416510D01*
X148915556Y-24365648D01*
X148911930Y-24350396D01*
X148866775Y-24229946D01*
X148858237Y-24214351D01*
X148781736Y-24112276D01*
X148769175Y-24099715D01*
X148667100Y-24023214D01*
X148651505Y-24014676D01*
X148540748Y-23973155D01*
X148483984Y-23930513D01*
X148459284Y-23863952D01*
X148474491Y-23794603D01*
X148496038Y-23765922D01*
X148597508Y-23664805D01*
X148604181Y-23656965D01*
X148728454Y-23484020D01*
X148733764Y-23475183D01*
X148828121Y-23284267D01*
X148831920Y-23274672D01*
X148893828Y-23070910D01*
X148896006Y-23060837D01*
X148897437Y-23049962D01*
X148895226Y-23035778D01*
X148882068Y-23032000D01*
X147835566Y-23032000D01*
X147820327Y-23036475D01*
X147819122Y-23037865D01*
X147817451Y-23045548D01*
X147817451Y-25045885D01*
X147309451Y-25045885D01*
X147309451Y-23050115D01*
X147304976Y-23034876D01*
X147303586Y-23033671D01*
X147295903Y-23032000D01*
X146253318Y-23032000D01*
X146185197Y-23011998D01*
X146155675Y-22985635D01*
X146042865Y-22847316D01*
X146042860Y-22847311D01*
X146038966Y-22842536D01*
X146032021Y-22836790D01*
X145883769Y-22714145D01*
X145883770Y-22714145D01*
X145879021Y-22710217D01*
X145873604Y-22707288D01*
X145873601Y-22707286D01*
X145701841Y-22614416D01*
X145701836Y-22614414D01*
X145696421Y-22611486D01*
X145498122Y-22550102D01*
X145491997Y-22549458D01*
X145491996Y-22549458D01*
X145297805Y-22529048D01*
X145297803Y-22529048D01*
X145291676Y-22528404D01*
X145214958Y-22535386D01*
X145091087Y-22546659D01*
X145091084Y-22546660D01*
X145084948Y-22547218D01*
X145079042Y-22548956D01*
X145079038Y-22548957D01*
X144931183Y-22592473D01*
X144885811Y-22605827D01*
X144701851Y-22701999D01*
X144540074Y-22832071D01*
X144536116Y-22836788D01*
X144536114Y-22836790D01*
X144491877Y-22889510D01*
X144406642Y-22991089D01*
X144403678Y-22996481D01*
X144403675Y-22996485D01*
X144330307Y-23129942D01*
X144306638Y-23172995D01*
X144243872Y-23370861D01*
X144243186Y-23376978D01*
X144243185Y-23376982D01*
X144237338Y-23429112D01*
X144225751Y-23532413D01*
X144225751Y-24644237D01*
X137702751Y-24644237D01*
X137702751Y-23539763D01*
X137702031Y-23532413D01*
X137688217Y-23391534D01*
X137688216Y-23391531D01*
X137687616Y-23385408D01*
X137639150Y-23224877D01*
X137629403Y-23192593D01*
X137629402Y-23192590D01*
X137627619Y-23186685D01*
X137617470Y-23167598D01*
X137533060Y-23008847D01*
X137533059Y-23008845D01*
X137530164Y-23003401D01*
X137437265Y-22889495D01*
X137402861Y-22847311D01*
X137402858Y-22847308D01*
X137398966Y-22842536D01*
X137392021Y-22836790D01*
X137243769Y-22714145D01*
X137243770Y-22714145D01*
X137239021Y-22710217D01*
X137233604Y-22707288D01*
X137233601Y-22707286D01*
X137061841Y-22614416D01*
X137061836Y-22614414D01*
X137056421Y-22611486D01*
X136858122Y-22550102D01*
X136851997Y-22549458D01*
X136851996Y-22549458D01*
X136657805Y-22529048D01*
X136657803Y-22529048D01*
X136651676Y-22528404D01*
X136574958Y-22535386D01*
X136451087Y-22546659D01*
X136451084Y-22546660D01*
X136444948Y-22547218D01*
X136439042Y-22548956D01*
X136439038Y-22548957D01*
X136291183Y-22592473D01*
X136245811Y-22605827D01*
X136061851Y-22701999D01*
X135900074Y-22832071D01*
X135770601Y-22986371D01*
X135770081Y-22986991D01*
X135710971Y-23026318D01*
X135673559Y-23032000D01*
X133089476Y-23032000D01*
X133075945Y-23035973D01*
X133074508Y-23045966D01*
X133104816Y-23180446D01*
X133107896Y-23190275D01*
X133188021Y-23387603D01*
X133192664Y-23396794D01*
X133303945Y-23578388D01*
X133310028Y-23586699D01*
X133449464Y-23747667D01*
X133456828Y-23754879D01*
X133461773Y-23758985D01*
X133501407Y-23817889D01*
X133502904Y-23888870D01*
X133465788Y-23949392D01*
X133425515Y-23973910D01*
X133317956Y-24014232D01*
X133317955Y-24014233D01*
X133309546Y-24017385D01*
X133192990Y-24104739D01*
X133105636Y-24221295D01*
X133054506Y-24357684D01*
X133047751Y-24419866D01*
X133047751Y-26216134D01*
X129972751Y-26216134D01*
X129972751Y-25120568D01*
X129972510Y-25116384D01*
X129958087Y-24866246D01*
X129958086Y-24866241D01*
X129957878Y-24862626D01*
X129913537Y-24608564D01*
X129898851Y-24524415D01*
X129898849Y-24524408D01*
X129898227Y-24520842D01*
X129895714Y-24512356D01*
X129848563Y-24353179D01*
X129799688Y-24188180D01*
X129789353Y-24163949D01*
X129664991Y-23872386D01*
X129664989Y-23872383D01*
X129663567Y-23869048D01*
X129660661Y-23863952D01*
X129493459Y-23570816D01*
X129491668Y-23567676D01*
X129468354Y-23535937D01*
X129357778Y-23385408D01*
X129286269Y-23288060D01*
X129282745Y-23284267D01*
X129080746Y-23066891D01*
X129050093Y-23033904D01*
X128786270Y-22808578D01*
X128498298Y-22615069D01*
X128353363Y-22540262D01*
X128193212Y-22457602D01*
X128189992Y-22455940D01*
X127865440Y-22333302D01*
X127861919Y-22332418D01*
X127861914Y-22332416D01*
X127628174Y-22273705D01*
X127566978Y-22237710D01*
X127534957Y-22174345D01*
X127542277Y-22103727D01*
X127586615Y-22048276D01*
X127658869Y-22025501D01*
X133060899Y-22025501D01*
X133129020Y-22045503D01*
X133175513Y-22099159D01*
X133185617Y-22169433D01*
X133175187Y-22204551D01*
X133129589Y-22302783D01*
X133126026Y-22312470D01*
X133070640Y-22512183D01*
X133072163Y-22520607D01*
X133084543Y-22524000D01*
X135724595Y-22524000D01*
X135738126Y-22520027D01*
X135739431Y-22510947D01*
X135697465Y-22343875D01*
X135694145Y-22334124D01*
X135636585Y-22201743D01*
X135627765Y-22131296D01*
X135658432Y-22067265D01*
X135718849Y-22029977D01*
X135752135Y-22025501D01*
X140994967Y-22025500D01*
X146218100Y-22025500D01*
X146286220Y-22045502D01*
G37*
%TD.AperFunction*%
%TA.AperFunction,Conductor*%
G36*
X158934279Y-22027000D02*
G01*
X158957988Y-22030691D01*
X158973244Y-22028696D01*
X158998567Y-22027953D01*
X159017533Y-22029309D01*
X159167543Y-22040034D01*
X159185332Y-22042592D01*
X159375669Y-22083993D01*
X159392916Y-22089057D01*
X159575421Y-22157124D01*
X159591774Y-22164591D01*
X159762743Y-22257943D01*
X159777857Y-22267656D01*
X159933797Y-22384387D01*
X159947378Y-22396155D01*
X160071834Y-22520607D01*
X160085114Y-22533887D01*
X160096888Y-22547473D01*
X160112376Y-22568163D01*
X160213622Y-22703410D01*
X160223341Y-22718534D01*
X160316695Y-22889495D01*
X160324163Y-22905848D01*
X160392232Y-23088345D01*
X160397297Y-23105594D01*
X160421331Y-23216071D01*
X160436414Y-23285405D01*
X160438702Y-23295924D01*
X160441261Y-23313717D01*
X160444451Y-23358326D01*
X160452823Y-23475385D01*
X160452032Y-23494431D01*
X160451941Y-23501852D01*
X160450560Y-23510723D01*
X160451724Y-23519625D01*
X160451724Y-23519627D01*
X160453022Y-23529551D01*
X160454358Y-23539763D01*
X160454687Y-23542282D01*
X160455751Y-23558620D01*
X160455751Y-31467633D01*
X160454251Y-31487018D01*
X160451941Y-31501851D01*
X160451941Y-31501855D01*
X160450560Y-31510724D01*
X160452555Y-31525976D01*
X160453298Y-31551302D01*
X160441795Y-31712137D01*
X160441213Y-31720273D01*
X160438655Y-31738064D01*
X160397251Y-31928390D01*
X160392186Y-31945639D01*
X160324116Y-32128137D01*
X160316649Y-32144487D01*
X160261954Y-32244653D01*
X160223302Y-32315437D01*
X160213584Y-32330559D01*
X160138701Y-32430590D01*
X160096852Y-32486493D01*
X160085078Y-32500079D01*
X159947347Y-32637807D01*
X159933767Y-32649575D01*
X159777830Y-32766304D01*
X159762713Y-32776018D01*
X159651897Y-32836526D01*
X159597296Y-32866340D01*
X159591761Y-32869362D01*
X159575410Y-32876830D01*
X159393734Y-32944587D01*
X159392903Y-32944897D01*
X159375656Y-32949961D01*
X159185325Y-32991360D01*
X159167536Y-32993918D01*
X159005448Y-33005507D01*
X158988387Y-33004797D01*
X158988387Y-33004801D01*
X158979413Y-33004691D01*
X158970540Y-33003309D01*
X158961637Y-33004473D01*
X158961636Y-33004473D01*
X158938965Y-33007437D01*
X158922631Y-33008500D01*
X155017487Y-33008500D01*
X154996589Y-33006755D01*
X154981577Y-33004230D01*
X154981575Y-33004230D01*
X154976778Y-33003423D01*
X154971914Y-33003364D01*
X154971913Y-33003364D01*
X154970274Y-33003344D01*
X154964226Y-33003271D01*
X154950473Y-33005241D01*
X154950148Y-33005288D01*
X154941274Y-33006241D01*
X154748996Y-33020002D01*
X154744595Y-33020960D01*
X154744592Y-33020960D01*
X154542556Y-33064919D01*
X154542554Y-33064919D01*
X154538149Y-33065878D01*
X154533929Y-33067452D01*
X154533926Y-33067453D01*
X154340192Y-33139720D01*
X154340188Y-33139722D01*
X154335976Y-33141293D01*
X154146594Y-33244712D01*
X153973857Y-33374029D01*
X153821281Y-33526613D01*
X153818584Y-33530216D01*
X153694667Y-33695755D01*
X153694664Y-33695760D01*
X153691972Y-33699356D01*
X153588562Y-33888744D01*
X153586990Y-33892959D01*
X153586989Y-33892961D01*
X153576769Y-33920364D01*
X153513157Y-34090920D01*
X153467291Y-34301769D01*
X153466970Y-34306259D01*
X153454239Y-34484271D01*
X153453059Y-34494671D01*
X153451941Y-34501847D01*
X153451941Y-34501856D01*
X153450560Y-34510724D01*
X153451724Y-34519626D01*
X153451724Y-34519628D01*
X153454687Y-34542283D01*
X153455751Y-34558621D01*
X153455751Y-44417633D01*
X153454251Y-44437018D01*
X153450560Y-44460724D01*
X153451724Y-44469626D01*
X153451740Y-44469750D01*
X153452011Y-44500192D01*
X153445019Y-44562252D01*
X153438741Y-44589759D01*
X153421516Y-44638982D01*
X153411768Y-44666840D01*
X153399526Y-44692259D01*
X153367704Y-44742902D01*
X153356079Y-44761402D01*
X153338487Y-44783460D01*
X153309609Y-44812337D01*
X153280741Y-44841203D01*
X153258683Y-44858792D01*
X153189540Y-44902236D01*
X153164119Y-44914477D01*
X153121359Y-44929438D01*
X153087037Y-44941446D01*
X153059535Y-44947722D01*
X153003669Y-44954014D01*
X152988031Y-44954796D01*
X152979422Y-44954691D01*
X152970552Y-44953309D01*
X152946324Y-44956476D01*
X152938972Y-44957437D01*
X152922641Y-44958500D01*
X152668762Y-44958500D01*
X152600641Y-44938498D01*
X152554148Y-44884842D01*
X152544044Y-44814568D01*
X152573538Y-44749988D01*
X152581870Y-44741254D01*
X152633309Y-44692269D01*
X152689266Y-44638982D01*
X152789643Y-44487902D01*
X152854055Y-44318338D01*
X152855035Y-44311366D01*
X152878748Y-44142639D01*
X152878748Y-44142636D01*
X152879299Y-44138717D01*
X152879616Y-44116000D01*
X152859397Y-43935745D01*
X152857080Y-43929091D01*
X152802064Y-43771106D01*
X152802062Y-43771103D01*
X152799745Y-43764448D01*
X152718646Y-43634661D01*
X152699500Y-43567892D01*
X152699500Y-35248651D01*
X152700578Y-35232206D01*
X152703127Y-35212847D01*
X152703127Y-35212843D01*
X152704118Y-35205315D01*
X152701978Y-35185932D01*
X152701415Y-35165041D01*
X152714008Y-34940734D01*
X152715589Y-34926701D01*
X152750786Y-34719531D01*
X152757670Y-34679015D01*
X152760814Y-34665240D01*
X152830360Y-34423828D01*
X152835027Y-34410491D01*
X152931164Y-34178390D01*
X152937294Y-34165660D01*
X153011886Y-34030691D01*
X153058818Y-33945771D01*
X153066333Y-33933811D01*
X153072366Y-33925309D01*
X153211709Y-33728920D01*
X153220516Y-33717875D01*
X153248357Y-33686721D01*
X153365232Y-33555935D01*
X153382478Y-33539933D01*
X153385150Y-33537883D01*
X153391176Y-33533259D01*
X153395922Y-33527335D01*
X153395925Y-33527332D01*
X153413156Y-33505823D01*
X153422396Y-33495508D01*
X154495341Y-32422564D01*
X154508785Y-32410898D01*
X154523950Y-32399512D01*
X154523956Y-32399507D01*
X154527259Y-32397027D01*
X154536808Y-32387676D01*
X154538809Y-32385124D01*
X154539295Y-32384822D01*
X154539149Y-32384690D01*
X154601918Y-32315437D01*
X154776371Y-32122963D01*
X154989043Y-31836215D01*
X155172584Y-31530002D01*
X155174489Y-31525976D01*
X155313721Y-31231600D01*
X155325227Y-31207273D01*
X155377279Y-31061800D01*
X155444458Y-30874052D01*
X155444460Y-30874045D01*
X155445501Y-30871136D01*
X155452827Y-30841892D01*
X155531497Y-30527831D01*
X155532249Y-30524829D01*
X155541055Y-30465469D01*
X155564299Y-30308771D01*
X155574726Y-30238478D01*
X155604507Y-30174029D01*
X155664404Y-30135913D01*
X155672520Y-30133858D01*
X155771123Y-30112359D01*
X155771124Y-30112359D01*
X155774668Y-30111586D01*
X155778095Y-30110413D01*
X155778101Y-30110411D01*
X156099486Y-30000376D01*
X156102912Y-29999203D01*
X156416063Y-29849837D01*
X156709972Y-29665468D01*
X156712808Y-29663196D01*
X156712815Y-29663191D01*
X156977906Y-29450813D01*
X156980742Y-29448541D01*
X157177086Y-29250130D01*
X157222234Y-29204507D01*
X157222235Y-29204506D01*
X157224785Y-29201929D01*
X157270555Y-29143556D01*
X157436625Y-28931759D01*
X157436626Y-28931757D01*
X157438865Y-28928902D01*
X157485232Y-28853239D01*
X157570067Y-28714800D01*
X157620146Y-28633079D01*
X157624192Y-28624364D01*
X157732818Y-28390347D01*
X157766224Y-28318380D01*
X157854771Y-28050641D01*
X157874025Y-27992422D01*
X157874026Y-27992417D01*
X157875164Y-27988977D01*
X157878307Y-27973803D01*
X157944786Y-27652786D01*
X157944786Y-27652783D01*
X157945521Y-27649236D01*
X157965027Y-27430673D01*
X157972502Y-27346924D01*
X157972502Y-27346918D01*
X157972751Y-27344131D01*
X157972751Y-25120568D01*
X157972510Y-25116384D01*
X157958087Y-24866246D01*
X157958086Y-24866241D01*
X157957878Y-24862626D01*
X157913537Y-24608564D01*
X157898851Y-24524415D01*
X157898849Y-24524408D01*
X157898227Y-24520842D01*
X157895714Y-24512356D01*
X157848563Y-24353179D01*
X157799688Y-24188180D01*
X157789353Y-24163949D01*
X157664991Y-23872386D01*
X157664989Y-23872383D01*
X157663567Y-23869048D01*
X157660661Y-23863952D01*
X157493459Y-23570816D01*
X157491668Y-23567676D01*
X157468354Y-23535937D01*
X157357778Y-23385408D01*
X157286269Y-23288060D01*
X157282745Y-23284267D01*
X157080746Y-23066891D01*
X157050093Y-23033904D01*
X156786270Y-22808578D01*
X156498298Y-22615069D01*
X156353363Y-22540262D01*
X156193212Y-22457602D01*
X156189992Y-22455940D01*
X155865440Y-22333302D01*
X155861919Y-22332418D01*
X155861914Y-22332416D01*
X155628170Y-22273704D01*
X155566974Y-22237709D01*
X155534953Y-22174344D01*
X155542273Y-22103726D01*
X155586611Y-22048275D01*
X155658865Y-22025500D01*
X158914897Y-22025500D01*
X158934279Y-22027000D01*
G37*
%TD.AperFunction*%
%TA.AperFunction,Conductor*%
G36*
X104186998Y-26549442D02*
G01*
X104279295Y-26618615D01*
X104415684Y-26669745D01*
X104423536Y-26670598D01*
X104423540Y-26670599D01*
X104451478Y-26673633D01*
X104459108Y-26674462D01*
X104524669Y-26701703D01*
X104565096Y-26760066D01*
X104571500Y-26799725D01*
X104571500Y-26876701D01*
X104570274Y-26894238D01*
X104568068Y-26909936D01*
X104566999Y-26917539D01*
X104566701Y-26938852D01*
X104567596Y-26946828D01*
X104568261Y-26952762D01*
X104568926Y-26961309D01*
X104579206Y-27196816D01*
X104582258Y-27266739D01*
X104625092Y-27592130D01*
X104625683Y-27594795D01*
X104625684Y-27594802D01*
X104654069Y-27722845D01*
X104696124Y-27912550D01*
X104696945Y-27915155D01*
X104696948Y-27915165D01*
X104729271Y-28017682D01*
X104794812Y-28225560D01*
X104920405Y-28528777D01*
X104921673Y-28531213D01*
X104921674Y-28531215D01*
X104930907Y-28548952D01*
X105071947Y-28819894D01*
X105248285Y-29096696D01*
X105249947Y-29098862D01*
X105249954Y-29098872D01*
X105337993Y-29213608D01*
X105448077Y-29357075D01*
X105449937Y-29359105D01*
X105449943Y-29359112D01*
X105610781Y-29534640D01*
X105612129Y-29536137D01*
X105612179Y-29536190D01*
X105613464Y-29537645D01*
X105613438Y-29537668D01*
X105614029Y-29538836D01*
X105614354Y-29538538D01*
X105638388Y-29564767D01*
X105646110Y-29574053D01*
X105651701Y-29581472D01*
X105651705Y-29581477D01*
X105654082Y-29584631D01*
X105668941Y-29599912D01*
X105672033Y-29602380D01*
X105672037Y-29602384D01*
X105697093Y-29622386D01*
X105707578Y-29631762D01*
X106116529Y-30040713D01*
X106128061Y-30053978D01*
X106142229Y-30072779D01*
X106144992Y-30075620D01*
X106153820Y-30084698D01*
X106157089Y-30088060D01*
X106167740Y-30096562D01*
X106174238Y-30102122D01*
X106399926Y-30308924D01*
X106488940Y-30377226D01*
X106658129Y-30507047D01*
X106658139Y-30507054D01*
X106660305Y-30508716D01*
X106937107Y-30685054D01*
X107035940Y-30736502D01*
X107151339Y-30796573D01*
X107228224Y-30836596D01*
X107531441Y-30962189D01*
X107534060Y-30963015D01*
X107534069Y-30963018D01*
X107634776Y-30994769D01*
X107844451Y-31060876D01*
X107847120Y-31061468D01*
X107847125Y-31061469D01*
X108162198Y-31131316D01*
X108162206Y-31131317D01*
X108164870Y-31131908D01*
X108490261Y-31174742D01*
X108493011Y-31174862D01*
X108493022Y-31174863D01*
X108661292Y-31182208D01*
X108729461Y-31185183D01*
X108731679Y-31185300D01*
X108734902Y-31185500D01*
X108736635Y-31185500D01*
X108737197Y-31185521D01*
X108761024Y-31186561D01*
X108771414Y-31187014D01*
X108783440Y-31188119D01*
X108796835Y-31190001D01*
X108801920Y-31190072D01*
X108802547Y-31190081D01*
X108803025Y-31190229D01*
X108804744Y-31190361D01*
X108804714Y-31190750D01*
X108870381Y-31211036D01*
X108916117Y-31265338D01*
X108925235Y-31335747D01*
X108918763Y-31360298D01*
X108885029Y-31450282D01*
X108885027Y-31450288D01*
X108882255Y-31457684D01*
X108875500Y-31519866D01*
X108875500Y-32974300D01*
X108855498Y-33042421D01*
X108801842Y-33088914D01*
X108794488Y-33091777D01*
X108791248Y-33093219D01*
X108784971Y-33095259D01*
X108779256Y-33098559D01*
X108774107Y-33100851D01*
X108749206Y-33107945D01*
X108749229Y-33108024D01*
X108720797Y-33116150D01*
X108704035Y-33119728D01*
X108674763Y-33123920D01*
X108666595Y-33127634D01*
X108666594Y-33127634D01*
X108651388Y-33134548D01*
X108633864Y-33140996D01*
X108609179Y-33148051D01*
X108601585Y-33152843D01*
X108601582Y-33152844D01*
X108584170Y-33163830D01*
X108569087Y-33171969D01*
X108542168Y-33184208D01*
X108540524Y-33185624D01*
X108475646Y-33204516D01*
X108412930Y-33187635D01*
X108258652Y-33098563D01*
X108258651Y-33098562D01*
X108252929Y-33095259D01*
X108107767Y-33048093D01*
X108078840Y-33038694D01*
X108078839Y-33038694D01*
X108072561Y-33036654D01*
X108065998Y-33035964D01*
X108065997Y-33035964D01*
X108042563Y-33033501D01*
X107931236Y-33021800D01*
X107836664Y-33021800D01*
X107725337Y-33033501D01*
X107701903Y-33035964D01*
X107701902Y-33035964D01*
X107695339Y-33036654D01*
X107689061Y-33038694D01*
X107689060Y-33038694D01*
X107660133Y-33048093D01*
X107514971Y-33095259D01*
X107509249Y-33098562D01*
X107509248Y-33098563D01*
X107494240Y-33107228D01*
X107350729Y-33190084D01*
X107333258Y-33205815D01*
X107269252Y-33236531D01*
X107198799Y-33227766D01*
X107164643Y-33205816D01*
X107147171Y-33190084D01*
X107003660Y-33107228D01*
X106988652Y-33098563D01*
X106988651Y-33098562D01*
X106982929Y-33095259D01*
X106837767Y-33048093D01*
X106808840Y-33038694D01*
X106808839Y-33038694D01*
X106802561Y-33036654D01*
X106795998Y-33035964D01*
X106795997Y-33035964D01*
X106772563Y-33033501D01*
X106661236Y-33021800D01*
X106566664Y-33021800D01*
X106455337Y-33033501D01*
X106431903Y-33035964D01*
X106431902Y-33035964D01*
X106425339Y-33036654D01*
X106419061Y-33038694D01*
X106419060Y-33038694D01*
X106390133Y-33048093D01*
X106244971Y-33095259D01*
X106239249Y-33098562D01*
X106239248Y-33098563D01*
X106224240Y-33107228D01*
X106080729Y-33190084D01*
X106063258Y-33205815D01*
X105999252Y-33236531D01*
X105928799Y-33227766D01*
X105894643Y-33205816D01*
X105877171Y-33190084D01*
X105733660Y-33107228D01*
X105718652Y-33098563D01*
X105718651Y-33098562D01*
X105712929Y-33095259D01*
X105567767Y-33048093D01*
X105538840Y-33038694D01*
X105538839Y-33038694D01*
X105532561Y-33036654D01*
X105525998Y-33035964D01*
X105525997Y-33035964D01*
X105502563Y-33033501D01*
X105391236Y-33021800D01*
X105296664Y-33021800D01*
X105185337Y-33033501D01*
X105161903Y-33035964D01*
X105161902Y-33035964D01*
X105155339Y-33036654D01*
X105149061Y-33038694D01*
X105149060Y-33038694D01*
X105120133Y-33048093D01*
X104974971Y-33095259D01*
X104969249Y-33098562D01*
X104969248Y-33098563D01*
X104816451Y-33186780D01*
X104816448Y-33186782D01*
X104810729Y-33190084D01*
X104805818Y-33194506D01*
X104805815Y-33194508D01*
X104801656Y-33198252D01*
X104737647Y-33228966D01*
X104667194Y-33220199D01*
X104633942Y-33199053D01*
X104628796Y-33194508D01*
X104620999Y-33187622D01*
X104594237Y-33175057D01*
X104579259Y-33166737D01*
X104561967Y-33155529D01*
X104561962Y-33155527D01*
X104554435Y-33150648D01*
X104545840Y-33148078D01*
X104545839Y-33148077D01*
X104536262Y-33145213D01*
X104509366Y-33133615D01*
X104448657Y-33098565D01*
X104448649Y-33098562D01*
X104442929Y-33095259D01*
X104436647Y-33093218D01*
X104436645Y-33093217D01*
X104268840Y-33038694D01*
X104268839Y-33038694D01*
X104262561Y-33036654D01*
X104255998Y-33035964D01*
X104255997Y-33035964D01*
X104232563Y-33033501D01*
X104121236Y-33021800D01*
X104112568Y-33021800D01*
X104044447Y-33001798D01*
X103997954Y-32948142D01*
X103986568Y-32895823D01*
X103986567Y-32886286D01*
X103985756Y-28429841D01*
X103985433Y-26650291D01*
X104005423Y-26582167D01*
X104059070Y-26535664D01*
X104129342Y-26525547D01*
X104186998Y-26549442D01*
G37*
%TD.AperFunction*%
%TA.AperFunction,Conductor*%
G36*
X117255969Y-22045503D02*
G01*
X117302462Y-22099159D01*
X117312566Y-22169433D01*
X117302136Y-22204551D01*
X117256538Y-22302783D01*
X117252975Y-22312470D01*
X117197589Y-22512183D01*
X117199112Y-22520607D01*
X117211492Y-22524000D01*
X118661200Y-22524000D01*
X118729321Y-22544002D01*
X118775814Y-22597658D01*
X118787200Y-22650000D01*
X118787200Y-26657884D01*
X118791675Y-26673123D01*
X118793065Y-26674328D01*
X118800748Y-26675999D01*
X119427869Y-26675999D01*
X119434690Y-26675629D01*
X119485552Y-26670105D01*
X119500806Y-26666478D01*
X119622454Y-26620875D01*
X119693261Y-26615692D01*
X119755630Y-26649613D01*
X119781789Y-26687606D01*
X119787568Y-26700585D01*
X119791448Y-26705926D01*
X119791449Y-26705927D01*
X119865565Y-26807939D01*
X119889424Y-26874807D01*
X119873343Y-26943959D01*
X119865565Y-26956061D01*
X119793234Y-27055617D01*
X119787568Y-27063415D01*
X119784884Y-27069443D01*
X119784883Y-27069445D01*
X119729464Y-27193918D01*
X119710430Y-27236669D01*
X119704039Y-27266739D01*
X119682795Y-27366685D01*
X119671000Y-27422175D01*
X119671000Y-27611825D01*
X119672372Y-27618278D01*
X119672372Y-27618282D01*
X119685318Y-27679188D01*
X119710430Y-27797331D01*
X119713114Y-27803360D01*
X119713115Y-27803362D01*
X119760538Y-27909874D01*
X119787568Y-27970585D01*
X119791448Y-27975926D01*
X119791449Y-27975927D01*
X119865565Y-28077939D01*
X119889424Y-28144807D01*
X119873343Y-28213959D01*
X119865565Y-28226061D01*
X119798492Y-28318380D01*
X119787568Y-28333415D01*
X119784884Y-28339443D01*
X119784883Y-28339445D01*
X119744636Y-28429841D01*
X119710430Y-28506669D01*
X119695800Y-28575500D01*
X119681464Y-28642947D01*
X119671000Y-28692175D01*
X119671000Y-28881825D01*
X119672372Y-28888278D01*
X119672372Y-28888282D01*
X119690265Y-28972463D01*
X119710430Y-29067331D01*
X119713114Y-29073360D01*
X119713115Y-29073362D01*
X119770509Y-29202269D01*
X119787568Y-29240585D01*
X119791448Y-29245925D01*
X119852904Y-29330513D01*
X119876762Y-29397381D01*
X119860681Y-29466532D01*
X119849506Y-29482329D01*
X119846073Y-29485287D01*
X119841189Y-29492822D01*
X119832106Y-29506835D01*
X119820815Y-29521709D01*
X119812357Y-29531287D01*
X119803822Y-29540951D01*
X119792643Y-29564761D01*
X119791258Y-29567711D01*
X119782937Y-29582691D01*
X119771729Y-29599983D01*
X119771727Y-29599988D01*
X119766848Y-29607515D01*
X119764278Y-29616108D01*
X119764276Y-29616113D01*
X119759489Y-29632120D01*
X119752828Y-29649564D01*
X119745733Y-29664676D01*
X119741919Y-29672800D01*
X119740538Y-29681667D01*
X119740538Y-29681668D01*
X119737370Y-29702015D01*
X119733587Y-29718732D01*
X119727685Y-29738466D01*
X119727684Y-29738472D01*
X119725114Y-29747066D01*
X119725059Y-29756037D01*
X119725059Y-29756038D01*
X119724904Y-29781497D01*
X119724871Y-29782289D01*
X119724700Y-29783386D01*
X119724700Y-29814377D01*
X119724698Y-29815147D01*
X119724224Y-29892721D01*
X119724608Y-29894065D01*
X119724700Y-29895410D01*
X119724700Y-32982500D01*
X119704698Y-33050621D01*
X119651042Y-33097114D01*
X119598700Y-33108500D01*
X114150997Y-33108500D01*
X114082876Y-33088498D01*
X114036383Y-33034842D01*
X114026279Y-32964568D01*
X114037236Y-32929261D01*
X114037234Y-32929260D01*
X114037242Y-32929239D01*
X114038037Y-32926678D01*
X114039139Y-32924449D01*
X114039144Y-32924437D01*
X114041430Y-32919811D01*
X114085118Y-32776018D01*
X114104865Y-32711023D01*
X114104865Y-32711021D01*
X114106370Y-32706069D01*
X114135529Y-32484590D01*
X114135611Y-32481240D01*
X114137074Y-32421365D01*
X114137074Y-32421361D01*
X114137156Y-32418000D01*
X114118852Y-32195361D01*
X114064431Y-31978702D01*
X113975354Y-31773840D01*
X113900820Y-31658628D01*
X113856822Y-31590617D01*
X113856820Y-31590614D01*
X113854014Y-31586277D01*
X113703670Y-31421051D01*
X113679777Y-31402181D01*
X113638715Y-31344264D01*
X113635483Y-31273341D01*
X113671109Y-31211930D01*
X113734280Y-31179528D01*
X113757870Y-31177300D01*
X114081282Y-31177300D01*
X114125202Y-31185203D01*
X114180558Y-31205790D01*
X114180560Y-31205791D01*
X114187168Y-31208248D01*
X114270072Y-31219310D01*
X114359980Y-31231307D01*
X114359984Y-31231307D01*
X114366961Y-31232238D01*
X114373972Y-31231600D01*
X114373976Y-31231600D01*
X114516459Y-31218632D01*
X114547600Y-31215798D01*
X114554302Y-31213620D01*
X114554304Y-31213620D01*
X114713409Y-31161924D01*
X114713412Y-31161923D01*
X114720108Y-31159747D01*
X114875912Y-31066869D01*
X115007266Y-30941782D01*
X115107643Y-30790702D01*
X115155392Y-30665004D01*
X115169555Y-30627720D01*
X115169556Y-30627718D01*
X115172055Y-30621138D01*
X115175488Y-30596712D01*
X115196748Y-30445439D01*
X115196748Y-30445436D01*
X115197299Y-30441517D01*
X115197616Y-30418800D01*
X115177397Y-30238545D01*
X115166071Y-30206022D01*
X115120064Y-30073906D01*
X115120062Y-30073903D01*
X115117745Y-30067248D01*
X115021626Y-29913424D01*
X115016653Y-29908416D01*
X114898778Y-29789715D01*
X114898774Y-29789712D01*
X114893815Y-29784718D01*
X114848623Y-29756038D01*
X114804314Y-29727919D01*
X114740666Y-29687527D01*
X114683421Y-29667143D01*
X114576425Y-29629043D01*
X114576420Y-29629042D01*
X114569790Y-29626681D01*
X114562802Y-29625848D01*
X114562799Y-29625847D01*
X114409060Y-29607515D01*
X114389680Y-29605204D01*
X114382677Y-29605940D01*
X114382676Y-29605940D01*
X114216288Y-29623428D01*
X114216286Y-29623429D01*
X114209288Y-29624164D01*
X114159574Y-29641088D01*
X114122884Y-29653578D01*
X114082279Y-29660300D01*
X109464138Y-29660300D01*
X109421871Y-29652999D01*
X109411686Y-29649372D01*
X109389239Y-29641379D01*
X109377624Y-29637243D01*
X109377622Y-29637243D01*
X109370990Y-29634881D01*
X109364002Y-29634048D01*
X109363999Y-29634047D01*
X109240898Y-29619368D01*
X109190880Y-29613404D01*
X109183877Y-29614140D01*
X109183876Y-29614140D01*
X109017488Y-29631628D01*
X109017486Y-29631629D01*
X109010488Y-29632364D01*
X108928426Y-29660300D01*
X108924084Y-29661778D01*
X108883479Y-29668500D01*
X108874120Y-29668500D01*
X108858330Y-29667507D01*
X108842188Y-29665468D01*
X108828785Y-29663775D01*
X108804107Y-29666195D01*
X108784751Y-29666599D01*
X108574219Y-29654778D01*
X108560195Y-29653198D01*
X108490627Y-29641379D01*
X108426819Y-29610249D01*
X108389971Y-29549563D01*
X108391781Y-29478590D01*
X108415210Y-29436170D01*
X108450154Y-29394526D01*
X108453121Y-29389128D01*
X108453125Y-29389123D01*
X108542467Y-29226608D01*
X108545433Y-29221213D01*
X108547846Y-29213608D01*
X108603373Y-29038564D01*
X108603373Y-29038563D01*
X108605235Y-29032694D01*
X108622500Y-28878773D01*
X108622500Y-28659138D01*
X108642502Y-28591017D01*
X108696158Y-28544524D01*
X108766432Y-28534420D01*
X108775986Y-28536172D01*
X108833161Y-28548952D01*
X108950543Y-28575190D01*
X108956088Y-28575500D01*
X109089244Y-28575500D01*
X109224037Y-28560857D01*
X109365866Y-28513126D01*
X109389204Y-28505272D01*
X109389206Y-28505271D01*
X109395675Y-28503094D01*
X109550905Y-28409823D01*
X109555862Y-28405135D01*
X109555865Y-28405133D01*
X109677527Y-28290082D01*
X109677529Y-28290080D01*
X109682485Y-28285393D01*
X109686317Y-28279755D01*
X109686320Y-28279751D01*
X109780442Y-28141255D01*
X109784277Y-28135612D01*
X109851530Y-27967466D01*
X109852644Y-27960738D01*
X109852645Y-27960734D01*
X109879993Y-27795539D01*
X109879993Y-27795536D01*
X109881108Y-27788802D01*
X109880549Y-27778118D01*
X109876203Y-27695198D01*
X113986892Y-27695198D01*
X113987249Y-27702015D01*
X113987249Y-27702019D01*
X113992561Y-27803362D01*
X113996370Y-27876047D01*
X113998181Y-27882620D01*
X113998181Y-27882623D01*
X114019815Y-27961165D01*
X114044461Y-28050641D01*
X114128922Y-28210836D01*
X114133327Y-28216049D01*
X114133330Y-28216053D01*
X114241406Y-28343943D01*
X114241410Y-28343947D01*
X114245813Y-28349157D01*
X114251237Y-28353304D01*
X114251238Y-28353305D01*
X114384257Y-28455006D01*
X114384261Y-28455009D01*
X114389678Y-28459150D01*
X114483916Y-28503094D01*
X114547631Y-28532805D01*
X114547634Y-28532806D01*
X114553808Y-28535685D01*
X114560456Y-28537171D01*
X114560459Y-28537172D01*
X114656686Y-28558681D01*
X114730543Y-28575190D01*
X114736088Y-28575500D01*
X114869244Y-28575500D01*
X115004037Y-28560857D01*
X115079312Y-28535524D01*
X115150253Y-28532754D01*
X115211432Y-28568777D01*
X115243423Y-28632158D01*
X115245500Y-28654943D01*
X115245500Y-28871769D01*
X115245800Y-28874825D01*
X115245800Y-28874832D01*
X115246486Y-28881825D01*
X115259920Y-29018833D01*
X115317084Y-29208169D01*
X115409934Y-29382796D01*
X115468776Y-29454943D01*
X115531040Y-29531287D01*
X115531043Y-29531290D01*
X115534935Y-29536062D01*
X115539682Y-29539989D01*
X115539684Y-29539991D01*
X115682575Y-29658201D01*
X115682579Y-29658203D01*
X115687325Y-29662130D01*
X115861299Y-29756198D01*
X116050232Y-29814682D01*
X116056357Y-29815326D01*
X116056358Y-29815326D01*
X116240796Y-29834711D01*
X116240798Y-29834711D01*
X116246925Y-29835355D01*
X116329424Y-29827847D01*
X116437749Y-29817989D01*
X116437752Y-29817988D01*
X116443888Y-29817430D01*
X116449794Y-29815692D01*
X116449798Y-29815691D01*
X116567862Y-29780943D01*
X116633619Y-29761590D01*
X116639077Y-29758737D01*
X116639081Y-29758735D01*
X116768059Y-29691306D01*
X116808890Y-29669960D01*
X116963025Y-29546032D01*
X116967289Y-29540951D01*
X117003637Y-29497633D01*
X117090154Y-29394526D01*
X117093121Y-29389128D01*
X117093125Y-29389123D01*
X117182467Y-29226608D01*
X117185433Y-29221213D01*
X117187846Y-29213608D01*
X117243373Y-29038564D01*
X117243373Y-29038563D01*
X117245235Y-29032694D01*
X117262500Y-28878773D01*
X117262500Y-27672231D01*
X117261814Y-27665227D01*
X117252626Y-27571534D01*
X117248080Y-27525167D01*
X117190916Y-27335831D01*
X117098066Y-27161204D01*
X116990238Y-27028994D01*
X116976960Y-27012713D01*
X116976957Y-27012710D01*
X116973065Y-27007938D01*
X116966718Y-27002687D01*
X116825425Y-26885799D01*
X116825421Y-26885797D01*
X116820675Y-26881870D01*
X116646701Y-26787802D01*
X116457768Y-26729318D01*
X116451643Y-26728674D01*
X116451642Y-26728674D01*
X116267204Y-26709289D01*
X116267202Y-26709289D01*
X116261075Y-26708645D01*
X116178576Y-26716153D01*
X116070251Y-26726011D01*
X116070248Y-26726012D01*
X116064112Y-26726570D01*
X116058206Y-26728308D01*
X116058202Y-26728309D01*
X115953076Y-26759249D01*
X115874381Y-26782410D01*
X115868923Y-26785263D01*
X115868919Y-26785265D01*
X115802400Y-26820041D01*
X115699110Y-26874040D01*
X115544975Y-26997968D01*
X115496600Y-27055619D01*
X115437493Y-27094944D01*
X115366506Y-27096070D01*
X115323552Y-27074722D01*
X115263743Y-27028994D01*
X115263739Y-27028991D01*
X115258322Y-27024850D01*
X115112873Y-26957026D01*
X115100369Y-26951195D01*
X115100366Y-26951194D01*
X115094192Y-26948315D01*
X115087544Y-26946829D01*
X115087541Y-26946828D01*
X114938962Y-26913617D01*
X114917457Y-26908810D01*
X114911912Y-26908500D01*
X114778756Y-26908500D01*
X114643963Y-26923143D01*
X114530556Y-26961309D01*
X114478796Y-26978728D01*
X114478794Y-26978729D01*
X114472325Y-26980906D01*
X114317095Y-27074177D01*
X114312138Y-27078865D01*
X114312135Y-27078867D01*
X114190473Y-27193918D01*
X114185515Y-27198607D01*
X114181683Y-27204245D01*
X114181680Y-27204249D01*
X114097133Y-27328656D01*
X114083723Y-27348388D01*
X114016470Y-27516534D01*
X114015356Y-27523262D01*
X114015355Y-27523266D01*
X113991270Y-27668751D01*
X113986892Y-27695198D01*
X109876203Y-27695198D01*
X109871987Y-27614766D01*
X109871630Y-27607953D01*
X109866523Y-27589410D01*
X109825352Y-27439941D01*
X109823539Y-27433359D01*
X109739078Y-27273164D01*
X109734673Y-27267951D01*
X109734670Y-27267947D01*
X109626594Y-27140057D01*
X109626590Y-27140053D01*
X109622187Y-27134843D01*
X109616762Y-27130695D01*
X109483743Y-27028994D01*
X109483739Y-27028991D01*
X109478322Y-27024850D01*
X109332873Y-26957026D01*
X109320369Y-26951195D01*
X109320366Y-26951194D01*
X109314192Y-26948315D01*
X109307544Y-26946829D01*
X109307541Y-26946828D01*
X109158962Y-26913617D01*
X109137457Y-26908810D01*
X109131912Y-26908500D01*
X108998756Y-26908500D01*
X108863963Y-26923143D01*
X108750556Y-26961309D01*
X108698796Y-26978728D01*
X108698794Y-26978729D01*
X108692325Y-26980906D01*
X108537095Y-27074177D01*
X108536671Y-27073472D01*
X108475480Y-27096762D01*
X108406007Y-27082135D01*
X108368008Y-27050782D01*
X108344971Y-27022536D01*
X108333065Y-27007938D01*
X108326718Y-27002687D01*
X108185425Y-26885799D01*
X108185421Y-26885797D01*
X108180675Y-26881870D01*
X108006701Y-26787802D01*
X107817768Y-26729318D01*
X107811643Y-26728674D01*
X107811642Y-26728674D01*
X107627204Y-26709289D01*
X107627202Y-26709289D01*
X107621075Y-26708645D01*
X107538576Y-26716153D01*
X107430251Y-26726011D01*
X107430248Y-26726012D01*
X107424112Y-26726570D01*
X107418206Y-26728308D01*
X107418202Y-26728309D01*
X107313076Y-26759249D01*
X107234381Y-26782410D01*
X107228923Y-26785263D01*
X107228919Y-26785265D01*
X107162400Y-26820041D01*
X107059110Y-26874040D01*
X106904975Y-26997968D01*
X106777846Y-27149474D01*
X106774879Y-27154872D01*
X106774875Y-27154877D01*
X106713379Y-27266739D01*
X106682567Y-27322787D01*
X106680706Y-27328654D01*
X106680705Y-27328656D01*
X106648343Y-27430673D01*
X106622765Y-27511306D01*
X106605500Y-27665227D01*
X106605500Y-27956734D01*
X106585498Y-28024855D01*
X106531842Y-28071348D01*
X106461568Y-28081452D01*
X106396988Y-28051958D01*
X106369222Y-28017682D01*
X106313911Y-27917603D01*
X106307788Y-27904890D01*
X106217006Y-27685714D01*
X106212346Y-27672395D01*
X106146679Y-27444448D01*
X106143535Y-27430673D01*
X106128356Y-27341329D01*
X106103802Y-27196807D01*
X106102221Y-27182774D01*
X106101412Y-27168362D01*
X106091030Y-26983450D01*
X106091826Y-26960606D01*
X106093225Y-26949529D01*
X106089101Y-26907465D01*
X106088500Y-26895171D01*
X106088500Y-26802500D01*
X106108502Y-26734379D01*
X106162158Y-26687886D01*
X106214500Y-26676500D01*
X106274134Y-26676500D01*
X106336316Y-26669745D01*
X106472705Y-26618615D01*
X106589261Y-26531261D01*
X106676615Y-26414705D01*
X106727745Y-26278316D01*
X106734500Y-26216134D01*
X106734500Y-26212669D01*
X117175201Y-26212669D01*
X117175571Y-26219490D01*
X117181095Y-26270352D01*
X117184721Y-26285604D01*
X117229876Y-26406054D01*
X117238414Y-26421649D01*
X117314915Y-26523724D01*
X117327476Y-26536285D01*
X117429551Y-26612786D01*
X117445146Y-26621324D01*
X117565594Y-26666478D01*
X117580849Y-26670105D01*
X117631714Y-26675631D01*
X117638528Y-26676000D01*
X118261085Y-26676000D01*
X118276324Y-26671525D01*
X118277529Y-26670135D01*
X118279200Y-26662452D01*
X118279200Y-25590115D01*
X118274725Y-25574876D01*
X118273335Y-25573671D01*
X118265652Y-25572000D01*
X117193316Y-25572000D01*
X117178077Y-25576475D01*
X117176872Y-25577865D01*
X117175201Y-25585548D01*
X117175201Y-26212669D01*
X106734500Y-26212669D01*
X106734500Y-25241102D01*
X106754502Y-25172981D01*
X106808158Y-25126488D01*
X106878432Y-25116384D01*
X106940813Y-25144016D01*
X107047325Y-25232130D01*
X107221299Y-25326198D01*
X107410232Y-25384682D01*
X107416357Y-25385326D01*
X107416358Y-25385326D01*
X107600796Y-25404711D01*
X107600798Y-25404711D01*
X107606925Y-25405355D01*
X107689424Y-25397847D01*
X107797749Y-25387989D01*
X107797752Y-25387988D01*
X107803888Y-25387430D01*
X107809794Y-25385692D01*
X107809798Y-25385691D01*
X107940546Y-25347210D01*
X107993619Y-25331590D01*
X107999077Y-25328737D01*
X107999081Y-25328735D01*
X108124126Y-25263362D01*
X108168890Y-25239960D01*
X108323025Y-25116032D01*
X108450154Y-24964526D01*
X108453121Y-24959128D01*
X108453125Y-24959123D01*
X108536744Y-24807018D01*
X108545433Y-24791213D01*
X108547846Y-24783608D01*
X108603373Y-24608564D01*
X108603373Y-24608563D01*
X108605235Y-24602694D01*
X108622500Y-24448773D01*
X108622500Y-24441769D01*
X115245500Y-24441769D01*
X115245800Y-24444825D01*
X115245800Y-24444832D01*
X115246530Y-24452273D01*
X115259920Y-24588833D01*
X115317084Y-24778169D01*
X115409934Y-24952796D01*
X115457408Y-25011005D01*
X115531040Y-25101287D01*
X115531043Y-25101290D01*
X115534935Y-25106062D01*
X115539682Y-25109989D01*
X115539684Y-25109991D01*
X115682575Y-25228201D01*
X115682579Y-25228203D01*
X115687325Y-25232130D01*
X115861299Y-25326198D01*
X116050232Y-25384682D01*
X116056357Y-25385326D01*
X116056358Y-25385326D01*
X116240796Y-25404711D01*
X116240798Y-25404711D01*
X116246925Y-25405355D01*
X116329424Y-25397847D01*
X116437749Y-25387989D01*
X116437752Y-25387988D01*
X116443888Y-25387430D01*
X116449794Y-25385692D01*
X116449798Y-25385691D01*
X116580546Y-25347210D01*
X116633619Y-25331590D01*
X116639077Y-25328737D01*
X116639081Y-25328735D01*
X116764126Y-25263362D01*
X116808890Y-25239960D01*
X116963025Y-25116032D01*
X116998624Y-25073606D01*
X117057732Y-25034281D01*
X117128720Y-25033155D01*
X117177658Y-25059376D01*
X117181066Y-25062329D01*
X117188748Y-25064000D01*
X118261085Y-25064000D01*
X118276324Y-25059525D01*
X118277529Y-25058135D01*
X118279200Y-25050452D01*
X118279200Y-23050115D01*
X118274725Y-23034876D01*
X118273335Y-23033671D01*
X118265652Y-23032000D01*
X117216425Y-23032000D01*
X117201186Y-23036475D01*
X117198364Y-23039732D01*
X117174696Y-23091557D01*
X117114971Y-23129942D01*
X117043974Y-23129943D01*
X116981830Y-23088684D01*
X116976963Y-23082716D01*
X116976957Y-23082710D01*
X116973065Y-23077938D01*
X116964570Y-23070910D01*
X116825425Y-22955799D01*
X116825421Y-22955797D01*
X116820675Y-22951870D01*
X116646701Y-22857802D01*
X116457768Y-22799318D01*
X116451643Y-22798674D01*
X116451642Y-22798674D01*
X116267204Y-22779289D01*
X116267202Y-22779289D01*
X116261075Y-22778645D01*
X116178576Y-22786153D01*
X116070251Y-22796011D01*
X116070248Y-22796012D01*
X116064112Y-22796570D01*
X116058206Y-22798308D01*
X116058202Y-22798309D01*
X116015313Y-22810932D01*
X115874381Y-22852410D01*
X115868923Y-22855263D01*
X115868919Y-22855265D01*
X115788325Y-22897399D01*
X115699110Y-22944040D01*
X115544975Y-23067968D01*
X115417846Y-23219474D01*
X115414879Y-23224872D01*
X115414875Y-23224877D01*
X115370970Y-23304741D01*
X115322567Y-23392787D01*
X115320706Y-23398654D01*
X115320705Y-23398656D01*
X115272563Y-23550420D01*
X115262765Y-23581306D01*
X115245500Y-23735227D01*
X115245500Y-24441769D01*
X108622500Y-24441769D01*
X108622500Y-23742231D01*
X108621814Y-23735227D01*
X108610388Y-23618710D01*
X108608080Y-23595167D01*
X108605524Y-23586699D01*
X108552697Y-23411731D01*
X108550916Y-23405831D01*
X108458066Y-23231204D01*
X108348440Y-23096789D01*
X108336960Y-23082713D01*
X108336957Y-23082710D01*
X108333065Y-23077938D01*
X108324570Y-23070910D01*
X108185425Y-22955799D01*
X108185421Y-22955797D01*
X108180675Y-22951870D01*
X108006701Y-22857802D01*
X107817768Y-22799318D01*
X107811643Y-22798674D01*
X107811642Y-22798674D01*
X107627204Y-22779289D01*
X107627202Y-22779289D01*
X107621075Y-22778645D01*
X107538576Y-22786153D01*
X107430251Y-22796011D01*
X107430248Y-22796012D01*
X107424112Y-22796570D01*
X107418206Y-22798308D01*
X107418202Y-22798309D01*
X107375313Y-22810932D01*
X107234381Y-22852410D01*
X107228923Y-22855263D01*
X107228919Y-22855265D01*
X107148325Y-22897399D01*
X107059110Y-22944040D01*
X106904975Y-23067968D01*
X106904109Y-23066891D01*
X106847641Y-23096967D01*
X106776882Y-23091165D01*
X106727905Y-23057213D01*
X106709259Y-23036205D01*
X106694617Y-23032000D01*
X105248000Y-23032000D01*
X105179879Y-23011998D01*
X105133386Y-22958342D01*
X105122000Y-22906000D01*
X105122000Y-22650000D01*
X105142002Y-22581879D01*
X105195658Y-22535386D01*
X105248000Y-22524000D01*
X106694344Y-22524000D01*
X106707875Y-22520027D01*
X106709180Y-22510947D01*
X106667214Y-22343875D01*
X106663894Y-22334124D01*
X106606334Y-22201743D01*
X106597514Y-22131296D01*
X106628181Y-22067265D01*
X106688598Y-22029977D01*
X106721884Y-22025501D01*
X117187848Y-22025501D01*
X117255969Y-22045503D01*
G37*
%TD.AperFunction*%
%TA.AperFunction,Conductor*%
G36*
X126340984Y-22045503D02*
G01*
X126387477Y-22099159D01*
X126397581Y-22169433D01*
X126368087Y-22234013D01*
X126308361Y-22272397D01*
X126299709Y-22274608D01*
X126153834Y-22306414D01*
X126150407Y-22307587D01*
X126150401Y-22307589D01*
X125926105Y-22384383D01*
X125825590Y-22418797D01*
X125512439Y-22568163D01*
X125509360Y-22570094D01*
X125509359Y-22570095D01*
X125447848Y-22608681D01*
X125218530Y-22752532D01*
X125215694Y-22754804D01*
X125215687Y-22754809D01*
X125027160Y-22905848D01*
X124947760Y-22969459D01*
X124703717Y-23216071D01*
X124701476Y-23218929D01*
X124493619Y-23484020D01*
X124489637Y-23489098D01*
X124487744Y-23492187D01*
X124487742Y-23492190D01*
X124441484Y-23567676D01*
X124308356Y-23784921D01*
X124306831Y-23788206D01*
X124306829Y-23788210D01*
X124259933Y-23889239D01*
X124162278Y-24099620D01*
X124119177Y-24229946D01*
X124096081Y-24299782D01*
X124053338Y-24429023D01*
X124052602Y-24432578D01*
X124052601Y-24432581D01*
X124008769Y-24644237D01*
X123982981Y-24768764D01*
X123974923Y-24859057D01*
X123956523Y-25065222D01*
X123955751Y-25073869D01*
X123955751Y-27297432D01*
X123955856Y-27299251D01*
X123955856Y-27299255D01*
X123968773Y-27523266D01*
X123970624Y-27555374D01*
X123971247Y-27558943D01*
X124026848Y-27877520D01*
X124030275Y-27897158D01*
X124031304Y-27900633D01*
X124031306Y-27900640D01*
X124047922Y-27956734D01*
X124128814Y-28229820D01*
X124130237Y-28233156D01*
X124130238Y-28233159D01*
X124258737Y-28534420D01*
X124264935Y-28548952D01*
X124266730Y-28552099D01*
X124266732Y-28552103D01*
X124359533Y-28714800D01*
X124436834Y-28850324D01*
X124642233Y-29129940D01*
X124644699Y-29132593D01*
X124644700Y-29132595D01*
X124654886Y-29143556D01*
X124878409Y-29384096D01*
X125142232Y-29609422D01*
X125430204Y-29802931D01*
X125738510Y-29962060D01*
X126063062Y-30084698D01*
X126066583Y-30085582D01*
X126066588Y-30085584D01*
X126227873Y-30126096D01*
X126399559Y-30169220D01*
X126403154Y-30169693D01*
X126406722Y-30170374D01*
X126406427Y-30171918D01*
X126465579Y-30198103D01*
X126504656Y-30257378D01*
X126505484Y-30328370D01*
X126490094Y-30362536D01*
X126426485Y-30461238D01*
X126424076Y-30467858D01*
X126424074Y-30467861D01*
X126370823Y-30614166D01*
X126364447Y-30631685D01*
X126363564Y-30638673D01*
X126363564Y-30638674D01*
X126361945Y-30651493D01*
X126341713Y-30811640D01*
X126359413Y-30992160D01*
X126416668Y-31164273D01*
X126420315Y-31170295D01*
X126420316Y-31170297D01*
X126496365Y-31295869D01*
X126510630Y-31319424D01*
X126636632Y-31449902D01*
X126637817Y-31450678D01*
X126676310Y-31507664D01*
X126677933Y-31578642D01*
X126644417Y-31635939D01*
X126543493Y-31734771D01*
X126445235Y-31887238D01*
X126442826Y-31893858D01*
X126442824Y-31893861D01*
X126394734Y-32025988D01*
X126383197Y-32057685D01*
X126360463Y-32237640D01*
X126378163Y-32418160D01*
X126435418Y-32590273D01*
X126439065Y-32596295D01*
X126439066Y-32596297D01*
X126458918Y-32629076D01*
X126529380Y-32745424D01*
X126534269Y-32750487D01*
X126534270Y-32750488D01*
X126558924Y-32776018D01*
X126655382Y-32875902D01*
X126661279Y-32879761D01*
X126666703Y-32884248D01*
X126665017Y-32886286D01*
X126703210Y-32931100D01*
X126712737Y-33001455D01*
X126682715Y-33065791D01*
X126622676Y-33103683D01*
X126588171Y-33108500D01*
X123013605Y-33108500D01*
X122994223Y-33107000D01*
X122993606Y-33106904D01*
X122970514Y-33103309D01*
X122961613Y-33104473D01*
X122961609Y-33104473D01*
X122955258Y-33105304D01*
X122929935Y-33106047D01*
X122889391Y-33103149D01*
X122760956Y-33093966D01*
X122743174Y-33091410D01*
X122572544Y-33054296D01*
X122552835Y-33050009D01*
X122535586Y-33044945D01*
X122353080Y-32976878D01*
X122336727Y-32969410D01*
X122165762Y-32876060D01*
X122150637Y-32866340D01*
X121994705Y-32749614D01*
X121981119Y-32737842D01*
X121862888Y-32619614D01*
X121843385Y-32600112D01*
X121831612Y-32586526D01*
X121714878Y-32430590D01*
X121705159Y-32415466D01*
X121611805Y-32244505D01*
X121604337Y-32228152D01*
X121554322Y-32094060D01*
X121536267Y-32045652D01*
X121531202Y-32028405D01*
X121489797Y-31838069D01*
X121487239Y-31820281D01*
X121487213Y-31819918D01*
X121475677Y-31658624D01*
X121476472Y-31639514D01*
X121476562Y-31632148D01*
X121477943Y-31623276D01*
X121474231Y-31594892D01*
X121473174Y-31577302D01*
X121473286Y-31566177D01*
X121489948Y-29900730D01*
X121490020Y-29899824D01*
X121490286Y-29898934D01*
X121490598Y-29847905D01*
X121490787Y-29816979D01*
X121490791Y-29816490D01*
X121490926Y-29802931D01*
X121491040Y-29791576D01*
X121490957Y-29790954D01*
X121490948Y-29790628D01*
X121491095Y-29766511D01*
X121491176Y-29753279D01*
X121483928Y-29727918D01*
X121480177Y-29709908D01*
X121477881Y-29692648D01*
X121476698Y-29683753D01*
X121465011Y-29657350D01*
X121459079Y-29640975D01*
X121453616Y-29621859D01*
X121453615Y-29621856D01*
X121451149Y-29613229D01*
X121446086Y-29605204D01*
X121437072Y-29590919D01*
X121428416Y-29574682D01*
X121425330Y-29567711D01*
X121417739Y-29550561D01*
X121399110Y-29528498D01*
X121388829Y-29514458D01*
X121373424Y-29490042D01*
X121353648Y-29472576D01*
X121340793Y-29459431D01*
X121328741Y-29445159D01*
X121300072Y-29380208D01*
X121311070Y-29310068D01*
X121323071Y-29289806D01*
X121354952Y-29245925D01*
X121358832Y-29240585D01*
X121375892Y-29202269D01*
X121433285Y-29073362D01*
X121433286Y-29073360D01*
X121435970Y-29067331D01*
X121456135Y-28972463D01*
X121474028Y-28888282D01*
X121474028Y-28888278D01*
X121475400Y-28881825D01*
X121475400Y-28692175D01*
X121464937Y-28642947D01*
X121450600Y-28575500D01*
X121435970Y-28506669D01*
X121401764Y-28429841D01*
X121361517Y-28339445D01*
X121361516Y-28339443D01*
X121358832Y-28333415D01*
X121347909Y-28318380D01*
X121280835Y-28226061D01*
X121256976Y-28159193D01*
X121273057Y-28090041D01*
X121280835Y-28077939D01*
X121354951Y-27975927D01*
X121354952Y-27975926D01*
X121358832Y-27970585D01*
X121385863Y-27909874D01*
X121433285Y-27803362D01*
X121433286Y-27803360D01*
X121435970Y-27797331D01*
X121461082Y-27679188D01*
X121474028Y-27618282D01*
X121474028Y-27618278D01*
X121475400Y-27611825D01*
X121475400Y-27422175D01*
X121463606Y-27366685D01*
X121442361Y-27266739D01*
X121435970Y-27236669D01*
X121416936Y-27193918D01*
X121361517Y-27069445D01*
X121361516Y-27069443D01*
X121358832Y-27063415D01*
X121353167Y-27055617D01*
X121280835Y-26956061D01*
X121256976Y-26889193D01*
X121273057Y-26820041D01*
X121280835Y-26807939D01*
X121354951Y-26705927D01*
X121354952Y-26705926D01*
X121358832Y-26700585D01*
X121369556Y-26676500D01*
X121433285Y-26533362D01*
X121433286Y-26533360D01*
X121435970Y-26527331D01*
X121461748Y-26406054D01*
X121474028Y-26348282D01*
X121474028Y-26348278D01*
X121475400Y-26341825D01*
X121475400Y-26152175D01*
X121435970Y-25966669D01*
X121358832Y-25793415D01*
X121280835Y-25686061D01*
X121256976Y-25619193D01*
X121273057Y-25550041D01*
X121280835Y-25537939D01*
X121354951Y-25435927D01*
X121354952Y-25435926D01*
X121358832Y-25430585D01*
X121368707Y-25408407D01*
X121433285Y-25263362D01*
X121433286Y-25263360D01*
X121435970Y-25257331D01*
X121464652Y-25122392D01*
X121474028Y-25078282D01*
X121474028Y-25078278D01*
X121475400Y-25071825D01*
X121475400Y-24882175D01*
X121472015Y-24866246D01*
X121437342Y-24703126D01*
X121435970Y-24696669D01*
X121433285Y-24690638D01*
X121361517Y-24529445D01*
X121361516Y-24529443D01*
X121358832Y-24523415D01*
X121354951Y-24518074D01*
X121351650Y-24512356D01*
X121353709Y-24511167D01*
X121333496Y-24454512D01*
X121349578Y-24385360D01*
X121363407Y-24365814D01*
X121369327Y-24360713D01*
X121374208Y-24353182D01*
X121374211Y-24353179D01*
X121389442Y-24329681D01*
X121397836Y-24318205D01*
X121415608Y-24296584D01*
X121415609Y-24296582D01*
X121421307Y-24289650D01*
X121428474Y-24272861D01*
X121438620Y-24253807D01*
X121448552Y-24238485D01*
X121451124Y-24229884D01*
X121451126Y-24229880D01*
X121459150Y-24203050D01*
X121463986Y-24189679D01*
X121474971Y-24163949D01*
X121474972Y-24163947D01*
X121478497Y-24155689D01*
X121479563Y-24146778D01*
X121479565Y-24146769D01*
X121480666Y-24137560D01*
X121485056Y-24116426D01*
X121487714Y-24107536D01*
X121487714Y-24107533D01*
X121490286Y-24098934D01*
X121490341Y-24089961D01*
X121490512Y-24061964D01*
X121491020Y-24053855D01*
X121491206Y-24049402D01*
X121491785Y-24044563D01*
X121490883Y-24019125D01*
X121490806Y-24013891D01*
X121490873Y-24002987D01*
X121491176Y-23953279D01*
X121488832Y-23945079D01*
X121487852Y-23933689D01*
X121474720Y-23563482D01*
X121476387Y-23538112D01*
X121477020Y-23534349D01*
X121477827Y-23529552D01*
X121477980Y-23517000D01*
X121477290Y-23512179D01*
X121476408Y-23506019D01*
X121475457Y-23479172D01*
X121482163Y-23385408D01*
X121487290Y-23313720D01*
X121489848Y-23295932D01*
X121491561Y-23288060D01*
X121531251Y-23105612D01*
X121536315Y-23088366D01*
X121604386Y-22905863D01*
X121611854Y-22889510D01*
X121705204Y-22718556D01*
X121714924Y-22703432D01*
X121714941Y-22703410D01*
X121831647Y-22547511D01*
X121843420Y-22533925D01*
X121856739Y-22520607D01*
X121981152Y-22396197D01*
X121994738Y-22384425D01*
X122150667Y-22267701D01*
X122165791Y-22257982D01*
X122336742Y-22164639D01*
X122353090Y-22157173D01*
X122535600Y-22089105D01*
X122552847Y-22084041D01*
X122743176Y-22042642D01*
X122760965Y-22040084D01*
X122923058Y-22028495D01*
X122940117Y-22029204D01*
X122940117Y-22029200D01*
X122949087Y-22029310D01*
X122957961Y-22030692D01*
X122966864Y-22029528D01*
X122966865Y-22029528D01*
X122989536Y-22026564D01*
X123005870Y-22025501D01*
X126272863Y-22025501D01*
X126340984Y-22045503D01*
G37*
%TD.AperFunction*%
M02*
