M48
; DRILL file {KiCad (6.0.10)} date Mon Jan 23 13:10:31 2023
; FORMAT={-:-/ absolute / inch / decimal}
; #@! TF.CreationDate,2023-01-23T13:10:31-05:00
; #@! TF.GenerationSoftware,Kicad,Pcbnew,(6.0.10)
; #@! TF.FileFunction,Plated,1,2,PTH
FMAT,2
INCH
; #@! TA.AperFunction,Plated,PTH,ViaDrill
T1C0.0157
; #@! TA.AperFunction,Plated,PTH,ComponentDrill
T2C0.0236
; #@! TA.AperFunction,Plated,PTH,ComponentDrill
T3C0.0394
; #@! TA.AperFunction,Plated,PTH,ComponentDrill
T4C0.0433
; #@! TA.AperFunction,Plated,PTH,ComponentDrill
T5C0.1181
%
G90
G05
T1
X4.1369Y-1.2569
X4.1969Y-1.0969
X4.2192Y-0.8835
X4.2986Y-1.1979
X4.5033Y-1.1976
X4.5994Y-1.2143
X4.8114Y-0.9249
X4.8114Y-1.2419
X4.8464Y-0.8819
X4.8464Y-1.2769
X5.0061Y-1.2135
X5.0069Y-1.2696
X5.2161Y-1.0985
X5.2177Y-1.2171
X5.7211Y-1.2435
X5.7469Y-1.3769
X5.7469Y-1.5851
X5.8269Y-1.2171
X5.8469Y-1.7535
X5.9069Y-1.7535
X5.9869Y-1.7369
X6.0211Y-1.2035
X6.1111Y-1.2935
X6.2564Y-0.8819
X6.2564Y-1.1149
X6.2914Y-0.9249
X6.2914Y-1.1149
T3
X4.1487Y-0.8968
X4.1487Y-0.9968
X4.3399Y-1.2763
X4.4399Y-1.2763
X4.6667Y-0.8968
X4.6667Y-0.9968
X5.2916Y-0.8968
X5.2916Y-0.9968
X5.4828Y-1.2763
X5.5828Y-1.2763
X5.8096Y-0.8968
X5.8096Y-0.9968
T2
G00X4.2368Y-0.9603
M15
G01X4.2368Y-0.9367
M16
G05
G00X4.2368Y-1.1347
M15
G01X4.2368Y-1.0914
M16
G05
G00X4.5769Y-0.9603
M15
G01X4.5769Y-0.9367
M16
G05
G00X4.5769Y-1.1347
M15
G01X4.5769Y-1.0914
M16
G05
T4
G00X5.3797Y-0.9682
M15
G01X5.3797Y-0.9288
M16
G05
G00X5.3797Y-1.1328
M15
G01X5.3797Y-1.0934
M16
G05
G00X5.7199Y-0.9682
M15
G01X5.7199Y-0.9288
M16
G05
G00X5.7199Y-1.1328
M15
G01X5.7199Y-1.0934
M16
G05
T5
G00X4.9986Y-0.9925
M15
G01X4.9986Y-1.0712
M16
G05
G00X6.101Y-0.9925
M15
G01X6.101Y-1.0712
M16
G05
T0
M30
